<svg xmlns="http://www.w3.org/2000/svg" width="77" height="35.977" viewBox="0 0 77 35.977">
  <g id="iconfinder_Aviation_1-08_2713648" transform="translate(-1.981 -17.9)">
    <path id="Path_339" data-name="Path 339" d="M77.246,39.315l-25.7,5.14a16.061,16.061,0,0,0,1-5.711,21.3,21.3,0,0,0-.286-3h7.281a1.428,1.428,0,0,0,0-2.855H51.405a12.344,12.344,0,0,0-9.423-7.281V19.328a1.428,1.428,0,1,0-2.855,0v6.282A12.579,12.579,0,0,0,29.7,32.89h-8.28a1.428,1.428,0,1,0,0,2.855h7.281a21.3,21.3,0,0,0-.286,3,21.892,21.892,0,0,0,1,5.853l-25.7-5.282A1.456,1.456,0,1,0,3.15,42.17l10.707,2.141a4.481,4.481,0,0,0-1,3,4.854,4.854,0,1,0,9.708,0c0-.428-.143-.857-.143-1.285l8.709,1.713c2.141,3.569,5.568,6.139,9.423,6.139,4,0,7.281-2.57,9.423-6.139l8.138-1.57a3.953,3.953,0,0,0-.143,1.285,4.854,4.854,0,0,0,9.708,0,4.6,4.6,0,0,0-1-2.855l11.136-2.284a1.528,1.528,0,0,0-.571-3ZM17.712,49.308a2,2,0,1,1,2-2A2.042,2.042,0,0,1,17.712,49.308Zm22.7,1.713c-5.14,0-9.28-6.71-9.28-12.278,0-5.711,4.14-10.279,9.28-10.279s9.28,4.569,9.28,10.279C49.692,44.312,45.552,51.022,40.412,51.022Zm22.414-1.713a2,2,0,1,1,2-2A1.952,1.952,0,0,1,62.826,49.308Z" transform="translate(0 0)"/>
    <path id="Path_340" data-name="Path 340" d="M30.953,27.7c-4,0-6.853,1.713-6.853,4s2.855,4,6.853,4,6.853-1.713,6.853-4S34.95,27.7,30.953,27.7Zm0,5.14c-2.427,0-3.855-.857-4-1.142.143-.286,1.57-1.142,4-1.142s3.855.857,4,1.142C34.807,31.983,33.523,32.84,30.953,32.84Z" transform="translate(9.459 4.191)" fill="#931837"/>
  </g>
</svg>
