<svg id="Layer_1" data-name="Layer 1" xmlns="http://www.w3.org/2000/svg" viewBox="0 0 146.53 26.07"><title>logo</title><path d="M14.07,13.39c0,3.36-2.73,5.55-6.11,5.55H0V0H7.41c3.3,0,6,2.14,6,5.41a4.74,4.74,0,0,1-1.65,3.71A4.88,4.88,0,0,1,14.07,13.39ZM4.33,4.06V7.41H7.41A1.59,1.59,0,0,0,9.06,5.74,1.58,1.58,0,0,0,7.41,4.06Zm5.41,9A1.7,1.7,0,0,0,8,11.26H4.33v3.62H8A1.71,1.71,0,0,0,9.74,13.07Z"/><path d="M16.56,8.9h6.38a2,2,0,0,1,1.95,1.95h0a2,2,0,0,1-1.95,2H16.56a2,2,0,0,1-1.95-2h0A2,2,0,0,1,16.56,8.9Z"/><path d="M38.42,16.86h0a2.08,2.08,0,0,1-2.08,2.08H26.51V0H36.2a2.08,2.08,0,0,1,2.08,2.08h0A2.09,2.09,0,0,1,36.2,4.17H30.84V7.31h4.71a2.05,2.05,0,0,1,2.06,2.05h0a2.06,2.06,0,0,1-2.06,2.06H30.84v3.35h5.5A2.09,2.09,0,0,1,38.42,16.86Z"/><path d="M54.32,12.18A7.16,7.16,0,0,1,67.61,8.5l-3.55,2.05A2.8,2.8,0,0,0,61.44,9a3,3,0,0,0-3.06,3.14,3,3,0,0,0,3.06,3.14,2.76,2.76,0,0,0,2.62-1.52l3.55,2a6.93,6.93,0,0,1-6.12,3.49A7,7,0,0,1,54.32,12.18Z"/><path d="M80.59,10.63v8.31H76.53V11.23a2.22,2.22,0,0,0-2.35-2.46c-1.49,0-2.52.86-2.52,2.78v7.39H67.6V0h4.06V6.68A4.64,4.64,0,0,1,75.53,5C78.27,5,80.59,7,80.59,10.63Z"/><path d="M95.64,5.41V18.94H91.58V17.67a5.09,5.09,0,0,1-4,1.65c-3.54,0-6.46-3.11-6.46-7.14S84,5,87.54,5a5.13,5.13,0,0,1,4,1.65V5.41Zm-4.06,6.77a3.22,3.22,0,1,0-6.44,0,3.22,3.22,0,1,0,6.44,0Z"/><path d="M110,10.63v8.31h-4.06V11.23a2.22,2.22,0,0,0-2.35-2.46c-1.49,0-2.52.86-2.52,2.78v7.39H97V5.41H101V6.68A4.64,4.64,0,0,1,104.91,5C107.65,5,110,7,110,10.63Z"/><path d="M125,5.41V18.27c0,4.54-3.55,6.46-7.15,6.46-2.81,0-5.17-1.05-6.41-3.27l3.46-2a3.11,3.11,0,0,0,3.09,1.7c1.89,0,3-1,3-2.89V17a4.8,4.8,0,0,1-4,1.76,6.7,6.7,0,0,1-6.65-6.87A6.7,6.7,0,0,1,117.11,5a4.8,4.8,0,0,1,4,1.76V5.41Zm-4,6.5a3.27,3.27,0,0,0-6.54,0,3.27,3.27,0,0,0,6.54,0Z"/><path d="M133.24,15.69a3.57,3.57,0,0,0,2.6-1l3.24,1.86a6.86,6.86,0,0,1-5.9,2.79c-4.62,0-7.49-3.11-7.49-7.14A6.94,6.94,0,0,1,132.89,5a6.83,6.83,0,0,1,6.87,7.15,7.74,7.74,0,0,1-.16,1.62H130C130.51,15.21,131.75,15.69,133.24,15.69Zm2.49-4.92a3,3,0,0,0-5.82,0Z"/><path d="M42.82,12.14l3.93,3.53-2.89,2.6a2.63,2.63,0,1,1-3.51-3.91Z"/><path d="M54,8a2.6,2.6,0,0,1-.87,2l-2.47,2.23L46.75,8.61,49.63,6A2.62,2.62,0,0,1,54,8Z"/><polygon points="50.67 12.14 46.75 15.67 42.82 12.14 46.75 8.61 50.67 12.14"/><path d="M46.75,8.61l-3.93,3.53L40.35,9.91A2.6,2.6,0,0,1,39.48,8,2.62,2.62,0,0,1,43.86,6Z"/><path d="M53.34,18.07a2.63,2.63,0,0,1-3.71.2l-2.88-2.6,3.92-3.53,2.47,2.22A2.63,2.63,0,0,1,53.34,18.07Z"/><path d="M143.63,17.26H143v2h-.61v-2h-.67v-.58h1.95Z"/><path d="M146.53,19.31h-.6V17.78l-.68,1.12h-.07l-.68-1.12v1.53h-.6V16.68h.6l.72,1.17.71-1.17h.6Z"/><path d="M27.24,22.85s0,0,0,0h.56s.07,0,.08,0l.81,1.84h0l.8-1.84a.07.07,0,0,1,.07,0h.56s0,0,0,0V26s0,.05,0,.05h-.54s0,0,0-.05V24.16h0L29,25.52a.1.1,0,0,1-.09.06h-.32a.1.1,0,0,1-.09-.06l-.6-1.36h0V26s0,.05,0,.05h-.54s0,0,0-.05Z"/><path d="M34.44,22.85s0,0,.07,0h.59a.05.05,0,0,1,.06,0L36.25,26s0,.05,0,.05H35.6a.06.06,0,0,1-.06-.05l-.18-.56H34.23l-.18.56A.06.06,0,0,1,34,26h-.62s0,0,0-.05Zm.73,2-.37-1.13h0l-.36,1.13Z"/><path d="M39.36,22.85s0,0,0,0H40s.05,0,.05,0v1.39l1.06-1.39a.09.09,0,0,1,.08,0h.69s0,0,0,0a0,0,0,0,1,0,0l-1,1.22L42,26s0,0,0,0l0,0h-.7s-.05,0-.07-.05l-.72-1.35-.42.53V26A0,0,0,0,1,40,26h-.6a0,0,0,0,1,0-.05Z"/><path d="M45.15,22.85s0,0,.05,0h.6s0,0,0,0V26s0,.05,0,.05h-.6s-.05,0-.05-.05Z"/><path d="M49.2,22.85s0,0,0,0h.57a.08.08,0,0,1,.08,0l1.13,2h0v-2s0,0,0,0h.54s0,0,0,0V26a0,0,0,0,1,0,.05h-.56A.09.09,0,0,1,51,26l-1.14-2h0v2s0,.05,0,.05h-.54s0,0,0-.05Z"/><path d="M55,25a4.15,4.15,0,0,1,0-.59c0-.17,0-.33,0-.47a1.49,1.49,0,0,1,.08-.41,1.05,1.05,0,0,1,.43-.58,1.39,1.39,0,0,1,.75-.19,1.36,1.36,0,0,1,.69.17.94.94,0,0,1,.45.51s0,.06,0,.07l-.51.21a0,0,0,0,1-.06,0,.6.6,0,0,0-.55-.33.49.49,0,0,0-.52.36,3,3,0,0,0-.05.68,3,3,0,0,0,.05.69.5.5,0,0,0,.53.36.57.57,0,0,0,.32-.09.4.4,0,0,0,.19-.25.93.93,0,0,0,0-.31,0,0,0,0,0,0,0h-.43s0,0,0-.05v-.45s0-.05,0-.05h1.1a0,0,0,0,1,0,.05v.26a2.68,2.68,0,0,1-.08.73,1.13,1.13,0,0,1-.43.59,1.31,1.31,0,0,1-.74.21,1.4,1.4,0,0,1-.75-.2,1,1,0,0,1-.43-.58A1.77,1.77,0,0,1,55,25Z"/><path d="M64.59,22.85s0,0,0,0h.6s.05,0,.05,0v2.52s0,0,0,0h1.42s0,0,0,.05V26a0,0,0,0,1,0,.05H64.64a0,0,0,0,1,0-.05Z"/><path d="M69.93,22.85s0,0,0,0h.6s0,0,0,0V26s0,.05,0,.05H70a0,0,0,0,1,0-.05Z"/><path d="M74,22.85s0,0,0,0h2s0,0,0,0v.51a0,0,0,0,1,0,.05H74.7a0,0,0,0,0,0,0v.67a0,0,0,0,0,0,0h1.15s.05,0,.05.05v.5s0,0-.05,0H74.7a0,0,0,0,0,0,0V26s0,.05,0,.05H74s0,0,0-.05Z"/><path d="M79.35,22.85s0,0,.05,0h2s0,0,0,0v.51s0,.05,0,.05H80.07a0,0,0,0,0,0,0v.63a0,0,0,0,0,0,0h1.15a0,0,0,0,1,0,0v.5a0,0,0,0,1,0,.05H80.07s0,0,0,0v.67a0,0,0,0,0,0,0h1.38s0,0,0,0V26s0,.05,0,.05h-2s-.05,0-.05-.05Z"/><path d="M88.61,22.85s0,0,0,0h2.06s0,0,0,0v.51a0,0,0,0,1,0,.05H89.34a0,0,0,0,0,0,0v.63a0,0,0,0,0,0,0h1.15s0,0,0,0v.5s0,.05,0,.05H89.34s0,0,0,0v.67a0,0,0,0,0,0,0h1.38s0,0,0,0V26a0,0,0,0,1,0,.05H88.66a0,0,0,0,1,0-.05Z"/><path d="M94.89,22.85a.05.05,0,0,1,.06,0h.59a.05.05,0,0,1,.06,0L96.69,26s0,.05,0,.05H96A.06.06,0,0,1,96,26l-.18-.56H94.67l-.18.56a.06.06,0,0,1-.06.05h-.62s0,0,0-.05Zm.72,2-.37-1.13h0l-.36,1.13Z"/><path d="M100.18,25.94a1.58,1.58,0,0,1-.53-.31.05.05,0,0,1,0-.08l.36-.41s0,0,.07,0a1.36,1.36,0,0,0,.84.33.63.63,0,0,0,.39-.1.34.34,0,0,0,.14-.28.28.28,0,0,0-.12-.23.83.83,0,0,0-.38-.13l-.17,0c-.68-.09-1-.42-1-1a.9.9,0,0,1,.31-.72,1.21,1.21,0,0,1,.82-.26,2.35,2.35,0,0,1,.6.08,1.5,1.5,0,0,1,.49.25s0,0,0,.07l-.28.43s0,0-.07,0a1.38,1.38,0,0,0-.75-.24.43.43,0,0,0-.31.1.29.29,0,0,0-.12.25c0,.19.17.31.5.35l.17,0c.68.09,1,.41,1,1a.92.92,0,0,1-.33.73,1.39,1.39,0,0,1-.94.28A1.93,1.93,0,0,1,100.18,25.94Z"/><path d="M106,26a0,0,0,0,1,0-.05V24.74L105,22.85s0,0,0,0h.61s.06,0,.07,0L106.3,24h0l.58-1.18s0,0,.07,0h.63v0l-.95,1.89V26a0,0,0,0,1-.05.05Z"/></svg>