<svg xmlns="http://www.w3.org/2000/svg" width="50" height="49.95" viewBox="0 0 50 49.95"><g transform="translate(-20 -20)"><g transform="translate(37.515 38.967)"><g transform="translate(5.216 14.149)"><path d="M113.468,154.936l1.865-1.069a.236.236,0,0,0,0-.423l-1.865-1.069a.452.452,0,0,0-.5,0l-1.865,1.069a.236.236,0,0,0,0,.423l1.865,1.069A.452.452,0,0,0,113.468,154.936Z" transform="translate(-110.975 -152.3)" fill="#931837"/></g><g transform="translate(0 0)"><path d="M103.925,98.831l-5.471-3.158a1.945,1.945,0,0,0-1.989,0l-5.471,3.158A1.974,1.974,0,0,0,90,100.547v6.316a1.944,1.944,0,0,0,.995,1.716l1.243.721a.452.452,0,0,0,.5,0l1.865-1.069a.236.236,0,0,0,0-.423l-1.616-.945a1,1,0,0,1-.5-.87v-4.6a1.068,1.068,0,0,1,.5-.87l3.979-2.288a.874.874,0,0,1,.5-.124,1.132,1.132,0,0,1,.5.124l3.979,2.288a1,1,0,0,1,.5.87v4.6a1.068,1.068,0,0,1-.5.87l-1.616.945a.236.236,0,0,0,0,.423l1.865,1.069a.452.452,0,0,0,.5,0l1.243-.721a1.974,1.974,0,0,0,.995-1.716v-6.316A2,2,0,0,0,103.925,98.831Z" transform="translate(-90 -95.4)" fill="#931837"/><path d="M103.925,164.6l-1.243-.721a.452.452,0,0,0-.5,0l-1.865,1.069a.236.236,0,0,0,0,.423l1.616.945a1,1,0,0,1,.5.87v4.6a1.068,1.068,0,0,1-.5.87l-3.979,2.288a.874.874,0,0,1-.5.124,1.132,1.132,0,0,1-.5-.124l-3.979-2.288a1,1,0,0,1-.5-.87v-4.6a1.068,1.068,0,0,1,.5-.87l1.616-.945a.236.236,0,0,0,0-.423l-1.865-1.069a.452.452,0,0,0-.5,0l-1.243.721A1.974,1.974,0,0,0,90,166.311v6.316a1.945,1.945,0,0,0,.995,1.716l5.471,3.158a1.945,1.945,0,0,0,1.989,0l5.471-3.158a1.974,1.974,0,0,0,.995-1.716v-6.316A1.945,1.945,0,0,0,103.925,164.6Z" transform="translate(-90 -146.792)" fill="#931837"/></g></g><path d="M68.551,29.549l-9.241-7.957A7.889,7.889,0,0,0,54.216,20H35.734a7.889,7.889,0,0,0-5.095,1.591L21.4,29.549a3.674,3.674,0,0,0,0,5.769l9.241,7.957a7.293,7.293,0,0,0,3.8,1.517.505.505,0,0,0,.574-.5V42.777a.506.506,0,0,0-.425-.5,4.994,4.994,0,0,1-2.3-.9l-9.241-7.957a1.29,1.29,0,0,1,0-1.989l9.241-7.957a5.542,5.542,0,0,1,3.472-.995H54.241a5.593,5.593,0,0,1,3.472.995l9.241,7.957a1.29,1.29,0,0,1,0,1.989l-9.241,7.957a4.416,4.416,0,0,1-2.3.9.506.506,0,0,0-.425.5v1.517a.519.519,0,0,0,.574.5,7.293,7.293,0,0,0,3.8-1.517L68.6,35.317A3.782,3.782,0,0,0,70,32.433,4.1,4.1,0,0,0,68.551,29.549Z"/><g transform="translate(20 50.856)"><path d="M34.5,156.239a4.959,4.959,0,0,1-2.288-.9l-9.2-7.957a1.294,1.294,0,0,1,0-1.989l.373-.323a.5.5,0,0,0,0-.746l-1.144-.995a.491.491,0,0,0-.647,0l-.2.174a3.684,3.684,0,0,0,0,5.769l9.2,7.957a7.244,7.244,0,0,0,3.78,1.517.5.5,0,0,0,.572-.5v-1.517A.554.554,0,0,0,34.5,156.239Z" transform="translate(-20 -143.212)"/><path d="M173.527,143.536l-.2-.174a.523.523,0,0,0-.647,0l-1.144.995a.5.5,0,0,0,0,.746l.373.323a1.294,1.294,0,0,1,0,1.989l-9.2,7.957a4.386,4.386,0,0,1-2.288.9.506.506,0,0,0-.423.5v1.517a.518.518,0,0,0,.572.5,7.243,7.243,0,0,0,3.78-1.517l9.2-7.957a3.788,3.788,0,0,0,1.393-2.884A3.984,3.984,0,0,0,173.527,143.536Z" transform="translate(-124.969 -143.24)"/></g><g transform="translate(20 40.064)"><path d="M168.531,100.536l-.2-.174a.523.523,0,0,0-.647,0l-1.144.995a.5.5,0,0,0,0,.746l.373.323a1.294,1.294,0,0,1,0,1.989l-9.2,7.957a4.386,4.386,0,0,1-2.288.9c-.05,0-.075.025-.124.025a.19.19,0,0,0-.124.05l-1.716.995a.233.233,0,0,0,0,.4l1.716.995a.5.5,0,0,0,.323.05h.05a7.244,7.244,0,0,0,3.78-1.517l9.2-7.957a3.788,3.788,0,0,0,1.393-2.884A3.866,3.866,0,0,0,168.531,100.536Z" transform="translate(-119.973 -100.231)"/><path d="M36.461,114.28l-1.716-.995a.42.42,0,0,0-.124-.05.186.186,0,0,0-.124-.025,4.96,4.96,0,0,1-2.288-.9l-9.2-7.957a1.294,1.294,0,0,1,0-1.989l.373-.323a.5.5,0,0,0,0-.746l-1.144-.995a.465.465,0,0,0-.647,0l-.2.174a3.684,3.684,0,0,0,0,5.769l9.2,7.957a7.244,7.244,0,0,0,3.78,1.517h.05a.5.5,0,0,0,.323-.05l1.716-.995A.233.233,0,0,0,36.461,114.28Z" transform="translate(-20 -100.175)"/></g></g></svg>