<svg id="Layer_1" data-name="Layer 1" xmlns="http://www.w3.org/2000/svg" viewBox="0 0 117.02 28.99"><title>logo</title><path d="M0,29c.28-1.67.55-3.25.82-4.82Q1.9,17.9,3,11.64c.07-.39.2-.53.59-.53H28.44a2.88,2.88,0,0,1,.41.06c-.33,1.89-.64,3.75-1,5.61s-.61,3.88-1,5.8A8.13,8.13,0,0,1,19,29H0Z"/><path d="M3.49,8.68c.23-1.4.45-2.74.68-4.08s.48-2.64.67-4C4.92.16,5.09,0,5.58,0,11.76,0,18,0,24.14,0a5.38,5.38,0,0,1,5.51,6.23c-.09.8-.24,1.6-.37,2.43Z"/><path d="M33.53,22.51V8.37A3.84,3.84,0,0,1,34,8.31c2.08,0,4.18-.09,6.24.11a6.35,6.35,0,0,1,5.91,6.32,9.92,9.92,0,0,1-.44,3.38,6.06,6.06,0,0,1-5,4.25,7,7,0,0,1-1.29.13C37.43,22.52,35.52,22.51,33.53,22.51Zm2.67-2.58c1,0,1.88,0,2.79,0a4.17,4.17,0,0,0,4.51-4.27A4.16,4.16,0,0,0,40,11a26.83,26.83,0,0,0-3.81,0Z"/><path d="M82,8.36c2.53,0,5-.16,7.46.05a4.74,4.74,0,0,1,4.38,5.39,4.88,4.88,0,0,1-5,4.53c-1.37,0-2.73,0-4.15,0v4.12H82Zm2.67,7.46c1.55,0,3,.09,4.47,0a2.24,2.24,0,0,0,2-2.45A2.3,2.3,0,0,0,89,10.93c-1.45-.1-2.91,0-4.4,0Z"/><path d="M102.91,12.53h2.28v9.93h-2.27l-.11-1a12,12,0,0,1-2.35,1.17c-3.09.8-5.68-1.21-6-4.55-.4-3.86,2.79-6.71,6.35-5.63a11.79,11.79,0,0,1,2,1Zm-.18,5a2.91,2.91,0,1,0-5.82-.05,2.91,2.91,0,1,0,5.82.05Z"/><path d="M58.12,22.47H55.86l-.15-1.17c-2.32,2-5.23,1.95-7.05,0a6,6,0,0,1,.07-7.59,5.07,5.07,0,0,1,7-.05l.16-1.12h2.28Zm-8.27-5a2.91,2.91,0,1,0,5.82,0,2.91,2.91,0,1,0-5.82,0Z"/><path d="M108.23,26.68c.58-1.37,1.14-2.58,1.62-3.83a1.61,1.61,0,0,0,0-1.06c-1.13-2.85-2.29-5.68-3.44-8.52-.09-.22-.17-.44-.3-.78.93,0,1.78,0,2.62,0,.16,0,.37.33.45.54.66,1.87,1.31,3.75,2,5.62.08.24.17.49.31.86l.46-1.15c.73-1.8,1.46-3.59,2.17-5.4a.65.65,0,0,1,.73-.51c.7,0,1.39,0,2.2,0-.1.28-.17.5-.26.71-1.84,4.28-3.69,8.56-5.51,12.86a.87.87,0,0,1-1,.64C109.62,26.65,109,26.68,108.23,26.68Z"/><path d="M59.28,14.82V12.65h1.81C61,10.71,61.47,9,63.47,8.34a4.43,4.43,0,0,1,4,.58l-.87,1.79c-.84-.35-1.68-.8-2.5-.13-.62.5-.59,1.25-.52,2.05.79,0,1.55,0,2.31,0,.48,0,.64.16.61.62s0,.95,0,1.53H63.57v7.7H61.14V14.82Z"/><path d="M70.84,13.37c1.71-1.4,3.86-1.47,5.25-.1l-1,1.91a11.52,11.52,0,0,0-2-.41A2.11,2.11,0,0,0,70.76,17c-.05,1.55,0,3.11,0,4.67v.85c-.76,0-1.43,0-2.09,0a.53.53,0,0,1-.37-.38c0-3.16,0-6.31,0-9.62a11.73,11.73,0,0,1,2,0C70.47,12.57,70.62,13.05,70.84,13.37Z"/><path d="M79.48,22.47H77.1V12.53h2.38Z"/><path d="M78.29,11.17a1.39,1.39,0,0,1-1.48-1.41,1.46,1.46,0,1,1,2.91,0A1.37,1.37,0,0,1,78.29,11.17Z"/></svg>