<svg xmlns="http://www.w3.org/2000/svg" viewBox="0 0 130.91 37.94"><defs><style>.cls-1{fill:#0a0a0a;}</style></defs><title>logo</title><g id="Layer_2" data-name="Layer 2"><path class="cls-1" d="M35.07,0H4.42A4.42,4.42,0,0,0,0,4.42v29.1a4.42,4.42,0,0,0,4.42,4.42H35.07a4.42,4.42,0,0,0,4.42-4.42V4.42A4.42,4.42,0,0,0,35.07,0M30.22,16.44h0l-1.41,8.31a5.92,5.92,0,0,1-2,3.57A5.57,5.57,0,0,1,23,29.8H8.64l2.29-13.36H30.22Zm.56-3.25-.25,1.45H11.24l1.12-6.5H26.74a3.92,3.92,0,0,1,3,1.19,4.13,4.13,0,0,1,1.16,3,6.23,6.23,0,0,1-.07.86"/><path class="cls-1" d="M55.69,18.77c.06,3.6-2.13,7.24-7.11,7.24H43V11.78h5.59c4.88,0,7.05,3.48,7.11,7m-10,4.66h2.93c3.23,0,4.51-2.36,4.45-4.68a4.23,4.23,0,0,0-4.45-4.43H45.65Z"/><path class="cls-1" d="M64.41,16h2.38V26H64.45l-.12-1.47a3.8,3.8,0,0,1-3.25,1.77c-3,0-5.17-1.81-5.17-5.32a4.88,4.88,0,0,1,5.23-5.25,3.67,3.67,0,0,1,3.19,1.63Zm-6,5a2.88,2.88,0,0,0,3,3.05c3.9,0,3.9-6.08,0-6.08a2.86,2.86,0,0,0-3,3"/><path class="cls-1" d="M68.68,26V18.3H66.81V16.13h1.87v-.67a3.63,3.63,0,0,1,3.82-3.92,4.81,4.81,0,0,1,2.6.81l-.92,1.85a2.69,2.69,0,0,0-1.52-.53c-.86,0-1.51.57-1.51,1.79v.67H74.1V18.3H71.15V26Z"/><path class="cls-1" d="M77.13,16l.18,1.15a3,3,0,0,1,2.83-1.42,3.79,3.79,0,0,1,2.58,1L81.6,18.83a2.44,2.44,0,0,0-1.79-.65,2.31,2.31,0,0,0-2.5,2.54V26H74.84V16Z"/><path class="cls-1" d="M85.34,13.16a1.46,1.46,0,0,1-2.92,0,1.46,1.46,0,0,1,2.92,0M82.64,26h2.48V16H82.64Z"/><path class="cls-1" d="M98.08,15.91a2.89,2.89,0,0,1-1.84,2.74,3.48,3.48,0,0,1,2.27,3.17C98.51,25,96.13,26,93.19,26H86.44V11.78h6.75c2.8,0,4.89,1.26,4.89,4.13m-9,1.58h4.11c1.68,0,2.23-.71,2.23-1.52,0-.65-.53-1.75-2.23-1.75H89.08Zm0,6h4.11c1.09,0,2.66-.37,2.66-1.71s-1.57-1.95-2.66-1.95H89.08Z"/><path class="cls-1" d="M107.15,16h2.38V26h-2.34l-.12-1.47a3.81,3.81,0,0,1-3.25,1.77c-3,0-5.17-1.81-5.17-5.32a4.88,4.88,0,0,1,5.22-5.25,3.68,3.68,0,0,1,3.2,1.63Zm-6,5a2.87,2.87,0,0,0,3,3.05c3.9,0,3.9-6.08,0-6.08a2.86,2.86,0,0,0-3,3"/><path class="cls-1" d="M118,26V20.76a2.39,2.39,0,0,0-2.42-2.68,2.64,2.64,0,0,0-2.56,2.8V26h-2.46V16h2.22l.16,1.36a4.5,4.5,0,0,1,3.29-1.5c2.36,0,4.25,1.76,4.25,4.91V26Z"/><polygon class="cls-1" points="124 11.8 124 20.01 127.37 15.99 130.34 15.99 130.34 16.13 126.25 20.7 130.91 25.82 130.91 26.01 127.92 26.01 124 21.48 124 26.01 121.52 26.01 121.52 11.8 124 11.8"/><path class="cls-1" d="M66.09,29.06a1,1,0,0,1-.33.83,1.17,1.17,0,0,1-.85.29,4.43,4.43,0,0,1-.55,0V28.09A3.58,3.58,0,0,1,65,28a1.26,1.26,0,0,1,.81.24,1,1,0,0,1,.31.78m-.4,0a.69.69,0,0,0-.18-.51.67.67,0,0,0-.5-.19,1.06,1.06,0,0,0-.27,0v1.44l.24,0a.67.67,0,0,0,.53-.22.86.86,0,0,0,.18-.57"/><rect class="cls-1" x="67.94" y="28.07" width="0.38" height="2.08"/><path class="cls-1" d="M72,30a1.52,1.52,0,0,1-.69.16,1.07,1.07,0,0,1-.79-.29,1,1,0,0,1-.31-.78,1,1,0,0,1,.3-.79,1.08,1.08,0,0,1,.8-.28,1.67,1.67,0,0,1,.62.14l-.13.31a1.38,1.38,0,0,0-.52-.12.63.63,0,0,0-.49.19.72.72,0,0,0-.18.51.89.89,0,0,0,.17.56.68.68,0,0,0,.53.22,1,1,0,0,0,.33-.05.38.38,0,0,1,0-.1v-.64H72Z"/><rect class="cls-1" x="73.89" y="28.07" width="0.38" height="2.08"/><polygon class="cls-1" points="77.64 28.4 76.99 28.4 76.99 30.15 76.62 30.15 76.62 28.4 76.02 28.4 76.02 28.07 77.64 28.07 77.64 28.4"/><path class="cls-1" d="M81,30.15h-.43l-.2-.53h-.79l-.21.53H79l.85-2.08h.36Zm-.75-.86-.27-.7-.27.7Z"/><polygon class="cls-1" points="84.01 30.15 82.78 30.15 82.78 28.07 83.16 28.07 83.16 29.82 84.01 29.82 84.01 30.15"/><path class="cls-1" d="M89.4,29.57c0,.41-.29.61-.87.61a3.37,3.37,0,0,1-.52-.05v-2a3.13,3.13,0,0,1,.52-.07c.53,0,.8.2.8.59a.44.44,0,0,1-.09.27.55.55,0,0,1-.22.18h0a.49.49,0,0,1,.28.18.51.51,0,0,1,.1.32m-.46-.93a.24.24,0,0,0-.12-.23.62.62,0,0,0-.27-.05l-.16,0v.53h.18c.25,0,.37-.09.37-.27m.07.91c0-.21-.14-.31-.43-.31h-.19v.59l.17,0q.45,0,.45-.3"/><path class="cls-1" d="M93.07,30.15h-.42l-.21-.53h-.79l-.21.53H91l.85-2.08h.36Zm-.75-.86-.27-.7-.27.7Z"/><path class="cls-1" d="M96.64,30.12a.59.59,0,0,1-.22.05A.45.45,0,0,1,96,29.9l-.77-1.33a.43.43,0,0,0,0-.07h0v1.65h-.38V28.07h.56l.85,1.54,0,.09h0V28.07h.37v2.05Z"/><path class="cls-1" d="M100.21,30.15h-.49l-.62-.74a.61.61,0,0,0-.14-.14h0v.88h-.38V28.07H99v.81l.72-.81h.49l-.92,1a.2.2,0,0,1,.12.09Z"/><path class="cls-1" d="M106.08,29.11a1.16,1.16,0,0,1-.25.76.9.9,0,0,1-.73.31.89.89,0,0,1-.71-.3,1.28,1.28,0,0,1,0-1.53.9.9,0,0,1,.73-.31.88.88,0,0,1,.72.31,1.16,1.16,0,0,1,.25.76m-.41,0a.88.88,0,0,0-.13-.51.46.46,0,0,0-.44-.23.48.48,0,0,0-.44.23,1,1,0,0,0-.12.51.88.88,0,0,0,.13.51.5.5,0,0,0,.44.23.47.47,0,0,0,.43-.23.88.88,0,0,0,.13-.51"/><polygon class="cls-1" points="109.13 28.4 108.3 28.4 108.3 28.91 108.99 28.91 108.99 29.22 108.3 29.22 108.3 30.15 107.93 30.15 107.93 28.07 109.13 28.07 109.13 28.4"/><path class="cls-1" d="M115,30.15h-.42l-.21-.53h-.79l-.2.53H113l.85-2.08h.36Zm-.75-.86-.27-.7-.27.7Z"/><polygon class="cls-1" points="117.96 28.4 117.14 28.4 117.14 28.91 117.83 28.91 117.83 29.22 117.14 29.22 117.14 30.15 116.76 30.15 116.76 28.07 117.96 28.07 117.96 28.4"/><path class="cls-1" d="M121.31,30.15h-.44l-.42-.7-.1-.13h-.2v.84h-.37v-2a2.61,2.61,0,0,1,.53-.06q.81,0,.81.63A.62.62,0,0,1,121,29a.49.49,0,0,1-.31.19h0s.1.06.17.16Zm-.58-1.49c0-.2-.14-.3-.4-.3l-.18,0V29h.17a.46.46,0,0,0,.29-.09.36.36,0,0,0,.12-.27"/><rect class="cls-1" x="123.05" y="28.07" width="0.38" height="2.08"/><path class="cls-1" d="M126.89,30a1.21,1.21,0,0,1-.55.14,1,1,0,0,1-.76-.3,1.06,1.06,0,0,1-.29-.77,1.13,1.13,0,0,1,.27-.77,1,1,0,0,1,.74-.3,1.53,1.53,0,0,1,.59.14l-.13.31a1.13,1.13,0,0,0-.47-.12.52.52,0,0,0-.45.22.77.77,0,0,0-.15.49.81.81,0,0,0,.18.55.66.66,0,0,0,.52.21,1,1,0,0,0,.41-.09Z"/><path class="cls-1" d="M130.56,30.15h-.43l-.2-.53h-.79l-.21.53h-.4l.85-2.08h.36Zm-.75-.86-.27-.7-.27.7Z"/></g></svg>