<svg id="Layer_1" data-name="Layer 1" xmlns="http://www.w3.org/2000/svg" viewBox="0 0 85.86 45.35"><defs><style>.cls-1{fill:#0a0a0a;}</style></defs><title>logo</title><path class="cls-1" d="M29.94,7.22c.64-.14,1.28-.28,1.92-.4A42.89,42.89,0,0,1,41.18,6a35.52,35.52,0,0,1,10,1.61c.71.23.71.23.9.93Q53.9,15,55.68,21.43a2,2,0,0,1,.08.33l-.06,0a.75.75,0,0,0-.09-.15,30.4,30.4,0,0,0-7.06-6.52,49,49,0,0,0-10-5.16,69.21,69.21,0,0,0-8.29-2.6l-.34-.09Z"/><path class="cls-1" d="M23.89,14.17a3.62,3.62,0,0,1-.38-1.87,2.27,2.27,0,0,1,1.86-2,2.12,2.12,0,0,1,.95-.06l-.36.33c-.33.31-.68.61-1,1a1.54,1.54,0,0,0-.44,1,3.29,3.29,0,0,0,0,.41l.28-.08c.49-.19,1-.38,1.47-.59a13.48,13.48,0,0,1,5.43-1,22.22,22.22,0,0,1,6.8,1.26,42.65,42.65,0,0,1,9.72,4.73c1.88,1.21,3.68,2.52,5.46,3.87.3.23.59.49,1,.79l-.37,0c-3.88,0-7.77,0-11.66,0a1.31,1.31,0,0,1-1-.48l-.2-.25a19.2,19.2,0,0,0-10.58-7.65A18.69,18.69,0,0,0,28,12.91,4.5,4.5,0,0,0,24,14.09Z"/><path class="cls-1" d="M64.2,45.35l-1.39-.81a1.55,1.55,0,0,1,0-.15,14.75,14.75,0,0,0,1.46-4.28,24.81,24.81,0,0,0,.41-5.71,9.18,9.18,0,0,0-.34-2.33,6,6,0,0,0-.37-.91A2.54,2.54,0,0,0,59.74,31a4.86,4.86,0,0,0-.64,1.67,9.6,9.6,0,0,0-.18,2c0,.84,0,1.69,0,2.53,0,.09,0,.18,0,.31H63v1.59c-1.35,0-2.71,0-4.1,0v3.31H55.14c0-.12,0-.22,0-.32V35.31a7.72,7.72,0,0,1,.67-3.18A6.36,6.36,0,0,1,62,28.35,6.12,6.12,0,0,1,66.92,31a7.7,7.7,0,0,1,1.47,4.41,13.14,13.14,0,0,1-1.46,6.21,12.18,12.18,0,0,1-2.41,3.45C64.42,45.15,64.31,45.24,64.2,45.35Z"/><path class="cls-1" d="M0,42.39V28.66l.33,0c1.95,0,3.9,0,5.85,0a7.26,7.26,0,0,1,5.5,2.43,6.72,6.72,0,0,1-1.49,10.14,7.19,7.19,0,0,1-3.92,1.19c-2,0-4,0-6,0Zm3.8-1.32a17.36,17.36,0,0,0,1.77,0,4,4,0,0,0,1.7-.62,4.47,4.47,0,0,0,1.85-2.5,7.88,7.88,0,0,0,0-4.85A4.36,4.36,0,0,0,7,30.45,4.61,4.61,0,0,0,5,29.94c-.38,0-.77,0-1.16,0Z"/><path class="cls-1" d="M23.83,33.74c.1-.18.18-.31.26-.43l1-1.73a.38.38,0,0,1,.39-.22c.31,0,.63,0,.93,0,.08.29.09,10.58,0,11H23.28V41.17a1.9,1.9,0,0,0-.23.2,3.62,3.62,0,0,1-2.66,1.25A5.23,5.23,0,0,1,18,42.23a4.84,4.84,0,0,1-2.68-2.7,6.78,6.78,0,0,1,0-5.32,5,5,0,0,1,5.4-3.07,3.78,3.78,0,0,1,3,2.18c0,.06.05.13.08.19ZM18,37.07c0,.3.06.81.14,1.31a4.18,4.18,0,0,0,.69,1.82,2.1,2.1,0,0,0,3.39.07,4.43,4.43,0,0,0,.7-1.41,7.62,7.62,0,0,0,.17-3.55,5.13,5.13,0,0,0-.52-1.53,2.23,2.23,0,0,0-3.9,0,4.49,4.49,0,0,0-.34.78A8.44,8.44,0,0,0,18,37.07Z"/><path class="cls-1" d="M53.41.91l-.24.27c-1.1,1.11-2.21,2.21-3.3,3.33a.6.6,0,0,1-.56.18c-1.38-.19-2.75-.39-4.12-.53A37.1,37.1,0,0,0,40.72,4a36.57,36.57,0,0,0-6.26.69A28.61,28.61,0,0,0,26,7.81a.46.46,0,0,1-.25.08l.21-.22A27.78,27.78,0,0,1,37.48,1.1,29.75,29.75,0,0,1,46.53,0a38.07,38.07,0,0,1,6.56.81Z"/><path class="cls-1" d="M33.38,31.35h3.31v1.28H33.36v9.76H30.12V32.65h-2c-.05-.44,0-.84,0-1.26a4.87,4.87,0,0,1,1,0c.33,0,.65,0,1,0,0-.48.06-.92.11-1.36a6.21,6.21,0,0,1,.38-1.64,3.81,3.81,0,0,1,2.75-2.5,8.21,8.21,0,0,1,4.45.06,5,5,0,0,1,1.74.92l-1.8,3c-.08-.37-.12-.65-.2-.93a2.54,2.54,0,0,0-.67-1.22,2.13,2.13,0,0,0-2.39-.34,1.53,1.53,0,0,0-.71.85,6.22,6.22,0,0,0-.27,1,11.15,11.15,0,0,0-.1,1.15C33.37,30.68,33.38,31,33.38,31.35Z"/><path class="cls-1" d="M46,35.34l-.32-.88a3.52,3.52,0,0,0-1-1.53,1.41,1.41,0,0,0-1.87.08,2.3,2.3,0,0,0-.47.65,6.23,6.23,0,0,0-.42,1.19,8.34,8.34,0,0,0-.22,2.06v5.48H38.38v-11h1.1c.16,0,.19.13.24.23l1,1.94.19.35.15-.24a13.87,13.87,0,0,1,.81-1.28,3.33,3.33,0,0,1,2.57-1.25,5,5,0,0,1,2.37.44,2,2,0,0,1,1,.8Z"/><path class="cls-1" d="M85.86,32.36c-.58,1-1.16,1.94-1.78,3L84,35.08c-.19-.44-.37-.89-.57-1.32a2.34,2.34,0,0,0-.7-.83,1.42,1.42,0,0,0-1.87.08,2.73,2.73,0,0,0-.67,1.07,6.65,6.65,0,0,0-.41,2.21c0,1.17,0,2.34,0,3.52V42c0,.11,0,.23,0,.36H76.54c-.07-.26-.09-10.5,0-11,.36,0,.73,0,1.1,0,.08,0,.18.14.22.23.34.63.66,1.27,1,1.91l.21.37c.07-.14.12-.24.18-.34a10.67,10.67,0,0,1,.67-1.07,3.37,3.37,0,0,1,2.73-1.38,5.06,5.06,0,0,1,2.33.46A1.83,1.83,0,0,1,85.86,32.36Z"/><path class="cls-1" d="M49.14,31.4h3.21v11a26.07,26.07,0,0,1-3.21,0Z"/><path class="cls-1" d="M39.38,20.3l-1.21.21a16.8,16.8,0,0,1-3.68.25c-.31,0-.63-.06-.94-.11a4.81,4.81,0,0,1-3.1-2c-.1-.13-.2-.26-.29-.4a5,5,0,0,0-3.8-2.32,6.11,6.11,0,0,1-2.17-.68L24,15.11s0,0-.05-.09a5.92,5.92,0,0,1,1.17-.18,16.94,16.94,0,0,1,7.73,1.35,25.43,25.43,0,0,1,6.43,3.94l.12.08Z"/><path class="cls-1" d="M73.74,42.39H70.53V31.44a22.78,22.78,0,0,1,3.21,0Z"/><path class="cls-1" d="M52.52,28.69a1.78,1.78,0,0,1-3.55,0,1.78,1.78,0,0,1,3.55,0Z"/><path class="cls-1" d="M72.14,26.94a1.77,1.77,0,1,1-1.77,1.76A1.75,1.75,0,0,1,72.14,26.94Z"/><path class="cls-1" d="M27.66,9.41l5.1-.92,0,.06a3.65,3.65,0,0,1-.34.18,4.67,4.67,0,0,0-1.27.86,2.49,2.49,0,0,1-3.41,0A.82.82,0,0,1,27.66,9.41Z"/></svg>