<svg id="Layer_1" data-name="Layer 1" xmlns="http://www.w3.org/2000/svg" viewBox="0 0 148.45 44.6"><title>logo</title><path d="M59.78,31V12.56h4c2,0,3.4.45,4.22,1.35a6.24,6.24,0,0,1,1.23,4.27V25A7,7,0,0,1,68,29.48,4.92,4.92,0,0,1,64,31Zm2.57-1.85H63.8a4.52,4.52,0,0,0,1-.11,3.38,3.38,0,0,0,.75-.28,1.34,1.34,0,0,0,.51-.52,3.44,3.44,0,0,0,.31-.65,3.67,3.67,0,0,0,.16-.89c0-.39.06-.73.07-1s0-.68,0-1.2v-6c0-.45,0-.82,0-1.12s-.05-.61-.09-.92a2.9,2.9,0,0,0-.2-.74,2.32,2.32,0,0,0-.35-.55,1.37,1.37,0,0,0-.52-.4,4,4,0,0,0-.73-.22,5.75,5.75,0,0,0-1-.07H62.35Z"/><path d="M73.92,31.17A2.36,2.36,0,0,1,72,30.24a3.31,3.31,0,0,1-.76-2.13,4.54,4.54,0,0,1,.31-1.69,5.36,5.36,0,0,1,.65-1.23,4,4,0,0,1,1.19-1,14.38,14.38,0,0,1,1.32-.72l1.63-.69.1,0v-.95A4.39,4.39,0,0,0,76.21,20a1.06,1.06,0,0,0-1.06-.54q-1.38,0-1.38,1.86V22l-2.41-.09c0-.13,0-.3,0-.49a4.06,4.06,0,0,1,1.1-2.87,4.08,4.08,0,0,1,2.84-.9,3.34,3.34,0,0,1,2.74,1,4.93,4.93,0,0,1,.85,3.13v6A23.67,23.67,0,0,0,79.13,31H76.91A18.49,18.49,0,0,1,76.58,29a3.28,3.28,0,0,1-1,1.51A2.39,2.39,0,0,1,73.92,31.17Zm1-2.11a1.49,1.49,0,0,0,.92-.37,3.34,3.34,0,0,0,.67-.72V24.24a14.82,14.82,0,0,0-1.69,1.07,2.58,2.58,0,0,0-1.06,2.06,2.21,2.21,0,0,0,.3,1.24A1,1,0,0,0,74.88,29.06Z"/><path d="M82,31V19.63H80.44V17.82H82v-.68c0-.53,0-1,0-1.35a5,5,0,0,1,.24-1.08,1.94,1.94,0,0,1,1.3-1.33,3.84,3.84,0,0,1,1.25-.18,13.57,13.57,0,0,1,1.58.12v1.82l-.9-.11a.89.89,0,0,0-.88.42,2.78,2.78,0,0,0-.22,1.27v1.1h2v1.81h-2V31Z"/><path d="M87.84,31V17.82h2.43V19.7a4.58,4.58,0,0,1,1.4-1.59,2.77,2.77,0,0,1,1.51-.45,2.42,2.42,0,0,1,.4,0v2.69a3.74,3.74,0,0,0-1.33-.26,2.07,2.07,0,0,0-1.07.27,3,3,0,0,0-.91,1V31Z"/><path d="M95.25,15.88V13.32h2.44v2.56Zm0,15.1V17.82h2.43V31Z"/><path d="M100.5,31V12.56h7.14v1.9h-4.57v6.08h3.71v1.84h-3.71v6.75h4.62V31Z"/><path d="M112.11,31.17a3.47,3.47,0,0,1-2.59-1,4.28,4.28,0,0,1-1.13-2.69l2-.61a4.19,4.19,0,0,0,.56,1.89,1.4,1.4,0,0,0,1.22.62,1.42,1.42,0,0,0,1.06-.43,1.39,1.39,0,0,0,.38-1.08A2.66,2.66,0,0,0,112.58,26l-2.24-1.92a5.29,5.29,0,0,1-1.22-1.42,3.37,3.37,0,0,1-.4-1.79,3.25,3.25,0,0,1,.94-2.39,3.47,3.47,0,0,1,2.46-.85,3,3,0,0,1,2.35,1,4.18,4.18,0,0,1,1,2.48l-1.64.61a4.39,4.39,0,0,0-.51-1.69,1.34,1.34,0,0,0-2.06-.2,1.36,1.36,0,0,0-.36,1,1.72,1.72,0,0,0,.66,1.33l2.33,2.13a6.77,6.77,0,0,1,1.37,1.59,3.77,3.77,0,0,1,.5,2,3.18,3.18,0,0,1-1,2.51A3.94,3.94,0,0,1,112.11,31.17Z"/><path d="M121.06,31.17a2.69,2.69,0,0,1-2.16-.79,3.67,3.67,0,0,1-.68-2.36V19.44h-1.38V17.82h1.38V14h2.43v3.83h2.11v1.62h-2.11v8.42A1.86,1.86,0,0,0,120.9,29a1.16,1.16,0,0,0,.95.32,5.8,5.8,0,0,0,.9-.06V31A14.51,14.51,0,0,1,121.06,31.17Z"/><path d="M126.93,31.17a2.36,2.36,0,0,1-1.89-.93,3.31,3.31,0,0,1-.76-2.13,4.35,4.35,0,0,1,.31-1.69,5.36,5.36,0,0,1,.65-1.23,4,4,0,0,1,1.19-1,14.38,14.38,0,0,1,1.32-.72c.31-.14.85-.37,1.63-.69l.1,0v-.95a4.39,4.39,0,0,0-.26-1.81,1.06,1.06,0,0,0-1.06-.54q-1.38,0-1.38,1.86V22l-2.41-.09c0-.13,0-.3,0-.49a4.06,4.06,0,0,1,1.1-2.87,4.08,4.08,0,0,1,2.84-.9,3.34,3.34,0,0,1,2.74,1,4.93,4.93,0,0,1,.85,3.13v6a23.67,23.67,0,0,0,.22,3.16h-2.22a18.49,18.49,0,0,1-.33-1.95,3.28,3.28,0,0,1-1,1.51A2.39,2.39,0,0,1,126.93,31.17Zm1-2.11a1.49,1.49,0,0,0,.92-.37,3.34,3.34,0,0,0,.67-.72V24.24a14.82,14.82,0,0,0-1.69,1.07,2.58,2.58,0,0,0-1.06,2.06,2.21,2.21,0,0,0,.3,1.24A1,1,0,0,0,127.89,29.06Z"/><path d="M137.56,31.17a2.69,2.69,0,0,1-2.16-.79,3.73,3.73,0,0,1-.69-2.36V19.44h-1.37V17.82h1.37V14h2.44v3.83h2.11v1.62h-2.11v8.42A1.86,1.86,0,0,0,137.4,29a1.16,1.16,0,0,0,.95.32,5.8,5.8,0,0,0,.9-.06V31A14.51,14.51,0,0,1,137.56,31.17Z"/><path d="M144.72,31.17a4.88,4.88,0,0,1-1.93-.33,2.53,2.53,0,0,1-1.19-1,4.59,4.59,0,0,1-.6-1.63,12.19,12.19,0,0,1-.17-2.28v-3a12.59,12.59,0,0,1,.18-2.31,4.68,4.68,0,0,1,.62-1.62,2.54,2.54,0,0,1,1.19-1,4.76,4.76,0,0,1,1.88-.33,5.19,5.19,0,0,1,1.25.14,3.84,3.84,0,0,1,.94.36,2.36,2.36,0,0,1,.67.63,4.53,4.53,0,0,1,.45.84,5.61,5.61,0,0,1,.27,1.06,10.82,10.82,0,0,1,.13,1.25c0,.42,0,.9,0,1.46v1.06h-5.18v2.73c0,.17,0,.41.05.69a2.35,2.35,0,0,0,.13.64,2.76,2.76,0,0,0,.24.44.78.78,0,0,0,.41.33,1.54,1.54,0,0,0,.6.1,1.08,1.08,0,0,0,1.07-.54,3.6,3.6,0,0,0,.29-1.63v-.8h2.38v.51Q148.43,31.17,144.72,31.17Zm-1.46-8h2.79V21.93c0-.34,0-.64,0-.87a5,5,0,0,0-.11-.69,1.45,1.45,0,0,0-.23-.53,1.1,1.1,0,0,0-.39-.3,1.58,1.58,0,0,0-.61-.11,1.11,1.11,0,0,0-1.14.63,6.47,6.47,0,0,0-.28,2.35Z"/><path d="M40.81,27.91V32C24.6,35,10.52,44.6,10.52,44.6L8.55,41a122.4,122.4,0,0,1,24.77-10.9C36.58,29,39.19,28.31,40.81,27.91Zm0-3.76a49.49,49.49,0,0,0-9,2c-1.93.58-3.82,1.27-5.67,2A111.18,111.18,0,0,0,7,38.15L4.77,35.48A94.08,94.08,0,0,1,21.29,26.4c1.74-.74,3.41-1.38,5-1.95,2.52-.9,4.84-1.61,6.89-2.15a71.52,71.52,0,0,1,7.63-1.61v3.46Zm0-10.83a63.68,63.68,0,0,0-7.5,1.23c-2.12.47-4.53,1.1-7.17,1.94C24.61,17,23,17.55,21.3,18.2s-3.29,1.32-5,2.11q-2,.92-4.07,2A95.86,95.86,0,0,0,0,29.87l2.52,2.95A75.41,75.41,0,0,1,16.3,24.29c1.36-.68,2.81-1.35,4.34-2,1.78-.75,3.66-1.48,5.64-2.16q2.64-.88,5.51-1.64a72.76,72.76,0,0,1,9-1.74l.21,0-.21,0Z"/><path d="M40.81,12.6v4.09c-1.62-.4-4.24-1.1-7.5-2.14A122.67,122.67,0,0,1,8.55,3.65l2-3.65S24.6,9.64,40.81,12.6Zm-9,5.9c-1.92-.59-3.82-1.27-5.65-2A111.18,111.18,0,0,1,7,6.45L4.77,9.11A93.59,93.59,0,0,0,21.3,18.2q2.6,1.1,5,1.94c2.52.91,4.85,1.61,6.9,2.16a70.88,70.88,0,0,0,7.63,1.6V20.45A49.69,49.69,0,0,1,31.79,18.5Zm9,9.33a70.65,70.65,0,0,1-9-1.73c-1.91-.49-3.75-1.05-5.52-1.65-2-.67-3.87-1.4-5.65-2.15-1.54-.65-3-1.32-4.35-2A75.51,75.51,0,0,1,2.52,11.78L0,14.72A94.87,94.87,0,0,0,12.22,22.3c1.38.72,2.75,1.38,4.08,2,1.71.79,3.38,1.48,5,2.11s3.31,1.22,4.85,1.71c2.64.84,5.06,1.47,7.18,1.94a63.4,63.4,0,0,0,7.49,1.22V27.91l.23-.05Z"/><path d="M41,16.74l-.21,0v-.07Z"/><path d="M40.81,27.83l.23,0-.23.05Z"/></svg>