<svg id="Layer_1" data-name="Layer 1" xmlns="http://www.w3.org/2000/svg" viewBox="0 0 183.98 20.89"><title>logo</title><path d="M25.11,5.43h4.58A6.63,6.63,0,0,1,34.26,7,5.3,5.3,0,0,1,36,11.11a5.63,5.63,0,0,1-1.84,4.36,6.68,6.68,0,0,1-4.68,1.68H25.11Zm4.58,9.34A3.16,3.16,0,0,0,32,13.88a3.34,3.34,0,0,0,.87-2.46A3.6,3.6,0,0,0,32,8.76a3.37,3.37,0,0,0-2.52-.94H28v7Z"/><path d="M46,8.3v8.85H43.26v-1.1a3.37,3.37,0,0,1-2.82,1.39,3.67,3.67,0,0,1-2.75-1.19,4.2,4.2,0,0,1-1.13-3A4.67,4.67,0,0,1,38,9.7,4.93,4.93,0,0,1,41.6,8.28a7.87,7.87,0,0,1,2.51.46Zm-2.82,6.13V10.85a2.84,2.84,0,0,0-1.51-.43,2.11,2.11,0,0,0-1.54.6,2.42,2.42,0,0,0-.62,1.79A2.57,2.57,0,0,0,40,14.53a1.85,1.85,0,0,0,1.48.64A2,2,0,0,0,43.15,14.43Z"/><path d="M50.77,7a1.71,1.71,0,0,0-.35,1.18V8.6h3v2.17h-3v6.38H47.6V8.28q0-3.87,3.92-3.87a8.47,8.47,0,0,1,2.66.41V7a6.48,6.48,0,0,0-2.25-.42A1.52,1.52,0,0,0,50.77,7Z"/><path d="M60.59,8.44v2.73A3.72,3.72,0,0,0,59.33,11a2.63,2.63,0,0,0-2.46,1.41v4.79H54.05V8.87l2.71-.57v2A4.28,4.28,0,0,1,58,8.83a2.73,2.73,0,0,1,1.55-.51A4.19,4.19,0,0,1,60.59,8.44Z"/><path d="M61.51,7.11A1.43,1.43,0,0,1,61,6a1.46,1.46,0,0,1,.48-1.11,1.58,1.58,0,0,1,1.16-.46,1.62,1.62,0,0,1,1.18.46A1.46,1.46,0,0,1,64.33,6a1.43,1.43,0,0,1-.48,1.11,1.69,1.69,0,0,1-1.18.44A1.64,1.64,0,0,1,61.51,7.11Zm-.23,1.76L64.1,8.3v8.85H61.28Z"/><path d="M64.83,7.82V5.43H75.61V7.82H71.69v9.33H68.76V7.82Z"/><path d="M85.08,15.94a6.41,6.41,0,0,1-4.33,1.57,5.35,5.35,0,0,1-3.64-1.21,4.07,4.07,0,0,1-1.4-3.23,4.57,4.57,0,0,1,1.45-3.44,5,5,0,0,1,3.61-1.39,4.37,4.37,0,0,1,3.06,1.07A3.66,3.66,0,0,1,85,12.11a3.82,3.82,0,0,1-.28,1.52H78.56c.35,1.14,1.28,1.71,2.8,1.71a5.47,5.47,0,0,0,2.76-.81Zm-5.67-5.35a2.11,2.11,0,0,0-.87,1.16h4a1.66,1.66,0,0,0-1.78-1.56A2.39,2.39,0,0,0,79.41,10.59Z"/><path d="M86.81,16.28a4.18,4.18,0,0,1-1.3-3.19A4.59,4.59,0,0,1,87,9.61a5,5,0,0,1,3.53-1.37,6.56,6.56,0,0,1,3,.72v2.42a4.25,4.25,0,0,0-2.62-.89,2.51,2.51,0,0,0-1.78.63,2.18,2.18,0,0,0-.68,1.67A2.31,2.31,0,0,0,89,14.51a2.35,2.35,0,0,0,1.74.63,4.38,4.38,0,0,0,2.41-.78l1,1.56a5.5,5.5,0,0,1-1.84,1.16,5.67,5.67,0,0,1-2.17.43A4.75,4.75,0,0,1,86.81,16.28Z"/><path d="M103.05,9.27A3.78,3.78,0,0,1,104,12v5.15h-2.81V12.88c0-1.48-.51-2.21-1.53-2.21a2.45,2.45,0,0,0-2,1.05v5.43H94.86v-12l2.81-.57v5a4,4,0,0,1,3-1.3A3,3,0,0,1,103.05,9.27Z"/><path d="M113.62,9.27a3.83,3.83,0,0,1,.91,2.73v5.15h-2.82V12.88c0-1.48-.51-2.21-1.53-2.21a2.53,2.53,0,0,0-1.93,1v5.47h-2.81V8.87l2.71-.57V9.72a3.76,3.76,0,0,1,1.41-1,4.28,4.28,0,0,1,1.72-.36A3.08,3.08,0,0,1,113.62,9.27Z"/><path d="M116.81,16.23A4.17,4.17,0,0,1,115.4,13a4.44,4.44,0,0,1,1.46-3.41,5.51,5.51,0,0,1,7.19-.07,4.17,4.17,0,0,1,1.41,3.21,4.44,4.44,0,0,1-1.46,3.4,5.56,5.56,0,0,1-7.19.08ZM122,14.76a2.69,2.69,0,0,0,.55-1.76,2.9,2.9,0,0,0-.6-1.94,2,2,0,0,0-1.63-.71,1.84,1.84,0,0,0-1.51.65,2.63,2.63,0,0,0-.56,1.77,2.87,2.87,0,0,0,.6,1.92,2,2,0,0,0,1.63.72A1.91,1.91,0,0,0,122,14.76Z"/><path d="M126.46,5.14l2.81-.57V17.15h-2.81Z"/><path d="M131.69,16.23A4.15,4.15,0,0,1,130.27,13a4.48,4.48,0,0,1,1.46-3.41,5.15,5.15,0,0,1,3.65-1.37,5.05,5.05,0,0,1,3.54,1.3,4.18,4.18,0,0,1,1.42,3.21,4.47,4.47,0,0,1-1.46,3.4,5.17,5.17,0,0,1-3.66,1.36A5.07,5.07,0,0,1,131.69,16.23Zm5.21-1.47a2.63,2.63,0,0,0,.55-1.76,2.9,2.9,0,0,0-.6-1.94,2,2,0,0,0-1.63-.71,1.86,1.86,0,0,0-1.51.65,2.62,2.62,0,0,0-.55,1.77,2.92,2.92,0,0,0,.59,1.92,2,2,0,0,0,1.63.72A1.89,1.89,0,0,0,136.9,14.76Z"/><path d="M151.76,11l-2.09-.14a2.74,2.74,0,0,1,.5,1.6,3.19,3.19,0,0,1-1.3,2.58,5,5,0,0,1-3.3,1.06l-.43,0-1.38,2.21a7.17,7.17,0,0,1,4.08-1.34q3.27,0,3.54,3.62l-2.94.35a1.78,1.78,0,0,0-.58-1.26,2,2,0,0,0-1.22-.34,7.84,7.84,0,0,0-4.11,1.27l-1.71-1.09,1.76-4.19a3.36,3.36,0,0,1-1.78-3,3.6,3.6,0,0,1,1.34-2.8,5,5,0,0,1,3.36-1.15,5.57,5.57,0,0,1,1.78.28h4.48Zm-4.85,2.63a1.69,1.69,0,0,0,.55-1.33,1.8,1.8,0,0,0-.59-1.41,2,2,0,0,0-1.42-.53,2,2,0,0,0-1.38.5,1.67,1.67,0,0,0-.56,1.33,1.77,1.77,0,0,0,.6,1.39,2.12,2.12,0,0,0,1.45.54A2,2,0,0,0,146.91,13.6Z"/><path d="M152.53,7.11A1.43,1.43,0,0,1,152.05,6a1.46,1.46,0,0,1,.48-1.11,1.58,1.58,0,0,1,1.16-.46,1.62,1.62,0,0,1,1.18.46A1.46,1.46,0,0,1,155.35,6a1.43,1.43,0,0,1-.48,1.11,1.69,1.69,0,0,1-1.18.44A1.64,1.64,0,0,1,152.53,7.11Zm-.23,1.76,2.82-.57v8.85H152.3Z"/><path d="M165.51,15.94a6.45,6.45,0,0,1-4.33,1.57,5.38,5.38,0,0,1-3.65-1.21,4.07,4.07,0,0,1-1.4-3.23,4.54,4.54,0,0,1,1.46-3.44,5,5,0,0,1,3.6-1.39,4.37,4.37,0,0,1,3.06,1.07,3.63,3.63,0,0,1,1.17,2.8,3.82,3.82,0,0,1-.29,1.52H159c.35,1.14,1.28,1.71,2.8,1.71a5.41,5.41,0,0,0,2.76-.81Zm-5.68-5.35a2.05,2.05,0,0,0-.86,1.16h4a1.87,1.87,0,0,0-.55-1.14,1.77,1.77,0,0,0-1.23-.42A2.4,2.4,0,0,0,159.83,10.59Z"/><path d="M167.9,17.16a8.24,8.24,0,0,1-2.08-.86l.73-1.68a8.07,8.07,0,0,0,3.8.91c1.07,0,1.6-.24,1.6-.73a.44.44,0,0,0-.32-.44,6.76,6.76,0,0,0-1.17-.22l-.49-.05a13.39,13.39,0,0,1-1.55-.3,5.71,5.71,0,0,1-1.2-.49,2,2,0,0,1-.84-.8,2.31,2.31,0,0,1-.29-1.17,2.67,2.67,0,0,1,1.12-2.27,5.2,5.2,0,0,1,3.09-.82,9,9,0,0,1,3.58.72v2.12a5.5,5.5,0,0,0-1.64-.65,8.06,8.06,0,0,0-1.91-.24c-1.1,0-1.66.25-1.66.75a.46.46,0,0,0,.37.45,10.23,10.23,0,0,0,1.4.26l1.17.19a8.28,8.28,0,0,1,1.08.3,2.92,2.92,0,0,1,1,.49,2.37,2.37,0,0,1,.62.76,2.33,2.33,0,0,1,.26,1.11,2.61,2.61,0,0,1-1.1,2.2,5,5,0,0,1-3,.81A9.29,9.29,0,0,1,167.9,17.16Z"/><path d="M0,1.62,2,3.57q6,6.06,12.11,12.1a.37.37,0,0,1,.06.56,6.86,6.86,0,0,1-2.38,2.35.35.35,0,0,1-.5-.06L.15,7.39A.49.49,0,0,1,0,7.08C0,5.31,0,3.55,0,1.79A1.5,1.5,0,0,1,0,1.62Z"/><path d="M15.11,13.81,2.89,1.59s0,0,0,0c1.87,0,3.73,0,5.59.07a6.61,6.61,0,0,1,5.18,2.69,8.54,8.54,0,0,1,1.57,4.1c.09.75.09,1.5.12,2.25A12.94,12.94,0,0,1,15.11,13.81Z"/><path d="M0,10.09l9.33,9.39c-.75.06-1.5.18-2.24.19-2.28,0-4.56,0-6.83,0-.3,0-.26-.18-.26-.36Q0,16,0,12.61c0-.72,0-1.44,0-2.16Z"/><path d="M180.77,3.55h-.45V4.3h-.56V2.05h1.09a1,1,0,0,1,.66.2.66.66,0,0,1,.24.54.69.69,0,0,1-.12.39.72.72,0,0,1-.31.26l.52.86h-.65Zm-.45-.44h.48a.36.36,0,0,0,.26-.09.25.25,0,0,0,.1-.22.26.26,0,0,0-.1-.22.35.35,0,0,0-.26-.08h-.48Z"/><path d="M180.8,6.36A3.18,3.18,0,1,1,184,3.18,3.19,3.19,0,0,1,180.8,6.36Zm0-5.91a2.73,2.73,0,1,0,2.72,2.73A2.73,2.73,0,0,0,180.8.45Z"/></svg>