<svg id="Layer_1" data-name="Layer 1" xmlns="http://www.w3.org/2000/svg" viewBox="0 0 123.01 33.26"><title>logo</title><g id="jVQie1"><path d="M43.34,0c.82,1.28,1.6,2.57,2.45,3.83,1.81,2.69,3.65,5.36,5.49,8,.17.25.38.48.68.87.71-1,1.34-1.83,1.94-2.7.83-1.21,1.63-2.43,2.46-3.63.15-.21.41-.48.62-.48,1.46,0,2.92,0,4.38,0,0,0,.09.08.25.21-.64,1-1.29,2-2,3-1.51,2.2-3,4.43-4.55,6.59a1.3,1.3,0,0,0,0,1.77Q58,21.6,60.82,25.8a1.48,1.48,0,0,1,.25,1.09c-.06.2-.62.34-1,.35-3.43.08-3.42.07-5.36-2.83C53.89,23.12,53,21.86,52,20.46a9.27,9.27,0,0,0-.75.86c-2.55,3.69-5.1,7.37-7.61,11.09a1.7,1.7,0,0,1-1.65.85c-1.26,0-2.53,0-4,0,.67-1,1.21-1.9,1.79-2.75,3.05-4.42,6.09-8.85,9.17-13.25a1.08,1.08,0,0,0-.11-1.45Q43.42,7.91,38,0Z"/><path d="M0,9.17a50.28,50.28,0,0,1,6.84.11c3.31.46,5.19,3.45,4.88,7.19a6.12,6.12,0,0,1-6.11,5.77c-1.87.05-3.74.07-5.61.1ZM2.52,19.85c1.12,0,2.17.06,3.2,0,2-.15,3.33-1.56,3.57-3.78.21-2-.89-4-2.62-4.36a29.38,29.38,0,0,0-4.15-.36Z"/><path d="M110.55,12.11l1.57,1.15a2.64,2.64,0,0,1-.31.51,1.19,1.19,0,0,0-.16,1.65,4.23,4.23,0,0,1-1.21,5.37c0,.06,0,.15,0,.17A3.41,3.41,0,0,1,111.94,25a4,4,0,0,1-3.5,2.95c-2.78.53-5.33-1.05-5.65-3.49a4.48,4.48,0,0,1,0-.52h2.1c.78,1.69,1.79,2.25,3.36,1.83a1.92,1.92,0,0,0,1.54-1.92,1.86,1.86,0,0,0-1.64-1.72c-.49-.09-1-.1-1.51-.17a4.21,4.21,0,0,1-3.88-4.31,4.45,4.45,0,0,1,3.64-4.87,5.46,5.46,0,0,1,2.35.07c.73.23,1.12.13,1.47-.49C110.27,12.28,110.4,12.23,110.55,12.11Zm-.73,5.29a2.41,2.41,0,0,0-2.4-2.63,2.47,2.47,0,0,0-2.4,2.66,2.4,2.4,0,0,0,2.43,2.51A2.35,2.35,0,0,0,109.82,17.4Z"/><path d="M20.86,22.18l-.15-1.07a4.2,4.2,0,0,1-3.62,1.4,4.32,4.32,0,0,1-3.36-1.89,5.55,5.55,0,0,1,.6-6.62c1.66-1.59,4.14-1.63,6.31-.05l.23-.93h2.06v9.16Zm-.22-4.63a2.7,2.7,0,1,0-5.4,0,2.7,2.7,0,1,0,5.4,0Z"/><path d="M87.87,14,88,13h2.08v9.16h-2l-.2-1.05a4.24,4.24,0,0,1-3.94,1.33A4.31,4.31,0,0,1,81.15,21a5.62,5.62,0,0,1,.19-6.81C83,12.4,85.6,12.31,87.87,14Zm0,3.64a2.72,2.72,0,1,0-5.43,0,2.72,2.72,0,1,0,5.43,0Z"/><path d="M78.65,22.19H76.37V18.58c0-.44,0-.89,0-1.33-.07-1.41-.79-2.22-2-2.24A2.23,2.23,0,0,0,72,17.21c-.07,1.3,0,2.61,0,3.91v1h-2.3v-13h2.26v4.64a13.71,13.71,0,0,1,2.63-.91,3.39,3.39,0,0,1,4,3,7.22,7.22,0,0,1,.14,1C78.66,18.63,78.65,20.35,78.65,22.19Z"/><path d="M123,18.42h-7.32c.25,2,2.65,2.57,5.19,1.17l1.2,1.48c-1.28,1.42-4.06,1.88-6.2,1-1.88-.82-2.86-2.7-2.65-5.13a4.51,4.51,0,0,1,3.41-4c2.45-.63,4.81.17,5.65,2.12A17.21,17.21,0,0,1,123,18.42Zm-2.49-1.94A2.11,2.11,0,0,0,118,14.75c-1.26.06-2.08.7-2.18,1.73Z"/><path d="M101.15,22.19H98.92c0-1.67,0-3.31,0-4.94a2.2,2.2,0,0,0-3.44-1.94,2.46,2.46,0,0,0-1.13,2.18c0,1.55,0,3.1,0,4.71H92.11V13h2l.21,1a11.81,11.81,0,0,1,2.17-1,3.69,3.69,0,0,1,4.67,3.39A54,54,0,0,1,101.15,22.19Z"/><path d="M25.67,15.18,24,15.07V13.19l1.64-.11c0-1.68.32-3.24,2.07-3.93a3.88,3.88,0,0,1,3.88.46l-.76,1.59c-2.28-.65-3-.19-2.77,1.93h2.58v1.95H28v7.09H25.67Z"/><path d="M67.13,19.62l1.39,1.32c-1.34,1.94-4.78,2.13-6.88.42-1.89-1.54-2-5.29-.27-7.19s5.6-2,7,0c-.29.3-.6.6-.88.94a.71.71,0,0,1-1,.2A2.56,2.56,0,0,0,63,16a2.91,2.91,0,0,0,.17,3.53,2.88,2.88,0,0,0,3.58.36Z"/><path d="M34.63,22.2H32.38V13.14c1.42-.38,2-.24,2.35.63a3.54,3.54,0,0,1,4-.71c.72.26.95.65.46,1.34a7.29,7.29,0,0,0-.54,1,10.17,10.17,0,0,0-1.81-.34,2,2,0,0,0-2.24,2.25C34.61,18.92,34.63,20.5,34.63,22.2Z"/><path d="M40.54,22.18V13h2.17v9.18Z"/><path d="M43,10.33a1.25,1.25,0,0,1-1.28,1.35,1.28,1.28,0,0,1-1.4-1.24A1.36,1.36,0,0,1,41.63,9,1.3,1.3,0,0,1,43,10.33Z"/></g></svg>