<?xml version="1.0" encoding="utf-8"?>
<!-- Generator: Adobe Illustrator 22.1.0, SVG Export Plug-In . SVG Version: 6.00 Build 0)  -->
<svg version="1.1" xmlns="http://www.w3.org/2000/svg" xmlns:xlink="http://www.w3.org/1999/xlink" x="0px" y="0px"
	 viewBox="0 0 117.9 35.9" style="enable-background:new 0 0 117.9 35.9;" xml:space="preserve">
<style type="text/css">
	.st0{clip-path:url(#SVGID_2_);}
	.st1{fill:#FFFFFF;}
	.st2{fill:#0A0A0A;}
</style>
<g id="Layer_1">
	<g>
		<g>
			<g>
				<path d="M0,16.5c0-0.2,0-0.5,0-0.7c0-3.1,0-6.4,0-9.5c0-2.9,2.1-5.4,4.9-5.9c1.8-0.3,3.2,0.2,4.6,1c0.5,0.3,1.1,0.9,1.4,1.2
					c3.2,3.1,6.3,6.1,9.5,9.2c0.9,0.9,1.9,1.7,3,2.8c0-0.5,0-0.9,0-1.2c0-2.4,0-4.9,0-7.1s1-4.2,2.9-5.4c3.6-2.3,8.7,0.2,9.2,4.3
					c0.2,0.9,0.2,1.9,0.2,2.8c0,2.6,0,5.2,0,7.8c0,4.7-0.2,9.4-0.2,14c0,3.6-4.3,7.1-8.5,5.2c-1-0.5-1.9-1.2-2.8-2.1
					c-2.8-2.6-5.5-5.4-8.3-8c-3.5-3.3-7.1-6.8-10.6-10.1c-0.2-0.2-0.3-0.3-0.5-0.5C2.9,13,1,13.7,0.3,16.1c0.3,0,0.3,0.2,0,0.3
					C0.4,16.5,0.2,16.5,0,16.5z"/>
				<path d="M87,16.1c0.7,0.3,1.2,0.5,1.6,0.9c2.3,1.4,3.1,3.6,2.6,6.4c-0.3,2.4-1.7,4.2-3.8,5.4c-1.7,1-3.6,1.6-5.7,1.7
					c-3.6,0.2-7.3,0.2-10.9,0.2c-1,0-1-0.2-0.9-1.2c1.2-6.4,2.3-12.8,3.5-19.4c0.3-1.9,0.7-4,1-5.9c0.2-1.2,0.3-1.2,1.4-1.2
					c2.8,0,5.5,0,8.3,0c1.2,0,2.3,0.2,3.3,0.5c4.7,1.2,6.2,6.8,2.9,10.2c-0.7,0.7-1.6,1.4-2.6,1.7C87.7,15.7,87.4,15.9,87,16.1z
					 M75.4,26c0.2,0.2,0.3,0.2,0.3,0.2c2.1,0,4.2-0.2,6.2-0.2c0.9,0,1.7-0.5,2.6-1c1.2-0.9,1.9-2.6,1.6-4.2
					c-0.3-1.2-1.4-2.1-2.9-2.4c-0.2,0-0.3,0-0.5,0c-1.7,0-3.5,0-5.2,0c-0.7,0-0.9,0.2-1,0.9c-0.3,1.6-0.5,2.9-0.9,4.5
					C75.8,24.5,75.6,25.2,75.4,26z M77.7,14.3c0.4,0,0.5,0.2,0.7,0.2c1.3,0,2.5,0,3.8,0c0.9,0.1,1.8-0.1,2.6-0.3
					c1.7-0.7,2.8-2.3,2.6-4c-0.2-0.9-0.5-1.7-1.4-2.1c-0.7-0.2-1.4-0.5-2.1-0.5c-1.4-0.2-2.6,0-4,0c-0.9,0-1,0-1,0.9
					c-0.3,1.7-0.7,3.5-0.9,5.2C77.7,13.7,77.7,14,77.7,14.3z"/>
				<path d="M46.6,30.7c-1.6,0-3.3,0-4.9,0c-1-0.2-1-0.2-0.9-1.2c0.7-3.8,1.4-7.9,2.1-11.7c0.9-4.5,1.6-9.1,2.4-13.6
					c0.2-1.2,0.3-1.2,1.6-1.2c2.8,0,5.6,0,8.4,0c1.9,0,3.8,0.3,5.8,1c4.4,1.7,6.6,5.1,7,9.8c0.2,4.4-1,8.4-4,11.5
					c-1.4,1.6-3.3,2.8-5.2,3.7c-2.4,1-5.2,1.6-7.9,1.6C49.4,30.7,48,30.7,46.6,30.7L46.6,30.7z M46.5,25.9c0.2,0,0.3,0.2,0.5,0.2
					c2.1,0,4.3,0,6.4-0.2c6.2-0.9,9.9-6.1,9-12.3c-0.2-1.6-0.9-2.9-2.3-4.2c-1.7-1.5-3.7-2-5.8-2.1c-0.7,0-1.4,0-2,0
					c-2.6,0.1-2.5-0.3-2.7,1.2c-0.9,5.4-1.9,10.6-2.8,15.9C46.7,24.9,46.5,25.4,46.5,25.9z"/>
				<path d="M117.9,30.5c-0.3,0.2-0.3,0.2-0.5,0.2c-1.4,0-2.4,0-3.9,0c-0.6,0-0.9-0.4-0.9-0.9c-0.2-1.5-0.6-3.1-0.9-4.6
					c-0.2-0.9-0.2-0.9-1.1-0.9c-3.5,0-6.2,0-9.6,0c-0.7,0-1.1,0.2-1.4,0.9c-0.9,1.6-2,3.1-2.9,4.7c-0.4,0.7-0.9,0.9-1.6,0.9
					c-1.3,0-2.3,0-3.5,0c-0.3,0-0.5,0-1-0.2c0.2-0.3,0.3-0.7,0.5-1c1.6-2.4,3.3-5,4.9-7.5c4-6.1,8-12.2,11.8-18.2
					c0.3-0.5,0.9-0.9,1.6-0.9c0.7,0,1.5,0,2.2,0c1,0,1,0.2,1.2,1.2c0.5,2.8,1,5.6,1.7,8.4c1,5.6,2.3,11.2,3.3,16.8
					C117.7,29.8,117.7,30.2,117.9,30.5z M110.6,19.6c0.2-0.9-1.2-9.4-1.6-10.2c-0.5,0.5-6.1,9.4-6.2,10.2
					C103.7,19.8,109.7,19.8,110.6,19.6z"/>
			</g>
			<g>
				<path d="M43.3,32.1h1.3c0.2,0,0.4,0,0.6,0.1s0.4,0.2,0.5,0.3c0.1,0.1,0.2,0.3,0.3,0.5c0.1,0.2,0.1,0.4,0.1,0.7
					c0,0.2,0,0.5-0.1,0.7c-0.1,0.2-0.2,0.4-0.3,0.5c-0.1,0.1-0.3,0.2-0.5,0.3c-0.2,0.1-0.4,0.1-0.6,0.1h-1.3V32.1z M44.6,34.9
					c0.3,0,0.6-0.1,0.8-0.3c0.2-0.2,0.3-0.5,0.3-0.9c0-0.4-0.1-0.7-0.3-0.9s-0.4-0.3-0.8-0.3h-0.8v2.3H44.6z"/>
				<path d="M47.6,32.1h0.5v3.2h-0.5V32.1z"/>
				<path d="M49.6,33c0.1-0.2,0.2-0.4,0.3-0.5c0.1-0.1,0.3-0.2,0.5-0.3c0.2-0.1,0.4-0.1,0.6-0.1c0.4,0,0.7,0.1,1,0.3
					c0.3,0.2,0.4,0.5,0.5,0.8L52,33.3c0-0.2-0.1-0.4-0.3-0.5c-0.2-0.1-0.4-0.2-0.6-0.2c-0.3,0-0.6,0.1-0.8,0.3
					C50.1,33,50,33.3,50,33.7c0,0.4,0.1,0.7,0.3,0.9s0.4,0.3,0.8,0.3c0.3,0,0.5-0.1,0.6-0.2s0.3-0.3,0.3-0.6h-0.9v-0.4h1.5v0.2
					c0,0.5-0.1,0.8-0.4,1.1c-0.3,0.3-0.6,0.4-1.1,0.4c-0.2,0-0.4,0-0.6-0.1S50.1,35,50,34.9c-0.1-0.1-0.3-0.3-0.3-0.5
					c-0.1-0.2-0.1-0.4-0.1-0.7C49.5,33.5,49.5,33.2,49.6,33z"/>
				<path d="M54,32.1h0.5v3.2H54V32.1z"/>
				<path d="M55.8,32.1h2.8v0.4h-1.1v2.7h-0.5v-2.7h-1.1V32.1z"/>
				<path d="M60.3,32.1h0.4l1.3,3.2h-0.6l-0.3-0.7h-1.4l-0.3,0.7h-0.6L60.3,32.1z M61,34.1l-0.5-1.2L60,34.1H61z"/>
				<path d="M63.3,32.1h0.5v2.7h1.5v0.5h-2V32.1z"/>
				<path d="M68.5,32.1h1.2c0.2,0,0.4,0,0.5,0.1s0.3,0.2,0.3,0.3c0.1,0.1,0.1,0.3,0.1,0.5c0,0.2,0,0.3-0.1,0.4
					c-0.1,0.1-0.2,0.2-0.3,0.2c0.1,0,0.3,0.1,0.4,0.3c0.1,0.1,0.1,0.3,0.1,0.5c0,0.2,0,0.4-0.1,0.5s-0.2,0.2-0.4,0.3
					c-0.1,0.1-0.3,0.1-0.5,0.1h-1.4V32.1z M69.8,33.5c0.1,0,0.2,0,0.3-0.1c0.1-0.1,0.1-0.2,0.1-0.3c0-0.1,0-0.3-0.1-0.3
					c-0.1-0.1-0.2-0.1-0.4-0.1H69v0.9H69.8z M69.8,34.8c0.2,0,0.3,0,0.4-0.1s0.1-0.2,0.1-0.4c0-0.2,0-0.3-0.1-0.4
					c-0.1-0.1-0.2-0.1-0.4-0.1H69v1H69.8z"/>
				<path d="M73.3,32.1h0.4l1.3,3.2h-0.6l-0.3-0.7h-1.4l-0.3,0.7h-0.6L73.3,32.1z M74,34.1l-0.5-1.2L73,34.1H74z"/>
				<path d="M76.3,32.1h0.4l1.6,2.2v-2.2h0.5v3.2h-0.4l-1.6-2.2v2.2h-0.5V32.1z"/>
				<path d="M80.4,32.1h0.5v1.4l1.2-1.4h0.7l-1.2,1.3l1.3,1.8h-0.6l-1-1.4l-0.4,0.4v1h-0.5V32.1z"/>
				<path d="M86,33c0.1-0.2,0.2-0.4,0.3-0.5c0.1-0.1,0.3-0.2,0.5-0.3c0.2-0.1,0.4-0.1,0.6-0.1s0.4,0,0.6,0.1s0.4,0.2,0.5,0.3
					c0.1,0.1,0.3,0.3,0.3,0.5c0.1,0.2,0.1,0.4,0.1,0.7s0,0.5-0.1,0.7c-0.1,0.2-0.2,0.4-0.3,0.5c-0.1,0.1-0.3,0.2-0.5,0.3
					s-0.4,0.1-0.6,0.1s-0.4,0-0.6-0.1c-0.2-0.1-0.4-0.2-0.5-0.3c-0.1-0.1-0.3-0.3-0.3-0.5s-0.1-0.4-0.1-0.7S86,33.2,86,33z
					 M86.7,34.6c0.2,0.2,0.5,0.3,0.8,0.3c0.2,0,0.3,0,0.4-0.1s0.3-0.1,0.3-0.2c0.1-0.1,0.2-0.2,0.2-0.4c0.1-0.1,0.1-0.3,0.1-0.5
					c0-0.4-0.1-0.7-0.3-0.9s-0.5-0.3-0.8-0.3c-0.2,0-0.3,0-0.4,0.1s-0.3,0.1-0.4,0.2c-0.1,0.1-0.2,0.2-0.2,0.4
					c-0.1,0.1-0.1,0.3-0.1,0.5C86.4,34.1,86.5,34.4,86.7,34.6z"/>
				<path d="M90.6,32.1h2v0.4h-1.5v0.9h1.2v0.4h-1.2v1.4h-0.5V32.1z"/>
				<path d="M96.8,32.1h0.4l1.3,3.2H98l-0.3-0.7h-1.4L96,35.3h-0.6L96.8,32.1z M97.6,34.1L97,32.9l-0.5,1.2H97.6z"/>
				<path d="M99.9,32.1h2v0.4h-1.5v0.9h1.2v0.4h-1.2v1.4h-0.5V32.1z"/>
				<path d="M103.2,32.1h1.3c0.3,0,0.5,0.1,0.7,0.3s0.3,0.4,0.3,0.7c0,0.2,0,0.4-0.1,0.6c-0.1,0.2-0.2,0.3-0.4,0.3l0.7,1.3h-0.6
					l-0.7-1.2h-0.7v1.2h-0.5V32.1z M104.4,33.6c0.2,0,0.3,0,0.4-0.1c0.1-0.1,0.2-0.2,0.2-0.4c0-0.2-0.1-0.3-0.2-0.4
					c-0.1-0.1-0.2-0.1-0.4-0.1h-0.7v1.1H104.4z"/>
				<path d="M107,32.1h0.5v3.2H107V32.1z"/>
				<path d="M109.2,32.8c0.1-0.2,0.3-0.4,0.6-0.6c0.2-0.1,0.5-0.2,0.8-0.2c0.4,0,0.7,0.1,1,0.3c0.3,0.2,0.4,0.5,0.5,0.9l-0.5,0
					c0-0.2-0.1-0.4-0.3-0.6s-0.4-0.2-0.6-0.2c-0.3,0-0.6,0.1-0.8,0.3s-0.3,0.5-0.3,0.9c0,0.2,0,0.4,0.1,0.5c0.1,0.2,0.1,0.3,0.2,0.4
					c0.1,0.1,0.2,0.2,0.3,0.2s0.3,0.1,0.4,0.1c0.3,0,0.5-0.1,0.6-0.2c0.2-0.1,0.3-0.3,0.3-0.6l0.5,0c-0.1,0.4-0.2,0.6-0.5,0.8
					c-0.3,0.2-0.6,0.3-1,0.3c-0.3,0-0.6-0.1-0.8-0.2c-0.2-0.1-0.4-0.3-0.6-0.6c-0.1-0.2-0.2-0.5-0.2-0.9
					C109,33.4,109,33.1,109.2,32.8z"/>
				<path d="M114.3,32.1h0.4l1.3,3.2h-0.6l-0.3-0.7h-1.4l-0.3,0.7H113L114.3,32.1z M115,34.1l-0.5-1.2l-0.5,1.2H115z"/>
			</g>
		</g>
	</g>
</g>
<g id="Layer_2">
</g>
</svg>
