<svg xmlns="http://www.w3.org/2000/svg" width="55" height="54" viewBox="0 0 55 54"><g transform="translate(-1766 -391)"><ellipse cx="20.5" cy="21" rx="20.5" ry="21" transform="translate(1773 397)" fill="#fff"/><g transform="translate(1788.68 409.691)"><path d="M13.428,10.428h3.214v3.214H13.428v7.5H10.214v-7.5H7V10.428h3.214V9.083a6.073,6.073,0,0,1,1.2-3.762A3.856,3.856,0,0,1,14.4,4h2.245V7.214h-2.25a.963.963,0,0,0-.964.963Z" transform="translate(-7 -4)"/></g><g transform="translate(1766 391)" fill="none" stroke="#fff" stroke-width="2"><ellipse cx="27.5" cy="27" rx="27.5" ry="27" stroke="none"/><ellipse cx="27.5" cy="27" rx="26.5" ry="26" fill="none"/></g></g></svg>