<svg xmlns="http://www.w3.org/2000/svg" width="50" height="58.884" viewBox="0 0 50 58.884"><g transform="translate(-20 -24.003)"><g transform="translate(20 24.003)"><g transform="translate(0)"><path d="M233.541,52.541V51.309a3.954,3.954,0,0,0,.971-.159,2.162,2.162,0,0,0,1.386-1.1,2.54,2.54,0,0,0,.048-1.922,2.044,2.044,0,0,0-1.205-1.067,9.535,9.535,0,0,0-1.317-.409V45.2a4.056,4.056,0,0,1,1.7.7l.764-1.444a8.686,8.686,0,0,0-1.051-.5,4.569,4.569,0,0,0-1.3-.308V42.58h-.733v1.073a2.41,2.41,0,0,0-2.421,2.432,1.719,1.719,0,0,0,.494,1.306,5.165,5.165,0,0,0,2.044.924v1.413a4.6,4.6,0,0,1-2.092-.86l-.764,1.519a6.006,6.006,0,0,0,2.74.913v1.242h.733Zm-.117-4.067a2.473,2.473,0,0,1,.595.281.494.494,0,0,1,.223.43q0,.531-.818.563Zm-1.056-2.246a.516.516,0,0,1-.186-.42q0-.552.743-.616V46.5A1.661,1.661,0,0,1,232.368,46.228Z" transform="translate(-208.738 -40.262)" fill="#931837"/><path d="M133.052,52.946H115.5V51.888a11.589,11.589,0,0,1,2.3-2.566c1.075,2.309,4.387,3.211,7.387,1.457,3.7-2.1,3.205-6.562,6.781-8.137a.624.624,0,0,0-.27-1.194c-2.428.074-6.64-1.571-10.98.89a6.108,6.108,0,0,0-3.28,5.673,12.3,12.3,0,0,0-1.94,1.813V38.57a7.3,7.3,0,1,0-1.248,0v6.856a8.593,8.593,0,0,0-1.283-1.286,6,6,0,0,0-3.225-6.053c-4.337-2.458-8.556-.816-10.979-.889a.624.624,0,0,0-.27,1.194c3.582,1.578,3.082,6.036,6.774,8.133,2.827,1.652,5.941.986,7.227-1.142a5.847,5.847,0,0,1,1.756,2.662v4.9H98.121a3.119,3.119,0,0,0,0,6.238h.767l5.39,20.482a4.324,4.324,0,0,0,4.179,3.221h14.261a4.323,4.323,0,0,0,4.178-3.221l5.39-20.482h.767a3.119,3.119,0,0,0,0-6.238Zm-11.719-9.524a9.356,9.356,0,0,1,4.8-1.2,28.989,28.989,0,0,1,3.67.335c-2.406,2.146-2.5,5.579-5.242,7.138a5.272,5.272,0,0,1-2.643.753,3.14,3.14,0,0,1-3.085-1.879,8.534,8.534,0,0,1,2.985-1.246.624.624,0,0,0-.169-1.236,9.113,9.113,0,0,0-2.972,1.109A5.176,5.176,0,0,1,121.333,43.422ZM105.89,45.445c-2.736-1.554-2.826-4.986-5.235-7.134,2.713-.339,5.5-.82,8.471.861a5.053,5.053,0,0,1,2.675,4.14,14.012,14.012,0,0,0-3.638-1.576.624.624,0,1,0-.3,1.211A12.98,12.98,0,0,1,111.5,44.61C110.725,46.125,108.321,46.866,105.89,45.445ZM108.823,31.3a6.05,6.05,0,1,1,6.05,6.05A6.057,6.057,0,0,1,108.823,31.3Zm18.088,43.4a14.35,14.35,0,0,0-22.651,0l-2.442-9.28h27.535Zm-1.223,4.647a3.075,3.075,0,0,1-2.972,2.291H108.456a3.075,3.075,0,0,1-2.972-2.291l-.811-3.082a13.1,13.1,0,0,1,21.827,0Zm3.993-15.175H101.491l-1.313-4.99H131Zm3.37-6.238H98.121a1.871,1.871,0,1,1,0-3.743h34.931a1.871,1.871,0,1,1,0,3.743Z" transform="translate(-90.521 -24.003)"/><path d="M225.606,446h-9.98a.624.624,0,1,0,0,1.248h9.98a.624.624,0,0,0,0-1.248Z" transform="translate(-195.551 -393.354)" fill="#931837"/><path d="M393.745,88.484A3.743,3.743,0,1,0,390,84.742,3.747,3.747,0,0,0,393.745,88.484Zm0-6.238a2.5,2.5,0,1,1-2.5,2.5A2.5,2.5,0,0,1,393.745,82.247Z" transform="translate(-348.719 -73.888)" fill="#931837"/><path d="M68.121,77.237A3.119,3.119,0,1,0,65,74.118,3.122,3.122,0,0,0,68.121,77.237Zm0-4.99a1.871,1.871,0,1,1-1.871,1.871A1.873,1.873,0,0,1,68.121,72.247Z" transform="translate(-64.264 -65.136)" fill="#931837"/><circle cx="1" cy="1" r="1" transform="translate(48 39.119)" fill="#931837"/><circle cx="1" cy="1" r="1" transform="translate(41 49.119)" fill="#931837"/><circle cx="1" cy="1" r="1" transform="translate(46 19.119)" fill="#931837"/><circle cx="1" cy="1" r="1" transform="translate(36 5.119)" fill="#931837"/><circle cx="1" cy="1" r="1" transform="translate(12 3.119)" fill="#931837"/><ellipse cx="0.5" cy="1" rx="0.5" ry="1" transform="translate(3 19.119)" fill="#931837"/><circle cx="1" cy="1" r="1" transform="translate(0 41.119)" fill="#931837"/><circle cx="1" cy="1" r="1" transform="translate(8 51.119)" fill="#931837"/></g></g></g></svg>