<svg xmlns="http://www.w3.org/2000/svg" width="85" height="85" viewBox="0 0 85 85">
  <g id="Group_71" data-name="Group 71" transform="translate(-2337 -7498)">
    <circle id="Ellipse_3" data-name="Ellipse 3" cx="32.5" cy="32.5" r="32.5" transform="translate(2347 7508)" fill="#931837"/>
    <g id="Ellipse_4" data-name="Ellipse 4" transform="translate(2337 7498)" fill="none" stroke="#931837" stroke-width="2">
      <circle cx="42.5" cy="42.5" r="42.5" stroke="none"/>
      <circle cx="42.5" cy="42.5" r="41.5" fill="none"/>
    </g>
    <path id="XMLID_22_" d="M105.208,224.907a15.7,15.7,0,0,0,15.8-15.8c0-.238,0-.476-.017-.722a11.3,11.3,0,0,0,2.768-2.878,10.937,10.937,0,0,1-3.193.875,5.565,5.565,0,0,0,2.445-3.074,11.188,11.188,0,0,1-3.524,1.35,5.558,5.558,0,0,0-9.459,5.069,15.768,15.768,0,0,1-11.446-5.8,5.556,5.556,0,0,0,1.715,7.413,5.482,5.482,0,0,1-2.522-.7v.068a5.562,5.562,0,0,0,4.458,5.443,5.547,5.547,0,0,1-2.5.093,5.561,5.561,0,0,0,5.188,3.855,11.175,11.175,0,0,1-6.895,2.386,11.543,11.543,0,0,1-1.325-.076,15.708,15.708,0,0,0,8.508,2.5" transform="translate(2269.3 7327.093)" fill="#fff"/>
  </g>
</svg>
