<svg xmlns="http://www.w3.org/2000/svg" width="85" height="85" viewBox="0 0 85 85">
  <g id="Group_75" data-name="Group 75" transform="translate(-1766.406 -692.235)">
    <circle id="Ellipse_5" data-name="Ellipse 5" cx="34" cy="34" r="34" transform="translate(1775.406 701.235)" fill="#931837"/>
    <g id="Ellipse_6" data-name="Ellipse 6" transform="translate(1766.406 692.235)" fill="none" stroke="#931837" stroke-width="2">
      <circle cx="42.5" cy="42.5" r="42.5" stroke="none"/>
      <circle cx="42.5" cy="42.5" r="41.5" fill="none"/>
    </g>
    <g id="instagram-symbol" transform="translate(1803.061 729.89)">
      <path id="Path_338" data-name="Path 338" d="M30.2,1.185A3.874,3.874,0,0,0,27.36,0H4.026a3.875,3.875,0,0,0-2.84,1.185A3.873,3.873,0,0,0,0,4.025V27.359A3.874,3.874,0,0,0,1.186,30.2a3.875,3.875,0,0,0,2.84,1.185H27.36a4.046,4.046,0,0,0,4.025-4.025V4.025A3.873,3.873,0,0,0,30.2,1.185ZM11.27,11.309a6.166,6.166,0,0,1,4.444-1.788,6.191,6.191,0,0,1,4.464,1.788,5.79,5.79,0,0,1,1.849,4.322,5.789,5.789,0,0,1-1.849,4.321,6.188,6.188,0,0,1-4.464,1.788,6.166,6.166,0,0,1-4.444-1.788A5.79,5.79,0,0,1,9.42,15.631,5.791,5.791,0,0,1,11.27,11.309ZM27.83,26.521a1.19,1.19,0,0,1-.368.889,1.218,1.218,0,0,1-.879.358H4.742A1.222,1.222,0,0,1,3.5,26.521V13.281H6.376a8.8,8.8,0,0,0-.408,2.677,8.972,8.972,0,0,0,2.86,6.692,9.547,9.547,0,0,0,6.886,2.768,9.822,9.822,0,0,0,4.9-1.267,9.54,9.54,0,0,0,3.555-3.443,9.053,9.053,0,0,0,1.308-4.75,8.8,8.8,0,0,0-.409-2.677H27.83v13.24h0Zm0-18.246a1.4,1.4,0,0,1-1.41,1.41H22.865a1.4,1.4,0,0,1-1.41-1.41V4.9a1.372,1.372,0,0,1,.408-.991,1.345,1.345,0,0,1,1-.419H26.42a1.344,1.344,0,0,1,1,.419,1.371,1.371,0,0,1,.409.991Z" transform="translate(-9.656 -10.655)" fill="#fff"/>
    </g>
  </g>
</svg>
