<svg xmlns="http://www.w3.org/2000/svg" width="50" height="63.536" viewBox="0 0 50 63.536"><g transform="translate(-1377 -2004)"><path d="M455.718,665.392l-2.86,1.5a.934.934,0,0,1-1.356-.984l.546-3.183-2.314-2.254a.934.934,0,0,1,.518-1.593l3.2-.464,1.43-2.9a.935.935,0,0,1,1.676,0l1.43,2.9,3.2.464a.934.934,0,0,1,.518,1.593l-2.314,2.254.546,3.183a.934.934,0,0,1-1.356.984Zm-.435-1.881a.935.935,0,0,1,.87,0l1.619.851-.309-1.8a.934.934,0,0,1,.269-.826l1.31-1.276-1.811-.263a.934.934,0,0,1-.7-.511l-.81-1.64-.81,1.64a.934.934,0,0,1-.7.511l-1.811.263,1.31,1.276a.933.933,0,0,1,.269.826l-.309,1.8Zm-17.375,3.384a.934.934,0,0,1-1.356-.984l.546-3.183-2.314-2.254a.934.934,0,0,1,.518-1.593l3.2-.464,1.43-2.9a.935.935,0,0,1,1.676,0l1.43,2.9,3.2.464a.934.934,0,0,1,.518,1.593l-2.314,2.254.546,3.183a.934.934,0,0,1-1.356.984l-2.86-1.5Zm2.426-3.384a.935.935,0,0,1,.87,0l1.62.851-.309-1.8a.933.933,0,0,1,.269-.826l1.31-1.276-1.811-.263a.934.934,0,0,1-.7-.511l-.81-1.64-.81,1.64a.934.934,0,0,1-.7.511l-1.811.263,1.31,1.276a.933.933,0,0,1,.269.826l-.309,1.8Zm-11.712,5.149-2.311,1.214a.934.934,0,0,1-1.356-.984l.441-2.572-1.87-1.821a.933.933,0,0,1,.518-1.593l2.584-.375,1.156-2.34a.935.935,0,0,1,1.676,0l1.156,2.34,2.584.375a.934.934,0,0,1,.518,1.593l-1.87,1.821.441,2.572a.934.934,0,0,1-1.356.984Zm-.435-1.881a.935.935,0,0,1,.87,0l1.07.562-.2-1.191a.933.933,0,0,1,.269-.826l.866-.843-1.2-.174a.934.934,0,0,1-.7-.511l-.535-1.084-.535,1.084a.934.934,0,0,1-.7.511l-1.2.174.866.843a.933.933,0,0,1,.269.826l-.2,1.191Zm37.367,3.1a.934.934,0,0,1-1.356-.984l.441-2.572-1.87-1.821a.934.934,0,0,1,.518-1.593l2.584-.375,1.156-2.34a.935.935,0,0,1,1.676,0l1.156,2.34,2.584.375a.934.934,0,0,1,.518,1.593l-1.87,1.821.441,2.572a.934.934,0,0,1-1.356.984l-2.311-1.214Zm1.876-3.1a.935.935,0,0,1,.87,0l1.07.562-.2-1.191a.933.933,0,0,1,.269-.826l.866-.843-1.2-.174a.934.934,0,0,1-.7-.511l-.535-1.084-.535,1.084a.934.934,0,0,1-.7.511l-1.2.174.866.843a.933.933,0,0,1,.269.826l-.2,1.191Z" transform="translate(953.756 1349)" fill="#931837" fill-rule="evenodd"/><path d="M468.183,720.083H428.935a.934.934,0,0,1-.935-.934V685.536a.934.934,0,0,1,.935-.934h15.886v-4.669a.934.934,0,0,1,.935-.934h22.428a.934.934,0,0,1,.935.934v39.215A.934.934,0,0,1,468.183,720.083Zm-6.542-1.867h5.607V680.867H446.69v37.348H452.3V707.945a.934.934,0,0,1,.935-.934h7.476a.934.934,0,0,1,.934.934Zm-16.821,0V686.47H429.869v31.746Zm9.345,0h5.607v-9.337h-5.607Zm-2.8-16.807a.934.934,0,1,1,0-1.867h2.8a.934.934,0,1,1,0,1.867Zm8.41,0a.934.934,0,1,1,0-1.867h2.8a.934.934,0,1,1,0,1.867Zm-8.41-13.072a.934.934,0,1,1,0-1.867h2.8a.934.934,0,1,1,0,1.867Zm8.41,0a.934.934,0,1,1,0-1.867h2.8a.934.934,0,1,1,0,1.867Zm-8.41,6.536a.934.934,0,1,1,0-1.867h2.8a.934.934,0,1,1,0,1.867Zm8.41,0a.934.934,0,1,1,0-1.867h2.8a.934.934,0,1,1,0,1.867Zm-25.232,16.807a.934.934,0,1,1,0-1.867h5.607a.934.934,0,1,1,0,1.867Zm0-8.4a.934.934,0,1,1,0-1.867h5.607a.934.934,0,1,1,0,1.867Zm0-8.4a.934.934,0,1,1,0-1.867h5.607a.934.934,0,1,1,0,1.867Z" transform="translate(952.735 1347.453)" fill-rule="evenodd"/></g></svg>