<svg xmlns="http://www.w3.org/2000/svg" width="111" height="111" viewBox="0 0 111 111"><g transform="translate(-85.428 -1570.97)"><path d="M110.492,1660.487h-.966a10.742,10.742,0,1,0-15.97,0H92.59a7.169,7.169,0,0,0-7.162,7.161v14.322h32.226v-14.322a7.169,7.169,0,0,0-7.162-7.161m-16.112-7.162a7.161,7.161,0,1,1,7.161,7.162,7.168,7.168,0,0,1-7.161-7.162m19.693,25.065h-3.581v-8.952h-3.58v8.952H96.17v-8.952H92.59v8.952H89.008v-10.742a3.585,3.585,0,0,1,3.582-3.58h17.9a3.584,3.584,0,0,1,3.581,3.58Z" fill="#931837"/><path d="M149.879,1660.487h-.966a10.742,10.742,0,1,0-15.97,0h-.967a7.168,7.168,0,0,0-7.161,7.161v14.322h32.227v-14.322a7.17,7.17,0,0,0-7.163-7.161m-16.112-7.162a7.161,7.161,0,1,1,7.161,7.162,7.168,7.168,0,0,1-7.161-7.162m19.694,25.065h-3.582v-8.952H146.3v8.952H135.557v-8.952h-3.581v8.952H128.4v-10.742a3.584,3.584,0,0,1,3.58-3.58h17.9a3.585,3.585,0,0,1,3.582,3.58Z" fill="#931837"/><path d="M189.266,1660.487H188.3a10.742,10.742,0,1,0-15.969,0h-.967a7.168,7.168,0,0,0-7.161,7.161v14.322h32.225v-14.322a7.169,7.169,0,0,0-7.162-7.161m-16.112-7.162a7.161,7.161,0,1,1,7.161,7.162,7.168,7.168,0,0,1-7.161-7.162m19.693,25.065h-3.581v-8.952h-3.58v8.952H174.944v-8.952h-3.58v8.952h-3.581v-10.742a3.584,3.584,0,0,1,3.581-3.58h17.9a3.584,3.584,0,0,1,3.581,3.58Z" fill="#931837"/><path d="M140.928,1597.825a7.161,7.161,0,1,0,7.161,7.161,7.169,7.169,0,0,0-7.161-7.161m0,10.742a3.581,3.581,0,1,1,3.581-3.581,3.584,3.584,0,0,1-3.581,3.581"/><path d="M174.945,1606.776v-3.58h-3.673a30.423,30.423,0,0,0-28.553-28.553v-3.673h-3.581v3.673a30.424,30.424,0,0,0-28.554,28.553h-3.672v3.58h3.672a30.425,30.425,0,0,0,28.554,28.555V1639h3.581v-3.671a30.424,30.424,0,0,0,28.553-28.555Zm-7.253-3.58h-3.581a23.28,23.28,0,0,0-21.392-21.392v-3.58a26.849,26.849,0,0,1,24.973,24.972m-7.162,3.58a19.711,19.711,0,0,1-17.811,17.813v-3.49h-3.581v3.49a19.711,19.711,0,0,1-17.812-17.813h3.489v-3.58h-3.489a19.71,19.71,0,0,1,17.812-17.811v3.488h3.581v-3.488A19.71,19.71,0,0,1,160.53,1603.2h-3.489v3.58Zm-21.392-28.552v3.58a23.28,23.28,0,0,0-21.393,21.392h-3.581a26.85,26.85,0,0,1,24.974-24.972m-24.974,28.552h3.581a23.281,23.281,0,0,0,21.393,21.394v3.58a26.852,26.852,0,0,1-24.974-24.974m28.555,24.974v-3.58a23.281,23.281,0,0,0,21.392-21.394h3.581a26.851,26.851,0,0,1-24.973,24.974"/><rect width="3.581" height="3.58" transform="translate(178.525 1631.841)"/><rect width="3.581" height="3.58" transform="translate(178.525 1624.68)"/><rect width="3.581" height="3.58" transform="translate(178.525 1617.519)"/><rect width="3.581" height="3.58" transform="translate(178.525 1610.358)"/><rect width="3.581" height="3.58" transform="translate(178.525 1603.196)"/><rect width="3.581" height="3.58" transform="translate(99.751 1631.841)"/><rect width="3.581" height="3.58" transform="translate(99.751 1624.68)"/><rect width="3.581" height="3.58" transform="translate(99.751 1617.519)"/><rect width="3.581" height="3.58" transform="translate(99.751 1610.358)"/><rect width="3.581" height="3.58" transform="translate(99.751 1603.196)"/></g></svg>