<svg xmlns="http://www.w3.org/2000/svg" width="55" height="54" viewBox="0 0 55 54">
  <g id="Group_74" data-name="Group 74" transform="translate(-1766 -692)">
    <ellipse id="Ellipse_5" data-name="Ellipse 5" cx="20.5" cy="21" rx="20.5" ry="21" transform="translate(1773 698)" fill="#fff"/>
    <g id="Ellipse_6" data-name="Ellipse 6" transform="translate(1766 692)" fill="none" stroke="#fff" stroke-width="2">
      <ellipse cx="27.5" cy="27" rx="27.5" ry="27" stroke="none"/>
      <ellipse cx="27.5" cy="27" rx="26.5" ry="26" fill="none"/>
    </g>
    <g id="instagram-symbol" transform="translate(1783.999 709)">
      <path id="Path_338" data-name="Path 338" d="M18.449.724A2.366,2.366,0,0,0,16.714,0H2.46A2.367,2.367,0,0,0,.725.724,2.366,2.366,0,0,0,0,2.459V16.713a2.366,2.366,0,0,0,.724,1.735,2.367,2.367,0,0,0,1.735.724H16.714a2.472,2.472,0,0,0,2.459-2.459V2.459A2.366,2.366,0,0,0,18.449.724ZM6.885,6.908A3.766,3.766,0,0,1,9.6,5.816a3.782,3.782,0,0,1,2.727,1.092,3.537,3.537,0,0,1,1.13,2.64,3.536,3.536,0,0,1-1.13,2.64A3.78,3.78,0,0,1,9.6,13.28a3.767,3.767,0,0,1-2.715-1.092,3.537,3.537,0,0,1-1.13-2.64A3.537,3.537,0,0,1,6.885,6.908ZM17,16.2a.727.727,0,0,1-.225.543.744.744,0,0,1-.537.218H2.9a.746.746,0,0,1-.761-.761V8.113H3.9a5.375,5.375,0,0,0-.25,1.635,5.481,5.481,0,0,0,1.747,4.088A5.832,5.832,0,0,0,9.6,15.527a6,6,0,0,0,3-.774,5.828,5.828,0,0,0,2.172-2.1,5.53,5.53,0,0,0,.8-2.9,5.375,5.375,0,0,0-.25-1.635H17V16.2h0ZM17,5.055a.853.853,0,0,1-.861.861H13.968a.852.852,0,0,1-.861-.861V3a.838.838,0,0,1,.25-.605.822.822,0,0,1,.612-.256h2.172a.821.821,0,0,1,.612.256A.837.837,0,0,1,17,3Z"/>
    </g>
  </g>
</svg>
