<svg xmlns="http://www.w3.org/2000/svg" width="110.585" height="111.322" viewBox="0 0 110.585 111.322"><g transform="translate(-94.273 -936.208)"><path d="M137.906,959.4H119.465a2.318,2.318,0,0,1-2.106-1.35l-5.1-11.089a7.562,7.562,0,0,1,2.872-9.483,8.022,8.022,0,0,1,8.665,0l2.439,1.57a3.363,3.363,0,0,0,1.821.529H129.3a3.351,3.351,0,0,0,1.827-.532l2.4-1.558a8.034,8.034,0,0,1,8.665-.022,7.561,7.561,0,0,1,2.921,9.478l-5.107,11.107a2.317,2.317,0,0,1-2.106,1.35m-16.955-4.64H136.42l4.473-9.727a2.938,2.938,0,0,0-1.177-3.648,3.372,3.372,0,0,0-3.661-.005l-2.4,1.559a8,8,0,0,1-4.351,1.277h-1.244a8,8,0,0,1-4.333-1.268l-2.439-1.57a3.379,3.379,0,0,0-3.644,0,2.946,2.946,0,0,0-1.155,3.672Z"/><path d="M159.067,959.4a2.318,2.318,0,0,1-1.026-.24c-6.939-3.431-12.1-3.434-19.05,0A2.319,2.319,0,0,1,136.935,955c8.224-4.068,14.934-4.068,23.163,0a2.319,2.319,0,0,1-1.031,4.4"/><path d="M128.686,1011.335a16.519,16.519,0,1,1,16.235-16.516,16.4,16.4,0,0,1-16.235,16.516m0-28.4a11.881,11.881,0,1,0,11.6,11.879,11.754,11.754,0,0,0-11.6-11.879" fill="#931837"/><path d="M128.163,1004.883v-1.773a10.237,10.237,0,0,1-5.855-2.647l1.738-2.112a8.189,8.189,0,0,0,4.117,2.112v-4.711a9.614,9.614,0,0,1-3.939-1.723,3.94,3.94,0,0,1-1.249-3.17,4.467,4.467,0,0,1,1.439-3.434,5.76,5.76,0,0,1,3.749-1.458v-1.214h1.523v1.24a9.815,9.815,0,0,1,4.95,1.82l-1.547,2.234a7.6,7.6,0,0,0-3.4-1.409V993.2h.072a9.55,9.55,0,0,1,4.02,1.773,4.058,4.058,0,0,1,1.286,3.242,4.45,4.45,0,0,1-1.476,3.46,6.072,6.072,0,0,1-3.9,1.456v1.749Zm-1.679-15.673a1.9,1.9,0,0,0-.13,2.646,4.781,4.781,0,0,0,1.809.91v-4.2a2.824,2.824,0,0,0-1.679.645m5.011,10.646a1.9,1.9,0,0,0,.143-2.756,5.22,5.22,0,0,0-1.952-.935v4.371a3.288,3.288,0,0,0,1.809-.68" fill="#931837"/><path d="M197.894,1047.529H138.335a6.947,6.947,0,0,1-5.282-2.433,7.032,7.032,0,0,1-1.6-5.666,37.114,37.114,0,0,1,73.32,0,7.028,7.028,0,0,1-1.6,5.664,6.932,6.932,0,0,1-5.277,2.433m-29.781-34.788a32.283,32.283,0,0,0-32.075,27.407,2.389,2.389,0,0,0,.541,1.934,2.28,2.28,0,0,0,1.756.808h59.559a2.279,2.279,0,0,0,1.753-.808,2.4,2.4,0,0,0,.543-1.934,32.286,32.286,0,0,0-32.077-27.407"/><path d="M168.113,1012.741a16.235,16.235,0,1,1,16.234-16.235,16.253,16.253,0,0,1-16.234,16.235m0-27.831a11.6,11.6,0,1,0,11.6,11.6,11.609,11.609,0,0,0-11.6-11.6"/><path d="M129.489,1030.741c-13.057.244-26.773-2.447-32.059-8.928-12.542-15.388,16.115-60.7,19.424-65.814l.67-1.037,20.9-.39.707,1.011c.471.668,11.559,16.557,18.737,33.012l.436,1-.49.973a11.563,11.563,0,0,0,4.621,15.266l1.026.586.128,1.173c.11.995.189,1.971.205,2.906l.03,1.89-1.846.411a32.477,32.477,0,0,0-21.359,16.058l-.563,1.025-1.159.156a82.752,82.752,0,0,1-9.413.7m-9.4-71.187c-8.813,13.9-27.67,48.765-19.059,59.328,4.577,5.615,20.627,8.56,36.125,6.7a37.112,37.112,0,0,1,21.472-16.706,16.194,16.194,0,0,1-5.42-19.373c-5.974-13.387-14.675-26.565-17.172-30.249Z"/></g></svg>