<svg xmlns="http://www.w3.org/2000/svg" width="55" height="54" viewBox="0 0 55 54"><g transform="translate(-1766 -592)"><ellipse cx="20.5" cy="21" rx="20.5" ry="21" transform="translate(1773 598)" fill="#fff"/><g transform="translate(1766 592)" fill="none" stroke="#fff" stroke-width="2"><ellipse cx="27.5" cy="27" rx="27.5" ry="27" stroke="none"/><ellipse cx="27.5" cy="27" rx="26.5" ry="26" fill="none"/></g><g transform="translate(1785.466 611.001)"><g transform="translate(0 0)"><path d="M3.424,15.151V4.572H.154v10.58Zm0-14.33A1.608,1.608,0,0,0,1.748-.846,1.613,1.613,0,0,0,.053.821,1.6,1.6,0,0,0,1.709,2.489h.019A1.614,1.614,0,0,0,3.424.821Zm5.335,14.33V9.124a2.452,2.452,0,0,1,.118-.875,1.964,1.964,0,0,1,1.841-1.312A1.951,1.951,0,0,1,12.83,9.124v6.028h3.292V8.962c0-3.315-1.77-4.858-4.131-4.858A3.573,3.573,0,0,0,8.735,5.923l.024-1.415H5.472c.047,1.013,0,10.644,0,10.644Z" transform="translate(-0.053 0.846)" fill-rule="evenodd"/></g></g></g></svg>