<svg xmlns="http://www.w3.org/2000/svg" width="292.176" height="45.404" viewBox="0 0 292.176 45.404"><g transform="translate(-33.912 -85.298)"><path d="M103.275,123.395a.07.07,0,0,1,.08-.079h2.012a2.162,2.162,0,0,1,1.2.31,1.625,1.625,0,0,1,.672.907,7.76,7.76,0,0,1,0,2.976,1.739,1.739,0,0,1-.617.871,2.005,2.005,0,0,1-1.253.346h-2.012a.07.07,0,0,1-.08-.079Zm1.218,4.289h.611q.821,0,1-.6a6.5,6.5,0,0,0,0-2.132c-.121-.4-.456-.6-1-.6h-.611a.042.042,0,0,0-.048.048v3.23A.042.042,0,0,0,104.493,127.684Z" fill="#fff"/><path d="M111.793,123.395a.07.07,0,0,1,.08-.079h1.01a.07.07,0,0,1,.08.079v5.252a.07.07,0,0,1-.08.079h-1.01a.07.07,0,0,1-.08-.079Z" fill="#fff"/><path d="M117.4,127.019a7.732,7.732,0,0,1-.043-1c0-.3.007-.562.02-.795a2.628,2.628,0,0,1,.131-.684,1.753,1.753,0,0,1,.732-.979,2.3,2.3,0,0,1,1.257-.334,2.419,2.419,0,0,1,1.166.286,1.647,1.647,0,0,1,.759.867.081.081,0,0,1-.031.121l-.851.357c-.059.016-.1,0-.112-.04a1.026,1.026,0,0,0-.931-.557.819.819,0,0,0-.867.6,4.6,4.6,0,0,0-.087,1.153,4.662,4.662,0,0,0,.087,1.163.83.83,0,0,0,.883.6,1.014,1.014,0,0,0,.549-.148.708.708,0,0,0,.318-.409,1.894,1.894,0,0,0,.064-.534.043.043,0,0,0-.048-.048h-.732a.07.07,0,0,1-.079-.079V125.8a.071.071,0,0,1,.079-.08h1.862a.071.071,0,0,1,.08.08v.445a4.119,4.119,0,0,1-.136,1.218,1.807,1.807,0,0,1-.723,1,2.186,2.186,0,0,1-1.25.354,2.29,2.29,0,0,1-1.257-.334,1.753,1.753,0,0,1-.732-.979A3.763,3.763,0,0,1,117.4,127.019Z" fill="#fff"/><path d="M126,123.395a.071.071,0,0,1,.081-.079h1.009a.07.07,0,0,1,.08.079v5.252a.07.07,0,0,1-.08.079h-1.009a.071.071,0,0,1-.081-.079Z" fill="#fff"/><path d="M132.9,128.726a.07.07,0,0,1-.079-.079v-4.241a.042.042,0,0,0-.048-.048h-1.368a.07.07,0,0,1-.08-.079v-.884a.07.07,0,0,1,.08-.079h4a.071.071,0,0,1,.08.079v.884a.071.071,0,0,1-.08.079h-1.369a.042.042,0,0,0-.047.048v4.241a.07.07,0,0,1-.08.079Z" fill="#fff"/><path d="M140.6,123.395a.1.1,0,0,1,.1-.079h1a.1.1,0,0,1,.1.079l1.83,5.252c.016.053,0,.079-.055.079h-1.036a.1.1,0,0,1-.1-.079l-.31-.947h-1.893l-.3.947a.1.1,0,0,1-.1.079h-1.042c-.053,0-.071-.026-.055-.079Zm1.216,3.311-.611-1.9h-.025l-.613,1.9Z" fill="#fff"/><path d="M147.769,123.395a.07.07,0,0,1,.08-.079h1.01a.07.07,0,0,1,.08.079v4.241a.042.042,0,0,0,.048.048h2.387a.07.07,0,0,1,.079.079v.884a.07.07,0,0,1-.079.079h-3.525a.07.07,0,0,1-.08-.079Z" fill="#fff"/><path d="M155.651,123.395a.07.07,0,0,1,.08-.079h1.009a.071.071,0,0,1,.081.079v5.252a.071.071,0,0,1-.081.079h-1.009a.07.07,0,0,1-.08-.079Z" fill="#fff"/><path d="M162,128.6a2.642,2.642,0,0,1-.9-.525.092.092,0,0,1-.009-.136l.6-.692c.032-.043.071-.045.119-.008a2.263,2.263,0,0,0,1.416.558,1.049,1.049,0,0,0,.649-.179.561.561,0,0,0,.235-.467.473.473,0,0,0-.192-.394,1.417,1.417,0,0,0-.644-.21l-.286-.04q-1.712-.238-1.711-1.623a1.509,1.509,0,0,1,.525-1.2,2.058,2.058,0,0,1,1.393-.454,3.355,3.355,0,0,1,1.009.152,2.632,2.632,0,0,1,.828.413.072.072,0,0,1,.016.119l-.485.725a.074.074,0,0,1-.111.023,2.308,2.308,0,0,0-1.257-.413.8.8,0,0,0-.534.163.532.532,0,0,0-.19.425q0,.479.843.6l.287.04q1.7.229,1.7,1.639a1.54,1.54,0,0,1-.553,1.229,2.345,2.345,0,0,1-1.572.474A3.393,3.393,0,0,1,162,128.6Z" fill="#fff"/><path d="M169.6,123.395a.07.07,0,0,1,.08-.079h1.01a.07.07,0,0,1,.08.079v5.252a.07.07,0,0,1-.08.079h-1.01a.07.07,0,0,1-.08-.079Z" fill="#fff"/><path d="M175.307,123.395a.07.07,0,0,1,.08-.079h.954a.151.151,0,0,1,.136.079l1.91,3.405h.039v-3.405a.07.07,0,0,1,.08-.079h.9a.07.07,0,0,1,.079.079v5.252a.07.07,0,0,1-.079.079h-.947a.151.151,0,0,1-.136-.079l-1.916-3.4h-.041v3.4a.07.07,0,0,1-.08.079h-.9a.07.07,0,0,1-.08-.079Z" fill="#fff"/><path d="M183.923,127.019a7.787,7.787,0,0,1-.042-1c0-.3.006-.562.019-.795a2.628,2.628,0,0,1,.131-.684,1.758,1.758,0,0,1,.732-.979,2.3,2.3,0,0,1,1.257-.334,2.417,2.417,0,0,1,1.166.286,1.638,1.638,0,0,1,.759.867.08.08,0,0,1-.031.121l-.851.357c-.058.016-.1,0-.111-.04a1.029,1.029,0,0,0-.932-.557.819.819,0,0,0-.867.6,4.653,4.653,0,0,0-.087,1.153,4.714,4.714,0,0,0,.087,1.163.831.831,0,0,0,.884.6,1.013,1.013,0,0,0,.548-.148.71.71,0,0,0,.319-.409,1.935,1.935,0,0,0,.063-.534.042.042,0,0,0-.048-.048h-.732a.07.07,0,0,1-.079-.079V125.8a.071.071,0,0,1,.079-.08h1.862a.071.071,0,0,1,.08.08v.445a4.119,4.119,0,0,1-.136,1.218,1.807,1.807,0,0,1-.723,1,2.186,2.186,0,0,1-1.25.354,2.292,2.292,0,0,1-1.257-.334,1.758,1.758,0,0,1-.732-.979A3.941,3.941,0,0,1,183.923,127.019Z" fill="#fff"/><path d="M199.363,123.395a.1.1,0,0,1,.1-.079h1a.1.1,0,0,1,.1.079l1.831,5.252c.016.053,0,.079-.056.079h-1.035a.1.1,0,0,1-.1-.079l-.311-.947h-1.893l-.3.947a.1.1,0,0,1-.1.079h-1.042c-.053,0-.071-.026-.056-.079Zm1.217,3.311-.612-1.9h-.024l-.613,1.9Z" fill="#fff"/><path d="M206.536,123.395a.071.071,0,0,1,.081-.079h3.468a.07.07,0,0,1,.08.079v.852a.07.07,0,0,1-.08.079h-2.331a.042.042,0,0,0-.047.048v1.137c0,.033.015.048.047.048H209.7a.071.071,0,0,1,.08.08v.844a.07.07,0,0,1-.08.079h-1.941a.042.042,0,0,0-.047.048v2.037a.071.071,0,0,1-.081.079h-1.009a.071.071,0,0,1-.081-.079Z" fill="#fff"/><path d="M217.465,128.726a.118.118,0,0,1-.12-.079l-.931-1.981h-.723a.042.042,0,0,0-.048.048v1.933a.07.07,0,0,1-.08.079h-1.01a.07.07,0,0,1-.08-.079v-5.252a.07.07,0,0,1,.08-.079h2.156a1.88,1.88,0,0,1,1.328.469,1.57,1.57,0,0,1,.51,1.209,1.626,1.626,0,0,1-.258.907,1.6,1.6,0,0,1-.705.6l1.066,2.132a.066.066,0,0,1,0,.064.058.058,0,0,1-.055.031Zm-.291-3.242a.635.635,0,0,0,.2-.49.619.619,0,0,0-.2-.484.761.761,0,0,0-.528-.184h-.955a.042.042,0,0,0-.048.048v1.249a.042.042,0,0,0,.048.048h.955A.754.754,0,0,0,217.174,125.484Z" fill="#fff"/><path d="M222.944,123.395a.071.071,0,0,1,.081-.079h1.009a.07.07,0,0,1,.08.079v5.252a.07.07,0,0,1-.08.079h-1.009a.071.071,0,0,1-.081-.079Z" fill="#fff"/><path d="M228.552,127.023a7.623,7.623,0,0,1-.043-1q0-.381.012-.739a2.459,2.459,0,0,1,.139-.723,1.86,1.86,0,0,1,.712-.992,2.331,2.331,0,0,1,2.379-.023,1.837,1.837,0,0,1,.721.886c.026.048.013.081-.04.1l-.867.39a.073.073,0,0,1-.112-.04.891.891,0,0,0-.86-.613.783.783,0,0,0-.811.6,7.8,7.8,0,0,0,0,2.324.783.783,0,0,0,.811.6.891.891,0,0,0,.86-.613.073.073,0,0,1,.112-.04l.867.39c.053.015.066.048.04.1a1.837,1.837,0,0,1-.721.886,2.331,2.331,0,0,1-2.379-.023,1.862,1.862,0,0,1-.712-.991A3.522,3.522,0,0,1,228.552,127.023Z" fill="#fff"/><path d="M238.188,123.395a.1.1,0,0,1,.1-.079h1a.1.1,0,0,1,.1.079l1.831,5.252c.016.053,0,.079-.055.079h-1.036a.1.1,0,0,1-.1-.079l-.311-.947h-1.893l-.3.947a.1.1,0,0,1-.1.079h-1.042c-.053,0-.071-.026-.055-.079Zm1.217,3.311-.611-1.9h-.025l-.613,1.9Z" fill="#fff"/><path d="M112.705,88.085a12.183,12.183,0,0,1,4.92.94,11.021,11.021,0,0,1,3.631,2.5,10.859,10.859,0,0,1,2.26,3.567,11.333,11.333,0,0,1,.781,4.139,11.543,11.543,0,0,1-.765,4.14,10.653,10.653,0,0,1-2.245,3.567,10.949,10.949,0,0,1-3.646,2.5,12.3,12.3,0,0,1-4.936.94h-8.184V88.085Zm-3.025,4.458v13.374h2.771a6.66,6.66,0,0,0,2.786-.557,6.157,6.157,0,0,0,2.07-1.5,6.633,6.633,0,0,0,1.289-2.132,7.188,7.188,0,0,0,0-4.985,6.6,6.6,0,0,0-1.289-2.148,6.184,6.184,0,0,0-2.07-1.5,6.66,6.66,0,0,0-2.786-.558Z" fill="#fff"/><path d="M142.193,95.027v15.349H137.32v-2.165a4,4,0,0,1-.764,1,4.946,4.946,0,0,1-1.1.8,6.73,6.73,0,0,1-1.353.542,5.365,5.365,0,0,1-1.465.207,7.347,7.347,0,0,1-3.041-.621,7.2,7.2,0,0,1-2.372-1.688A7.471,7.471,0,0,1,125.7,105.9a9.737,9.737,0,0,1,0-6.4,7.475,7.475,0,0,1,1.529-2.548,7.2,7.2,0,0,1,2.372-1.687,7.347,7.347,0,0,1,3.041-.622,5.367,5.367,0,0,1,1.465.208,6.172,6.172,0,0,1,1.353.557,5.069,5.069,0,0,1,1.1.828,4.624,4.624,0,0,1,.764.987v-2.2Zm-8.535,11.591a3.43,3.43,0,0,0,1.5-.319,3.643,3.643,0,0,0,1.147-.843,3.87,3.87,0,0,0,.748-1.241,4.266,4.266,0,0,0,.27-1.514,4.108,4.108,0,0,0-1.018-2.738,3.543,3.543,0,0,0-1.147-.86,3.67,3.67,0,0,0-2.993,0,3.543,3.543,0,0,0-1.147.86A4.115,4.115,0,0,0,130,102.7a4.244,4.244,0,0,0,.271,1.514,3.853,3.853,0,0,0,.748,1.241,3.643,3.643,0,0,0,1.147.843A3.425,3.425,0,0,0,133.658,106.618Z" fill="#fff"/><path d="M154.707,91.651a7.068,7.068,0,0,0-.717-.142,5.412,5.412,0,0,0-.78-.048,6.2,6.2,0,0,0-.8.048,1.417,1.417,0,0,0-.669.254,1.453,1.453,0,0,0-.462.589,2.589,2.589,0,0,0-.174,1.051v1.624h3.6v3.63H151.14v11.719h-4.872V98.657H143.5v-3.63h2.771V93.689a7.82,7.82,0,0,1,.558-3.279,4.427,4.427,0,0,1,1.416-1.783,4.269,4.269,0,0,1,1.879-.749,13.9,13.9,0,0,1,1.942-.144,8.127,8.127,0,0,1,1.529.129,7.554,7.554,0,0,1,1.115.286Z" fill="#fff"/><path d="M166.9,99.453a8.6,8.6,0,0,0-.861-.175,6.634,6.634,0,0,0-.859-.048,4.413,4.413,0,0,0-3.216,1.179q-1.212,1.178-1.21,3.981v5.986h-4.872V95.027h4.872v2.484a5,5,0,0,1,1.8-1.91,5.12,5.12,0,0,1,2.881-.828,3.774,3.774,0,0,1,1.466.254Z" fill="#fff"/><path d="M167.189,89.932a2.987,2.987,0,0,1,.892-2.2,3.026,3.026,0,0,1,2.228-.891,3.187,3.187,0,0,1,1.243.24,3.243,3.243,0,0,1,1,.651,2.921,2.921,0,0,1,.668.988,3.1,3.1,0,0,1,.239,1.21,2.982,2.982,0,0,1-.239,1.194,3.143,3.143,0,0,1-.668.988,3.086,3.086,0,0,1-1,.668,3.187,3.187,0,0,1-1.243.239,3.063,3.063,0,0,1-1.225-.239,3.143,3.143,0,0,1-1.656-1.656A2.982,2.982,0,0,1,167.189,89.932Zm.7,5.1h4.873v15.349h-4.873Z" fill="#fff"/><path d="M188.046,98.594h11.56v3.853h-2.292a11.423,11.423,0,0,1-1.211,3.47,8.854,8.854,0,0,1-2.261,2.676,10.482,10.482,0,0,1-3.3,1.735,13.715,13.715,0,0,1-4.282.62,12.309,12.309,0,0,1-4.984-.954,10.8,10.8,0,0,1-3.663-2.563,11.125,11.125,0,0,1-2.26-3.727,12.834,12.834,0,0,1-.781-4.474,12.417,12.417,0,0,1,.8-4.409,11.11,11.11,0,0,1,5.986-6.338,11.858,11.858,0,0,1,4.905-.972,12.484,12.484,0,0,1,4.028.622,10.359,10.359,0,0,1,3.168,1.687,8.5,8.5,0,0,1,2.134,2.484,7.645,7.645,0,0,1,.955,3.01H191.04a3.612,3.612,0,0,0-.51-1.273,3.958,3.958,0,0,0-1-1.068,5.025,5.025,0,0,0-1.448-.732,6.561,6.561,0,0,0-4.618.334,6.043,6.043,0,0,0-1.99,1.624,6.923,6.923,0,0,0-1.211,2.341,9.668,9.668,0,0,0,.017,5.541,6.652,6.652,0,0,0,1.257,2.324A5.99,5.99,0,0,0,183.668,106a7.19,7.19,0,0,0,3.009.588,6.152,6.152,0,0,0,2.1-.335,5.044,5.044,0,0,0,1.592-.907,4.772,4.772,0,0,0,1.625-2.9h-3.95Z" fill="#fff"/><path d="M211.962,99.453a8.6,8.6,0,0,0-.861-.175,6.634,6.634,0,0,0-.859-.048,4.417,4.417,0,0,0-3.217,1.179q-1.209,1.178-1.209,3.981v5.986h-4.873V95.027h4.873v2.484a5,5,0,0,1,1.8-1.91,5.12,5.12,0,0,1,2.881-.828,3.777,3.777,0,0,1,1.466.254Z" fill="#fff"/><path d="M219.667,110.789a9.224,9.224,0,0,1-3.55-.652,8.121,8.121,0,0,1-2.674-1.751,7.594,7.594,0,0,1-1.689-2.563,8.563,8.563,0,0,1,0-6.242,7.578,7.578,0,0,1,1.689-2.564,8.137,8.137,0,0,1,2.674-1.751,10.066,10.066,0,0,1,7.133,0,8.137,8.137,0,0,1,2.674,1.751,7.578,7.578,0,0,1,1.689,2.564,8.563,8.563,0,0,1,0,6.242,7.593,7.593,0,0,1-1.689,2.563,8.121,8.121,0,0,1-2.674,1.751A9.315,9.315,0,0,1,219.667,110.789Zm0-4.171a3.725,3.725,0,0,0,1.514-.3,3.316,3.316,0,0,0,1.162-.845,4.068,4.068,0,0,0,.748-1.241,4.416,4.416,0,0,0,0-3.041,3.862,3.862,0,0,0-.748-1.243,3.625,3.625,0,0,0-1.162-.843,3.574,3.574,0,0,0-1.514-.319,3.454,3.454,0,0,0-1.5.319,3.564,3.564,0,0,0-1.879,2.086,4.678,4.678,0,0,0,0,3.041,3.857,3.857,0,0,0,.732,1.241,3.352,3.352,0,0,0,1.147.845A3.6,3.6,0,0,0,219.667,106.618Z" fill="#fff"/><path d="M245.206,95.027v15.349h-4.872v-2.2a4.5,4.5,0,0,1-1.927,1.9,7.414,7.414,0,0,1-5.684.223A4.2,4.2,0,0,1,231,109.006a4.493,4.493,0,0,1-.955-2.054,15.183,15.183,0,0,1-.223-2.818V95.027h4.841v7.866a5.4,5.4,0,0,0,.588,2.69,2.223,2.223,0,0,0,2.117,1.035,2.526,2.526,0,0,0,2.246-1.051,4.952,4.952,0,0,0,.716-2.833V95.027Z" fill="#fff"/><path d="M252.944,97.224a4.65,4.65,0,0,1,.763-.987,4.921,4.921,0,0,1,1.116-.828,6.6,6.6,0,0,1,1.353-.557,5.315,5.315,0,0,1,1.481-.208,7.351,7.351,0,0,1,3.041.622,7.2,7.2,0,0,1,2.372,1.687A7.489,7.489,0,0,1,264.6,99.5a9.72,9.72,0,0,1,0,6.4,7.484,7.484,0,0,1-1.528,2.547,7.2,7.2,0,0,1-2.372,1.688,7.35,7.35,0,0,1-3.041.621,5.314,5.314,0,0,1-1.481-.207,6.6,6.6,0,0,1-1.353-.557,5.186,5.186,0,0,1-1.116-.813,3.986,3.986,0,0,1-.763-1v9.14h-4.873V95.027h4.873Zm3.693,1.56a3.558,3.558,0,0,0-1.512.319,3.615,3.615,0,0,0-1.162.843,3.847,3.847,0,0,0-.749,1.243,4.374,4.374,0,0,0,0,3.026,3.837,3.837,0,0,0,.749,1.241,3.585,3.585,0,0,0,1.162.843,3.528,3.528,0,0,0,1.512.319,3.358,3.358,0,0,0,1.466-.319,3.65,3.65,0,0,0,1.146-.843,3.853,3.853,0,0,0,.748-1.241,4.359,4.359,0,0,0,0-3.026,3.863,3.863,0,0,0-.748-1.243A3.681,3.681,0,0,0,258.1,99.1,3.387,3.387,0,0,0,256.637,98.784Z" fill="#fff"/><path d="M273.611,88.085h9.329a8.291,8.291,0,0,1,3.345.653,8,8,0,0,1,2.563,1.751,7.633,7.633,0,0,1,1.64,2.564,8.61,8.61,0,0,1,0,6.177,7.623,7.623,0,0,1-1.64,2.564,7.968,7.968,0,0,1-2.563,1.751,8.29,8.29,0,0,1-3.345.653h-4.171v6.178h-5.158ZM282.3,99.994a3.363,3.363,0,0,0,1.464-.318,3.459,3.459,0,0,0,1.131-.844,3.813,3.813,0,0,0,.717-1.226,4.349,4.349,0,0,0,0-2.929,3.824,3.824,0,0,0-.717-1.226,3.487,3.487,0,0,0-1.131-.844,3.363,3.363,0,0,0-1.464-.318h-3.535v7.705Z" fill="#fff"/><path d="M304.054,105.917v4.459h-11.5V88.085h5.159v17.832Z" fill="#fff"/><path d="M326.088,102.382a10.145,10.145,0,0,1-1.226,3.345,9.884,9.884,0,0,1-2.34,2.722,11.056,11.056,0,0,1-3.344,1.831,13.7,13.7,0,0,1-9.25-.286,11.409,11.409,0,0,1-3.758-2.563,10.988,10.988,0,0,1-2.357-3.742A12.526,12.526,0,0,1,303,99.2a12.279,12.279,0,0,1,.8-4.395,11.147,11.147,0,0,1,5.986-6.321,11.853,11.853,0,0,1,4.9-.972,13.44,13.44,0,0,1,4.6.734,10.646,10.646,0,0,1,3.439,1.973,9.315,9.315,0,0,1,2.246,2.93,11.6,11.6,0,0,1,1.082,3.6h-5.382a6.029,6.029,0,0,0-.653-1.814,5.218,5.218,0,0,0-2.866-2.42,6.281,6.281,0,0,0-2.148-.35,6.719,6.719,0,0,0-2.883.588,6.464,6.464,0,0,0-2.117,1.56,6.686,6.686,0,0,0-1.3,2.246,7.931,7.931,0,0,0-.447,2.643,8.112,8.112,0,0,0,.462,2.755,6.4,6.4,0,0,0,3.566,3.788,7.448,7.448,0,0,0,2.978.557,5.413,5.413,0,0,0,1.815-.3,6.131,6.131,0,0,0,1.577-.828,5.518,5.518,0,0,0,1.226-1.243,4.8,4.8,0,0,0,.732-1.545Z" fill="#fff"/><path d="M91.231,108.208q-11.349,11.148-22.585,22.186l-11.01-10.833-2.242-2.207q-.615-.6-1.229-1.21l-2.23-2.194-2.218-2.182q-.624-.618-1.253-1.234.861-.864,1.719-1.722c.456-.455.339-.69-.024-1.052q-.906-.9-1.81-1.808,1.059-1.068,2.106-2.131,1.794-1.813,3.579-3.623c.018-.018.035-.035.051-.053Q55.147,99.073,56.2,98L68.75,85.3C70.1,86.617,71.4,87.883,72.7,89.149c.438.429.842.9,1.317,1.282.516.415.385.717-.007,1.116q-6.043,6.147-12.076,12.307l-2.112,2.154c-.016.018-.033.036-.051.053l-1.617,1.649c-.12.122-.221.265-.394.472q1.12,1.111,2.233,2.219l1.224,1.217q1.117,1.109,2.23,2.217c.173.171.346.344.519.516,1.363,1.354,2.74,2.694,4.082,4.069.438.447.763.484,1.23.039q5.355-5.1,10.737-10.166c.039-.035.044-.106.024-.056-1.039-1.1-2.033-2.17-3.075-3.2a.787.787,0,0,0-.747.088c-.863.827-1.665,1.717-2.519,2.552a1.338,1.338,0,0,1-.809.4l-4.04-3.9,8.639-9.58Z" fill="#fff"/><path d="M57.763,108.182q1.734,1.724,3.457,3.436-2.913,2.87-5.826,5.736-1.728-1.7-3.459-3.4c-3.438,3.45-6.851,6.926-10.288,10.376-.71.713-1.434,1.414-2.166,2.117q-1.073-1.113-2.214-2.293c1.488-1.438,2.96-2.811,4.38-4.238q4.044-4.062,8.07-8.144,1.062-1.072,2.128-2.144.847-.849,1.693-1.695c.455-.455.339-.69-.025-1.052q-1.53-1.528-3.058-3.056-5.58-5.576-11.16-11.151c1.213-1.234,2.433-2.479,3.692-3.759q5.552,5.67,11.047,11.287c.724-.733,2.86-2.878,3.582-3.611q2.864,2.925,5.733,5.855c-.722.736-2.855,2.883-3.575,3.619l-1.617,1.649C58.037,107.832,57.936,107.975,57.763,108.182Z" fill="#fff"/><path d="M63.45,113.835q-2.912,2.865-5.814,5.726l-2.242-2.207q-1.728-1.7-3.459-3.4.8-.805,1.6-1.607c.455-.455.339-.69-.025-1.052l-1.668-1.667q-1.794-1.79-3.584-3.582-5.064-5.061-10.128-10.12c-1.036-1.035-1.043-1.017-.044-2.029.4-.408.8-.814,1.206-1.223,1.213-1.234,2.433-2.479,3.692-3.759q5.552,5.67,11.047,11.287,2.871,2.93,5.74,5.863l-1.617,1.649c-.12.122-.221.265-.394.472q1.734,1.724,3.457,3.436Q62.337,112.727,63.45,113.835Z" fill="#fff"/><path d="M62.1,108.332q-1.052,1.035-2.1,2.069-2.917,2.877-5.831,5.743L39.383,130.7l-5.471-5.67c1.488-1.437,2.961-2.81,4.38-4.237,3.4-3.413,6.775-6.849,10.172-10.261q.861-.864,1.719-1.722c.456-.455.339-.69-.024-1.052q-.906-.9-1.81-1.808-6.784-6.777-13.57-13.561c-1.036-1.035-1.044-1.017-.044-2.029,1.615-1.635,3.222-3.279,4.9-4.982,4.843,4.949,9.644,9.851,14.453,14.765l5.74,5.863Z" fill="#fff"/></g></svg>