<svg id="Layer_1" data-name="Layer 1" xmlns="http://www.w3.org/2000/svg" viewBox="0 0 59.11 81.87"><title>logo</title><path d="M10.35,66.18c0,3.16-2.41,5.73-5.17,5.73S0,69.34,0,66.18a5.53,5.53,0,0,1,5.18-5.72C7.94,60.46,10.35,63,10.35,66.18Zm-1.92-.07c0-3-1.27-5.45-3.25-5.45s-3.26,2.45-3.26,5.45,1.29,5.6,3.26,5.6S8.43,69.1,8.43,66.11Z"/><path d="M24,60.75V61c-1.16,0-1.22.67-1.22,1.12V71a1.49,1.49,0,0,0,.23.92l-1.85-1.16V61.92l-3.8,10h-.2L13,61.63v7.84a2,2,0,0,0,1.85,2.22v.22H11v-.22c.74,0,1.88-.45,1.88-2.21V62c0-1-1.14-1-1.4-1v-.26h3.07l3.6,8.65,3.28-8.65Z"/><path d="M36.13,71.71v.2H32.27v-.2c.81,0,1.19-.55.91-1.37l-1-2.57H28.25l-.52,1.34c-.85,2.13.61,2.6,1.33,2.6v.2h-3.8v-.2c1.17,0,1.63-1.22,2-2.06.11-.26,2.87-7.18,2.8-7.31l-.52-1.12a1.17,1.17,0,0,0-.47-.49l2.15.38,3.66,9.2C35.4,71.53,35.53,71.71,36.13,71.71Zm-4-4.17-1.88-4.81-1.89,4.81Z"/><path d="M46.76,62.06V70.6a1,1,0,0,0,1.17,1.11v.2H44v-.2c.6,0,1.16-.14,1.16-1.1V66.44H40.1v4.17c0,1,.58,1.1,1.18,1.1v.2H37.35v-.2a1.05,1.05,0,0,0,1.19-1.11V62.08A1.06,1.06,0,0,0,37.35,61v-.2h3.93V61c-.6,0-1.18.13-1.18,1.11v4.17h5.1V62.05c0-1-.59-1.1-1.19-1.1v-.2H47.9V61A1,1,0,0,0,46.76,62.06Z"/><path d="M59.11,71.71v.2H55.25v-.2c.81,0,1.19-.55.92-1.37l-1-2.57H51.23l-.51,1.34c-.86,2.13.61,2.6,1.32,2.6v.2h-3.8v-.2c1.18,0,1.64-1.22,2-2.06.1-.26,2.87-7.18,2.79-7.31l-.52-1.12a1.17,1.17,0,0,0-.47-.49l2.15.38s3.63,9.13,3.67,9.2C58.38,71.53,58.52,71.71,59.11,71.71Zm-4-4.17L53.2,62.73l-1.89,4.81Z"/><path d="M2.53,81.78V78.45H3v1.31h2V78.45h.41v3.33H4.92V80.15H3v1.63Z"/><path d="M9.53,81.87a1.68,1.68,0,0,1-1.24-.5,1.87,1.87,0,0,1,0-2.5,1.67,1.67,0,0,1,1.24-.49,1.67,1.67,0,0,1,1.24.49,1.84,1.84,0,0,1,0,2.5A1.68,1.68,0,0,1,9.53,81.87Zm0-.39a1.24,1.24,0,0,0,.93-.39,1.34,1.34,0,0,0,.36-1,1.35,1.35,0,0,0-.36-1,1.23,1.23,0,0,0-.93-.38,1.2,1.2,0,0,0-.93.38,1.34,1.34,0,0,0-.37,1,1.3,1.3,0,0,0,.37,1A1.21,1.21,0,0,0,9.53,81.48Z"/><path d="M14.29,81.78v-3h-1.4v-.38h3.22v.38h-1.4v3Z"/><path d="M18,81.78V78.45h2.62v.38H18.43v1h1.34v.38H18.43V81.4h2.34v.38Z"/><path d="M23.12,81.78V78.45h.41v3h2.18v.38Z"/><path d="M34.28,80.88v-.49h-.91V80h1.32v1a1.66,1.66,0,0,1-.63.63,1.72,1.72,0,0,1-.88.23,1.64,1.64,0,0,1-1.23-.5A1.76,1.76,0,0,1,34,78.58a1.62,1.62,0,0,1,.62.57l-.34.25a1.22,1.22,0,0,0-.46-.47,1.29,1.29,0,0,0-.66-.16,1.23,1.23,0,0,0-.93.38,1.37,1.37,0,0,0-.36,1,1.34,1.34,0,0,0,.36,1,1.24,1.24,0,0,0,.93.39,1.3,1.3,0,0,0,.63-.15A1.34,1.34,0,0,0,34.28,80.88Z"/><path d="M37.26,81.78V78.45h1.91a1.12,1.12,0,0,1,.76.24.87.87,0,0,1,.28.68A.89.89,0,0,1,40,80a.92.92,0,0,1-.57.33l.83,1.46h-.46L39,80.32H37.67v1.46Zm.41-1.85h1.47a.65.65,0,0,0,.47-.14.48.48,0,0,0,.16-.4.51.51,0,0,0-.16-.41.63.63,0,0,0-.45-.15H37.67Z"/><path d="M44.15,81.87a1.68,1.68,0,0,1-1.24-.5,1.85,1.85,0,0,1,0-2.5,1.63,1.63,0,0,1,1.23-.49,1.67,1.67,0,0,1,1.24.49,1.75,1.75,0,0,1-1.24,3Zm0-.39a1.24,1.24,0,0,0,.93-.39,1.34,1.34,0,0,0,.37-1,1.36,1.36,0,0,0-.37-1,1.2,1.2,0,0,0-.93-.38,1.23,1.23,0,0,0-.93.38,1.34,1.34,0,0,0-.37,1,1.3,1.3,0,0,0,.37,1A1.24,1.24,0,0,0,44.15,81.48Z"/><path d="M48.66,78.45v2.16a.93.93,0,0,0,.2.69,1.15,1.15,0,0,0,.76.18,1.13,1.13,0,0,0,.76-.18.93.93,0,0,0,.2-.69V78.45H51v2.27a1.07,1.07,0,0,1-.32.88,2.18,2.18,0,0,1-2.1,0,1.1,1.1,0,0,1-.32-.88V78.45Z"/><path d="M53.63,81.78V78.45h1.9a1.15,1.15,0,0,1,.77.24.81.81,0,0,1,.28.66.94.94,0,0,1-.27.7,1,1,0,0,1-.72.27H54v1.46ZM54,79.93h1.47a.65.65,0,0,0,.47-.14.48.48,0,0,0,.16-.4A.51.51,0,0,0,56,79a.63.63,0,0,0-.45-.15H54Z"/><path d="M34.73,41.11A9.82,9.82,0,0,0,37.28,41a2.91,2.91,0,0,0,1.5-.83,2.58,2.58,0,0,1,1-.59c-.07.21-.1.37-.16.52a2.71,2.71,0,0,1-2.09,1.56c-1.24.23-2.51.34-3.77.51-.14,0-.18,0-.17-.15A2.89,2.89,0,0,1,35,39.7a17.2,17.2,0,0,1,4-1.92c.46-.16.92-.33,1.36-.53a2.46,2.46,0,0,0,1.43-2,4.56,4.56,0,0,0,.07-.48,65.68,65.68,0,0,0-12,6.08L30,41a3,3,0,0,1,1.54,1.39,3.82,3.82,0,0,1,.53,2.91,3,3,0,0,1-3.5,2.07,3,3,0,0,1-2.14-2.13,2.58,2.58,0,0,1,.12-1.67c.22-.53.48-1,.74-1.56a.28.28,0,0,1,.37-.15,3.68,3.68,0,0,1,2.08,1.91,2,2,0,0,1,.1,1.24.46.46,0,0,1-.67.27.24.24,0,0,1,0-.17,1.89,1.89,0,0,0-1.32-2.23.18.18,0,0,0-.17,0,2.28,2.28,0,0,0-.42,2.31A2.15,2.15,0,0,0,31.37,45a3.12,3.12,0,0,0-.46-2.17,3.83,3.83,0,0,0-1.4-1.48c-2.45-1.47-4.91-2.93-7.49-4.17-1.05-.5-2.11-1-3.17-1.42a3.11,3.11,0,0,1-.4-.22.69.69,0,0,1-.3-.8,2.62,2.62,0,0,1,.33.09,83.29,83.29,0,0,1,9.59,4.68c.19.11.37.23.56.33a1.19,1.19,0,0,0,1.21,0,64.16,64.16,0,0,1,7.51-3.87l4.12-1.79a4.85,4.85,0,0,0,1.83-1.23A2.9,2.9,0,0,0,44,30.49c-.17-1.19-.4-2.37-.6-3.56a4.55,4.55,0,0,1,.21-2.68,3.81,3.81,0,0,1,1.25-1.56l.1-.05a.28.28,0,0,1,.07.09c.49,1.2,1,2.4,1.48,3.61A2.53,2.53,0,0,1,46.06,29a1,1,0,0,1-.23.24,1.21,1.21,0,0,1-.13-.84,3.74,3.74,0,0,0-.39-3.06,6.09,6.09,0,0,1-.32-.62.46.46,0,0,0-.5-.31c-.22,0-.3.07-.31.27a8.05,8.05,0,0,0-.13,1.28c.05.73.17,1.45.28,2.18s.33,1.68.39,2.53A3.7,3.7,0,0,1,43.16,34a1.28,1.28,0,0,0-.55.91,4.76,4.76,0,0,1-.56,1.68s0,.08-.07.16l.57-.05a12.69,12.69,0,0,0,5.17-2,31.75,31.75,0,0,0,3.13-2.41c.13-.1.26-.22.4-.31a.94.94,0,0,0,.39-1.06A7.25,7.25,0,0,1,52,27.16a3,3,0,0,1,.29-.56,1,1,0,0,1,1.24-.47,1,1,0,0,1,.77,1,5.42,5.42,0,0,1-.8,3c-.25.43-.54.85-.83,1.25a.7.7,0,0,0-.09.79c.51,1,1,2.12,1.5,3.18a3,3,0,0,1-.9,3.83A6.23,6.23,0,0,1,50,40.48c-.33,0-.66.06-1,.09l-.2,0,1.08,1.31c.25.3.25.3.61.12a7.21,7.21,0,0,1,1.86-.65,1.74,1.74,0,0,1,2.1,1.19,1.36,1.36,0,0,1-1.33,1.8,1.11,1.11,0,0,1-1-1.62c0-.11.16-.17.24-.07a1.29,1.29,0,0,1,.26.49c.07.34.17.51.4.55a.69.69,0,0,0,.76-.36.93.93,0,0,0-.36-1.18,1.2,1.2,0,0,0-1-.18c-.67.22-1.33.47-2,.72a17.31,17.31,0,0,1,1.48,4.53c-.32-.07-.61-.12-.88-.19a16.66,16.66,0,0,1-3.37-1.19c-.16-.08-.22,0-.3.11A5.84,5.84,0,0,0,46.57,48a1.1,1.1,0,0,0,.48,1,.87.87,0,0,0,1,.07.67.67,0,0,0,.32-.71c-.06-.26-.27-.33-.49-.36a.9.9,0,0,1-.6-.36,1,1,0,0,1,1.48.11,1.31,1.31,0,0,1-.52,2A1.64,1.64,0,0,1,46,48.57a3,3,0,0,1,.24-1.81,8.43,8.43,0,0,1,.39-.8c.2-.39.16-.56-.19-.81s-.62-.49-.93-.73l-.28-.24c0,.25-.06.46-.07.67a6.51,6.51,0,0,1-1.57,3.92,3,3,0,0,1-3.71.6,32,32,0,0,0-3.19-1.51A.71.71,0,0,0,36,48c-.62.39-1.24.79-1.89,1.13a4.64,4.64,0,0,1-1.86.5,4.43,4.43,0,0,1-.63,0,1.06,1.06,0,0,1-.9-.87,1,1,0,0,1,.56-1.16A6,6,0,0,1,34.62,47a11.69,11.69,0,0,0,1.45,0,.44.44,0,0,0,.3-.14,17.41,17.41,0,0,0,4.82-8.09c.1-.41.14-.84.21-1.28l-.1,0a10.09,10.09,0,0,1-2.61,1.19c-.95.35-1.87.76-2.8,1.17C35.35,40.09,35.08,40.61,34.73,41.11Zm6.69,6.6a1.12,1.12,0,0,1,.3-.65.58.58,0,0,0-.06-.94,1.43,1.43,0,0,0-1.48,0,1.71,1.71,0,0,0,.14,2.74,2.17,2.17,0,0,0,1.73.15,2.82,2.82,0,0,0,1.55-1.27,6.29,6.29,0,0,0,1-3.53c0-.79,0-1.58,0-2.37A2,2,0,0,1,46.1,40a5.49,5.49,0,0,1,1.46-.06c.7,0,1.41,0,2.11,0A5.17,5.17,0,0,0,53,38.51a2.28,2.28,0,0,0,.78-2.07,1.62,1.62,0,0,0-1.87-1.51,1.4,1.4,0,0,0-1.33,1.5.84.84,0,0,0,.52.83c.29.11.46.05.69-.25.11-.13.42-.23.48-.12a.54.54,0,0,1,0,.41.88.88,0,0,1-.55.56,1.28,1.28,0,0,1-1.48-.44,1.79,1.79,0,0,1-.29-1.6,2.05,2.05,0,0,1,1.91-1.5h.86l-.88-2-.12.1a22.25,22.25,0,0,1-3.53,2.74,14.34,14.34,0,0,1-5.74,2.21c-.43.07-.43.09-.5.51s-.14.88-.25,1.3a16.17,16.17,0,0,1-1.92,4.38,21.53,21.53,0,0,1-2.54,3.31c-.11.12-.24.22-.38.35l2,.88v-.68a2,2,0,0,1,2.33-2.11,1.47,1.47,0,0,1,1.27,1A1,1,0,0,1,41.42,47.71Zm8.1-5.24c-.28-.35-.5-.67-.76-1a2.65,2.65,0,0,0-2.22-1,1.5,1.5,0,0,0-1.4,1.64A2.81,2.81,0,0,0,46,44a3.58,3.58,0,0,0,1.1.77,9.37,9.37,0,0,0,0-1.06,3,3,0,0,0-.79-1.6c-.15-.17-.07-.26,0-.37s.2-.21.4-.07a6.53,6.53,0,0,0,1.08.64A3.22,3.22,0,0,0,49.52,42.47Zm-1.8.61s0,.09,0,.16c0,.54,0,1.09,0,1.64a.44.44,0,0,0,.32.46c.59.24,1.18.48,1.78.7.42.15.84.28,1.3.43,0-.12,0-.17,0-.22-.15-.43-.29-.86-.44-1.28s-.36-1-.55-1.45c-.07-.2-.19-.37-.43-.37ZM35.49,47.6h-.58a7.16,7.16,0,0,0-3,.37,1.27,1.27,0,0,0-.41.23.44.44,0,0,0,.21.77,3.11,3.11,0,0,0,1,0A7.32,7.32,0,0,0,35.49,47.6ZM52.21,30.72h.09a1.43,1.43,0,0,1,.14-.2,5.77,5.77,0,0,0,1.23-3.18.55.55,0,0,0-.39-.63.49.49,0,0,0-.58.34,4.18,4.18,0,0,0-.35,1.05C52.27,29,52.26,29.85,52.21,30.72ZM15.9,33.49c0-.33.09-.62.13-.91.11-1,.23-1.93.34-2.9.08-.81.16-1.62.23-2.43.08-1,.17-2,.2-3,0-1.25,0-2.5,0-3.75,0-.18-.09-.17-.22-.14-.56.12-1.11.27-1.68.34a3.76,3.76,0,0,1-3.3-1A2.71,2.71,0,0,1,10.87,18,3,3,0,0,1,11,16.69,2.75,2.75,0,0,1,12.83,15a2.63,2.63,0,0,1,3.14.95c.33.43.62.9.93,1.35.13.18.05.31-.09.44a3,3,0,0,1-1.35.66,3,3,0,0,1-1.64.06,2.17,2.17,0,0,1-.71-.36.44.44,0,0,1,0-.69c.08-.11.16-.09.27,0a5.85,5.85,0,0,0,1,.43,1.64,1.64,0,0,0,1.54-.54.16.16,0,0,0,0-.15,2.33,2.33,0,0,0-2.2-1.55,2.09,2.09,0,0,0-2.17,1.8A2.23,2.23,0,0,0,13,19.77a3.93,3.93,0,0,0,3.38-.22c2.74-1.54,5.48-3.09,8.06-4.9.66-.47,1.3-1,2-1.44a3.08,3.08,0,0,1,.58-.35.7.7,0,0,1,.83.16,1,1,0,0,1-.15.14,89,89,0,0,1-8,5.49c-.46.28-.93.54-1.4.8a1.36,1.36,0,0,0-.75,1.44c.05.79,0,1.57,0,2.36,0,.44,0,.87-.05,1.31-.08,1.16-.16,2.33-.26,3.5s-.2,2-.31,3.05c-.09.8-.2,1.6-.29,2.4a4.94,4.94,0,0,0,.09,2,3,3,0,0,0,1.71,1.93c.79.35,1.61.62,2.43.92a9.78,9.78,0,0,1,2.36,1,3.77,3.77,0,0,1,1.64,2.69.08.08,0,0,1,0,.07.14.14,0,0,1,0,.07l-.63,0c-1.11-.15-2.21-.27-3.31-.45A2.62,2.62,0,0,1,19,40.45c-.1-.18-.2-.22-.37-.11l-.23.12c.24.51.47,1,.72,1.51a20.42,20.42,0,0,0,3.14,4.35l.39.47a.66.66,0,0,0,.66.24,8,8,0,0,1,3.5.12,5.35,5.35,0,0,1,1.23.59,1,1,0,0,1,.31,1.16,1,1,0,0,1-1,.71,5.55,5.55,0,0,1-3.15-.86c-.39-.23-.76-.5-1.12-.76a.7.7,0,0,0-.77-.09c-1.05.5-2.1,1-3.14,1.48a3,3,0,0,1-4-1A6.36,6.36,0,0,1,14,45.2c0-.32-.06-.64-.1-1a.25.25,0,0,0-.09,0c-.42.32-.83.66-1.26,1a.39.39,0,0,0-.13.51c.2.51.4,1,.59,1.52a2.15,2.15,0,0,1,.15,1.2,1.67,1.67,0,0,1-2.35,1.21,1.24,1.24,0,0,1-.66-1.17,1,1,0,0,1,.57-1,1.16,1.16,0,0,1,1,0c.14.06.17.2.05.28a1.4,1.4,0,0,1-.44.22c-.4.08-.58.24-.58.56a.72.72,0,0,0,.62.68,1,1,0,0,0,1.13-1.12,5.79,5.79,0,0,0-.8-2.32,17.4,17.4,0,0,1-4.46,1.45c.08-.34.12-.62.21-.89.36-1.06.74-2.12,1.11-3.17.14-.42.13-.44-.28-.6l-2.18-.84.08.2-.26.11a1,1,0,0,0-.64,1.15.68.68,0,0,0,.81.52.53.53,0,0,0,.39-.43c.07-.24.17-.47.26-.72a1,1,0,0,1-.23,1.67,1.35,1.35,0,0,1-1.88-1,1.72,1.72,0,0,1,2.07-1.9c.51.14,1,.34,1.5.51a3.49,3.49,0,0,1,.34.15c.49.21.48.2.81-.22s.56-.7.85-1.06a1.17,1.17,0,0,0-.71-.22A6.41,6.41,0,0,1,5.77,39a2.93,2.93,0,0,1-1-2,3.39,3.39,0,0,1,.46-2c.51-1,1-2,1.42-3a.61.61,0,0,0-.13-.63c-.32-.48-.66-1-.94-1.47a5.07,5.07,0,0,1-.71-2.55,2.73,2.73,0,0,1,0-.5,1,1,0,0,1,1-.82.92.92,0,0,1,1,.51A5.46,5.46,0,0,1,7.54,29a9.89,9.89,0,0,1-.09,2.24.64.64,0,0,0,.18.58,18.06,18.06,0,0,0,6.86,4.42c.45.15.9.28,1.36.39a2.17,2.17,0,0,0,.51,0c-.12-.37-.24-.72-.34-1.07,0-.18-.06-.36-.1-.54a2.09,2.09,0,0,0-.79-1.15,3.45,3.45,0,0,1-1.31-2.16,4.57,4.57,0,0,1,0-1.65c.2-1.14.43-2.28.61-3.43a3.61,3.61,0,0,0-.31-2.09l-.26-.56-.47.9a7.53,7.53,0,0,0-.76,1.83,2.81,2.81,0,0,0,0,1.44,2,2,0,0,1,0,1.13,1.42,1.42,0,0,1-.16-.11,1.92,1.92,0,0,1-.63-1.31,4.44,4.44,0,0,1,.3-2c.43-1,.86-2,1.28-3a1.37,1.37,0,0,0,.08-.14l.29.2a3.43,3.43,0,0,1,1.31,2.67,12.4,12.4,0,0,1-.28,2.64c-.14.87-.32,1.74-.4,2.62a2.66,2.66,0,0,0,1,2.39ZM20.16,48.1l2-.87L22,47.05c-.66-.8-1.35-1.57-2-2.4a15.17,15.17,0,0,1-2.95-6.82.5.5,0,0,0-.44-.46,21.93,21.93,0,0,1-2.16-.52A18.09,18.09,0,0,1,8,33l-.81-.71-.86,2a8.74,8.74,0,0,1,.89,0A2,2,0,0,1,9.17,36,1.56,1.56,0,0,1,8,37.92a1,1,0,0,1-1.27-1.16,1.27,1.27,0,0,1,.65.31.56.56,0,0,0,.93,0,1.48,1.48,0,0,0-.15-1.7,1.71,1.71,0,0,0-2.66.47,2.37,2.37,0,0,0,.61,2.69,5.6,5.6,0,0,0,3.65,1.4c.77,0,1.54,0,2.31,0a3.55,3.55,0,0,1,.8,0,2.19,2.19,0,0,1,1.72,2.46c0,.94,0,1.89,0,2.83a5.16,5.16,0,0,0,1.21,3,2.38,2.38,0,0,0,2.76.79,1.63,1.63,0,0,0,1-1.69,1.44,1.44,0,0,0-1.23-1.37,1,1,0,0,0-1,.35.51.51,0,0,0,.14.82c.07.06.18.12.19.2a.94.94,0,0,1,0,.37s-.12.07-.18.06a1,1,0,0,1-.85-.83,1.28,1.28,0,0,1,.57-1.32,1.9,1.9,0,0,1,1.62-.2,2.16,2.16,0,0,1,1.44,2.35C20.18,47.83,20.17,48,20.16,48.1ZM12,44.83c.23-.15.44-.29.65-.45a3.1,3.1,0,0,0,1.29-2,1.54,1.54,0,0,0-1.16-1.82,2.25,2.25,0,0,0-1.28.13,3.61,3.61,0,0,0-1.63,1.41l-.26.4a8.44,8.44,0,0,0,1.13,0,3.25,3.25,0,0,0,1.6-.78c.06,0,.17-.08.22,0a2.34,2.34,0,0,1,.37.29A3.18,3.18,0,0,0,12,44.83Zm11.6-4a4.19,4.19,0,0,0-1.75-1.25c-1.34-.51-2.67-1.06-4-1.59h-.13l.47,2,.5-.19a.2.2,0,0,1,.15,0,4.53,4.53,0,0,1,.84.52,3.3,3.3,0,0,0,1.48.8c.54.09,1.08.14,1.62.18C23.49,41.31,23.29,41.37,23.62,40.79ZM8.07,46.48l.16,0,1.58-.58L11,45.4a.44.44,0,0,0,.33-.5,4,4,0,0,1,0-.69c0-.37.08-.73.12-1.12h-.23c-.51,0-1,0-1.54,0a.56.56,0,0,0-.59.37,14,14,0,0,0-1,2.87A.81.81,0,0,0,8.07,46.48Zm15.65,1.16.37.25A6.45,6.45,0,0,0,26.65,49a1.14,1.14,0,0,0,1-.23.35.35,0,0,0,0-.57,1.52,1.52,0,0,0-.41-.24,5.7,5.7,0,0,0-2.65-.39C24.31,47.58,24,47.61,23.72,47.64ZM6.84,30.77c0-.49,0-.94.06-1.39a4.77,4.77,0,0,0-.4-2.14.84.84,0,0,0-.43-.44c-.31-.14-.54,0-.58.31a2.42,2.42,0,0,0,0,.71A6.63,6.63,0,0,0,6.84,30.77ZM8.69,7.08A16.35,16.35,0,0,1,7.24,2.63l1.15.25A15.63,15.63,0,0,1,11.5,4c.16.08.22,0,.29-.11.19-.45.41-.88.59-1.33a1.84,1.84,0,0,0,.16-.72A1.33,1.33,0,0,0,12.2,1a1,1,0,0,0-.81-.3.69.69,0,0,0-.66.7.45.45,0,0,0,.42.46,1.15,1.15,0,0,1,.7.39,1,1,0,0,1-1.67-.44,1.26,1.26,0,0,1,.3-1.34A1.36,1.36,0,0,1,11.92.07,1.69,1.69,0,0,1,13.12,2a6.17,6.17,0,0,1-.62,1.92c-.11.22-.2.45-.27.62a5.47,5.47,0,0,1,.61.36c.35.27.69.57,1,.85.05-.45.08-.91.15-1.36A6,6,0,0,1,15.58,1,3,3,0,0,1,19.13.47c1,.5,2.08,1,3.11,1.47a.75.75,0,0,0,.9-.11A7.64,7.64,0,0,1,26,.39,4.41,4.41,0,0,1,27.51.27a1,1,0,0,1,.88.84,1,1,0,0,1-.5,1.15,6.31,6.31,0,0,1-3.34.63c-.5,0-1,0-1.5,0a.56.56,0,0,0-.34.17,17.29,17.29,0,0,0-4.78,8.05c-.11.46-.14.94-.21,1.41,0,.07,0,.14,0,.2a.35.35,0,0,1-.37.37,11.33,11.33,0,0,0-3.24.71A15.9,15.9,0,0,0,10,16.08c-.82.63-1.59,1.32-2.37,2a.69.69,0,0,0-.19.46c0,.38.08.76.1,1.14a6.85,6.85,0,0,1-.46,3.17,2.2,2.2,0,0,1-.27.47,1.09,1.09,0,0,1-2-.63,5.62,5.62,0,0,1,.79-2.94c.25-.44.55-.86.84-1.27a.72.72,0,0,0,.08-.83c-.51-1-1-2.1-1.49-3.15A3,3,0,0,1,6,10.67,6.32,6.32,0,0,1,9.31,9.36c.31,0,.63,0,1-.06L10,8.89c-.27-.34-.54-.67-.8-1a.28.28,0,0,0-.37-.12c-.46.17-.91.36-1.37.51a4.25,4.25,0,0,1-1,.26,1.57,1.57,0,0,1-1.54-.72,1.51,1.51,0,0,1-.14-1.63,1.32,1.32,0,0,1,1.41-.66,1.09,1.09,0,0,1,.62,1.8,3,3,0,0,1-.33-.64c-.09-.37-.18-.51-.47-.53a.69.69,0,0,0-.74.48,1,1,0,0,0,1,1.25,4.93,4.93,0,0,0,2-.53A4.3,4.3,0,0,0,8.69,7.08Zm9-4.91a1.07,1.07,0,0,1-.3.63.57.57,0,0,0,0,.91,1.38,1.38,0,0,0,1.71-.13A1.69,1.69,0,0,0,18.8,1a2.29,2.29,0,0,0-2.55.27A4.64,4.64,0,0,0,15,3a6.17,6.17,0,0,0-.38,2.37c-.05.73,0,1.47,0,2.2a2.76,2.76,0,0,1-.42,1.56,2.29,2.29,0,0,1-2,.9c-.93,0-1.86,0-2.79,0a4.9,4.9,0,0,0-3,1.13,2.36,2.36,0,0,0-1,2.26,1.67,1.67,0,0,0,2.72,1.19A1.34,1.34,0,0,0,8.43,13a.64.64,0,0,0-1.11-.11.78.78,0,0,1-.58.23A1,1,0,0,1,7.57,12a1.24,1.24,0,0,1,1,.25,1.73,1.73,0,0,1,.52,1.87,2,2,0,0,1-1.91,1.49H6.37l.85,2,.13-.1a28.26,28.26,0,0,1,3.37-2.6,14.07,14.07,0,0,1,5.73-2.28,1.37,1.37,0,0,0,1-.56l-.27,0c0-.11,0-.19,0-.28a11.78,11.78,0,0,1,.72-2.53A19.7,19.7,0,0,1,21.83,3c.1-.11.19-.25.31-.4l-2-.85c0,.36,0,.67,0,1A2,2,0,0,1,18,4.58a1.41,1.41,0,0,1-1.43-1.53A1,1,0,0,1,17.69,2.17ZM12,5.09a2.33,2.33,0,0,0,.1,1.48,9.7,9.7,0,0,0,.71,1.2c.08.13.11.21,0,.31a.52.52,0,0,0-.11.1c-.09.13-.18.13-.31,0a4.62,4.62,0,0,0-.64-.45,2.79,2.79,0,0,0-2.12-.35c.18.25.34.49.51.71a3.16,3.16,0,0,0,1.94,1.23A1.55,1.55,0,0,0,14,7.78a2.94,2.94,0,0,0-.8-1.88A2.74,2.74,0,0,0,12,5.09ZM8.08,3.43c0,.07,0,.09,0,.11a13.85,13.85,0,0,0,1.07,3,.41.41,0,0,0,.41.26h1.63c.19,0,.22-.07.22-.23,0-.53,0-1.06,0-1.6a.39.39,0,0,0-.3-.42L9.3,3.88ZM6.88,19s-.07.06-.08.08a7.84,7.84,0,0,0-1.19,2.34,2.92,2.92,0,0,0-.14,1.31.43.43,0,0,0,.31.38A.44.44,0,0,0,6.32,23a1.94,1.94,0,0,0,.22-.4,5.22,5.22,0,0,0,.39-1.95C6.94,20.08,6.9,19.56,6.88,19ZM23.53,2.28h1.09a5.9,5.9,0,0,0,1.78-.14c.35-.1.71-.21,1.05-.34a.44.44,0,0,0,.33-.39c0-.2-.13-.29-.27-.39a1.14,1.14,0,0,0-1-.14A8.6,8.6,0,0,0,23.53,2.28Zm25.25,7c.6.07,1.21.12,1.81.23A5.56,5.56,0,0,1,53.5,11,3.16,3.16,0,0,1,54,14.69c-.55,1-1,2.11-1.51,3.17-.11.23,0,.41.14.59.32.49.67,1,1,1.48a5,5,0,0,1,.7,2.69c0,.63-.27,1-.8,1.13a1,1,0,0,1-1.19-.48,4.89,4.89,0,0,1-.71-2.49c0-.69,0-1.39.09-2.09a.85.85,0,0,0-.29-.71,19.42,19.42,0,0,0-5.26-3.71,13.26,13.26,0,0,0-3.13-1c-.37-.07-.75-.09-1.12-.15s-.4-.16-.44-.49A12.15,12.15,0,0,0,40,8a20.85,20.85,0,0,0-3.3-4.61,2.2,2.2,0,0,1-.2-.23.83.83,0,0,0-.84-.29,7.78,7.78,0,0,1-3.62-.2,3.72,3.72,0,0,1-.92-.44,1,1,0,0,1-.44-1.08A1,1,0,0,1,31.49.3a4.52,4.52,0,0,1,1,0,6.39,6.39,0,0,1,2.55,1c.32.18.64.37,1,.57a.88.88,0,0,0,.89,0c1-.5,2.06-1,3.09-1.48a3,3,0,0,1,4,1.17,6.38,6.38,0,0,1,1.11,3.06c0,.31.07.62.11,1l.14-.06,1.18-.93a.4.4,0,0,0,.14-.59c-.18-.43-.38-.85-.52-1.29a2.87,2.87,0,0,1-.12-1.59A1.64,1.64,0,0,1,48,.06a1.33,1.33,0,0,1,.89,1.73,1.09,1.09,0,0,1-1.72.38,3.72,3.72,0,0,1,.64-.31c.38-.09.54-.22.53-.55a.69.69,0,0,0-.61-.66,1,1,0,0,0-1.16,1,1.42,1.42,0,0,0,0,.5c.21.64.43,1.27.65,1.9a.9.9,0,0,0,0,.09,17.28,17.28,0,0,1,4.51-1.47c0,.22-.07.43-.11.62a16.65,16.65,0,0,1-1.23,3.58c-.09.18-.05.26.11.34a5.37,5.37,0,0,0,2,.75,1.12,1.12,0,0,0,1-.44.89.89,0,0,0,.15-1,.69.69,0,0,0-.74-.38c-.23,0-.34.17-.43.51a5.43,5.43,0,0,1-.27.66,1.06,1.06,0,0,1-.3-1,1.12,1.12,0,0,1,1.45-.81,1.4,1.4,0,0,1,.8,2.08,1.72,1.72,0,0,1-2.15.81c-.64-.2-1.25-.46-1.87-.71-.15-.06-.22-.05-.32.08-.35.46-.73.89-1.09,1.34Zm-9.85-7.5-2,.87a.65.65,0,0,0,.09.11c.54.64,1.09,1.25,1.61,1.9a16,16,0,0,1,2.82,5.16c.24.79.38,1.61.56,2.42,0,.14.08.23.24.25a11.83,11.83,0,0,1,2.69.63,19.25,19.25,0,0,1,5.94,3.57c.33.27.64.56,1,.86l.86-2H52a2.11,2.11,0,0,1-2-1.5,1.72,1.72,0,0,1,.71-2,1.09,1.09,0,0,1,1.65.62c0,.09,0,.24,0,.28a.33.33,0,0,1-.44,0c-.07-.07-.1-.17-.17-.23s-.26-.2-.38-.19a.66.66,0,0,0-.65.44,1.87,1.87,0,0,0-.07.81A1.43,1.43,0,0,0,52.06,15a1.67,1.67,0,0,0,1.73-1.77,2.43,2.43,0,0,0-.92-1.94A5.2,5.2,0,0,0,49.4,10c-1,0-2,0-2.93-.05a2.1,2.1,0,0,1-2-2.31c0-.89,0-1.79,0-2.68a5.49,5.49,0,0,0-1-3A2.51,2.51,0,0,0,41.24.74a1.66,1.66,0,0,0-1.5.88,1.61,1.61,0,0,0,.12,1.77,1.32,1.32,0,0,0,1.74.4.59.59,0,0,0,0-1,.39.39,0,0,1-.18-.2c-.08-.18,0-.42.21-.41a1.09,1.09,0,0,1,.88.81,1.35,1.35,0,0,1-1,1.55,2,2,0,0,1-2.65-1.94ZM49.46,7.36c-.35,0-.66,0-1,0a3.3,3.3,0,0,0-1.72.8c-.05,0-.15.11-.17.09a1.52,1.52,0,0,1-.34-.33s.07-.16.12-.23l.34-.48A2.89,2.89,0,0,0,47.09,5c-.23.16-.45.31-.65.47a3,3,0,0,0-1.29,2A1.52,1.52,0,0,0,46.3,9.31a2.2,2.2,0,0,0,1,0A3.38,3.38,0,0,0,49.46,7.36Zm1.6-3.87c-.05,0-.06,0-.08,0A14.17,14.17,0,0,0,47.9,4.58a.34.34,0,0,0-.19.35c0,.55,0,1.1,0,1.64,0,.19.06.22.23.22h1.65a.37.37,0,0,0,.4-.27l.9-2.39C51,3.92,51,3.7,51.06,3.49ZM35.34,2.28V2.19l-.63-.41A5.67,5.67,0,0,0,32.53.89a1.57,1.57,0,0,0-.86,0,.43.43,0,0,0-.17.77.84.84,0,0,0,.32.22,9.32,9.32,0,0,0,1.54.37A18.66,18.66,0,0,0,35.34,2.28ZM52.27,19.19l0,.58a6.07,6.07,0,0,0,.29,2.68,1.72,1.72,0,0,0,.32.54.42.42,0,0,0,.76-.21,2.55,2.55,0,0,0,0-.78A5.72,5.72,0,0,0,52.27,19.19ZM20.41,15.28a11.06,11.06,0,0,0,2.87-1.69c.61-.5,1.18-1,1.78-1.55a3.11,3.11,0,0,1,1.7-.73,3.61,3.61,0,0,1,2.49.76c1.25.9,2.48,1.84,3.73,2.74a65.18,65.18,0,0,0,7.39,4.78,1,1,0,0,1,.53.76c.05.37.07.75.09,1.13,0,.72.06,1.44.08,2.16,0,1.23.09,2.47.14,3.7,0,.53,0,1.06.1,1.59.07.74.16,1.48.25,2.21,0,.37.09.73.14,1.1a.8.8,0,0,0,.62-.92c0-.43-.09-.86-.13-1.28-.1-.93-.23-1.85-.28-2.77-.07-1.28-.09-2.55-.09-3.82,0-1.5,0-3,0-4.48a3.69,3.69,0,0,1,1.4-2.89,2.17,2.17,0,0,1,1.81-.53A2,2,0,0,1,46.85,18,2.35,2.35,0,0,1,44.5,20a.54.54,0,0,1-.55-.56A1.75,1.75,0,0,1,44.49,18a4.33,4.33,0,0,1,.77-.48c.08-.05.21-.05.17-.2a.63.63,0,0,0-.54-.41,1.18,1.18,0,0,0-.82.44A3.73,3.73,0,0,0,43.22,19a2.81,2.81,0,0,0,0,1.32.32.32,0,0,0,.35.29c.58,0,1.16-.07,1.73-.16a2.67,2.67,0,0,0,2.23-1.93,2.71,2.71,0,0,0-.63-2.89,3,3,0,0,0-4.32.05A5.26,5.26,0,0,0,41.25,18c-.1.34-.22.68-.34,1.05a85.29,85.29,0,0,1-11-7.38,3.35,3.35,0,0,1,2.19-.27,4.32,4.32,0,0,1,1.59,1c1,.78,1.93,1.58,2.93,2.31a3.66,3.66,0,0,0,2.73.77,3.24,3.24,0,0,0,1.14-.37c0-.06-.06-.11-.1-.16l-1.53-2.08A4.83,4.83,0,0,0,36.55,11a1.9,1.9,0,0,0-1-.08,3.43,3.43,0,0,0-.34.06l0,.08c.39.19.76.4,1.15.55a3.25,3.25,0,0,1,1.51,1.08c.34.47.62,1,.91,1.48.09.14.15.3.25.49a3.4,3.4,0,0,1-1.72-.42A32.17,32.17,0,0,1,34,11.67a3.92,3.92,0,0,0-4.22-.8,1.82,1.82,0,0,1-1.3,0,4,4,0,0,0-2.4-.15,5.39,5.39,0,0,0-1.9,1.13c-1.06.83-2.13,1.65-3.2,2.47a3.59,3.59,0,0,1-1.28.43,2.48,2.48,0,0,1-.17-.38.26.26,0,0,1,0-.21c.27-.43.54-.87.84-1.28a3.19,3.19,0,0,1,2-1.32,1.71,1.71,0,0,0,.78-.52,1.43,1.43,0,0,0-.29-.1,2.35,2.35,0,0,0-2.3.73c-.69.78-1.32,1.61-2,2.42-.26.32-.5.64-.78,1A3.06,3.06,0,0,0,20.41,15.28Zm8.89,5.5a6.17,6.17,0,0,0-2.39.5,6.14,6.14,0,0,0-.59,11c1.24.64,4.29,1,4.63.49l-.12,0a12.38,12.38,0,0,1-1.61,0,4.92,4.92,0,0,1-3.77-2.44,7.41,7.41,0,0,1-.79-5.76,4.49,4.49,0,0,1,4.1-3.62l.55-.07Zm.57.09c.18,0,.36,0,.54.08a5,5,0,0,1,3.8,3.11,8,8,0,0,1,.32,5.15,4.49,4.49,0,0,1-2.94,3.34,1.48,1.48,0,0,0-.13.08l0,.06.28-.07a6,6,0,0,0,3.14-2.35,6.47,6.47,0,0,0,1-4.73,5.29,5.29,0,0,0-1.64-3.12,6.59,6.59,0,0,0-4.18-1.64.86.86,0,0,0-.22,0ZM45.05,39.05a1.35,1.35,0,0,1-1.36,1.37,1.37,1.37,0,0,1,0-2.73A1.34,1.34,0,0,1,45.05,39.05Zm-1.37-.72a.69.69,0,0,0-.7.75.71.71,0,0,0,.72.71.72.72,0,0,0,.71-.74A.69.69,0,0,0,43.68,38.33Zm-28.25-.64a1.37,1.37,0,1,1,0,2.73,1.37,1.37,0,1,1,0-2.73Zm0,.64a.7.7,0,0,0-.72.73.73.73,0,0,0,.74.73.75.75,0,0,0,.72-.73A.72.72,0,0,0,15.42,38.33ZM14.06,10.81a1.36,1.36,0,0,1,1.36-1.36,1.4,1.4,0,0,1,1.38,1.36,1.42,1.42,0,0,1-1.38,1.38A1.4,1.4,0,0,1,14.06,10.81Zm1.38-.72a.7.7,0,0,0-.74.71.73.73,0,0,0,.72.75.76.76,0,0,0,.74-.74A.72.72,0,0,0,15.44,10.09Zm29.61.73a1.37,1.37,0,1,1-2.73,0,1.37,1.37,0,0,1,2.73,0ZM43,10.8a.7.7,0,0,0,.7.75.72.72,0,0,0,.73-.73.69.69,0,0,0-.7-.73A.68.68,0,0,0,43,10.8Z"/></svg>