<svg xmlns="http://www.w3.org/2000/svg" width="144.502" height="111" viewBox="0 0 144.502 111"><g transform="translate(-570 -3679)"><g transform="translate(506.796 1503.949)"><path d="M135.45,2175.051a1.221,1.221,0,0,0-.62.166l-28.515,16.46a1.241,1.241,0,0,0-.621,1.075v12.122l-7.942-7.942-9.642-9.643a1.239,1.239,0,0,0-1.753,0L63.566,2210.08a1.241,1.241,0,0,0,0,1.753l22.791,22.8,10.519,10.518a1.249,1.249,0,0,0,1.753,0l.882-.88,3.681,3.685a3.694,3.694,0,0,0,.7,4.209l9.642,9.642a4.959,4.959,0,0,0,3.507,8.465c.112,0,.222-.026.335-.034a4.917,4.917,0,0,0,4.925,5.293c.111,0,.222-.026.333-.033-.006.114-.033.225-.033.338a4.952,4.952,0,0,0,4.959,4.955c.111,0,.225-.027.339-.034a4.944,4.944,0,0,0,8.432,3.845,4.938,4.938,0,0,0,8.431-3.841c.111.008.22.035.334.035a4.961,4.961,0,0,0,4.959-4.96c0-.113-.021-.224-.029-.338.112.007.218.033.329.033a4.909,4.909,0,0,0,4.925-5.288c.113.007.226.029.34.029a4.958,4.958,0,0,0,3.506-8.465l7.889-7.89a3.677,3.677,0,0,0,.717-4.227l3.661-3.666.881.881a1.25,1.25,0,0,0,1.754,0l10.519-10.519,0,0,22.791-22.791a1.243,1.243,0,0,0,0-1.754l-22.8-22.785a1.241,1.241,0,0,0-1.753,0l-9.642,9.642-7.943,7.942v-13.88a1.24,1.24,0,0,0-.619-1.075l-28.515-16.46a1.224,1.224,0,0,0-.62-.166m0,2.669,25.9,14.955-12.955,7.477a1.239,1.239,0,0,0,.625,2.314,1.22,1.22,0,0,0,.619-.164l13.082-7.555v13.915a1.209,1.209,0,0,0,.072.372l-2.8,2.8-2.295,2.3a1.259,1.259,0,0,0,.115-.518,1.263,1.263,0,1,0-.721,1.119l-7.617,7.618a1.24,1.24,0,0,0,0,1.757l.875.878-4.343,4.348c-.008.009-.01.013-.016.019a.213.213,0,0,1-.024.016l-3.142,3.143H136.84l-1.39-1.4a1.228,1.228,0,0,0-.877-.358h-6.5l-3.143-3.149c-.007-.007-.016-.007-.024-.014s-.007-.013-.014-.02l-4.344-4.348.876-.877a1.236,1.236,0,0,0,.363-.876,1.257,1.257,0,0,0-.363-.882l-6.117-6.117a1.236,1.236,0,0,0-1.748-1.747l-5.38-5.381v-12.3l13.081,7.551a1.241,1.241,0,1,0,1.245-2.146l-13.217-7.626Zm0,4.906a3.719,3.719,0,1,0,3.719,3.719,3.724,3.724,0,0,0-3.719-3.719m0,2.479a1.24,1.24,0,1,1-1.24,1.24,1.241,1.241,0,0,1,1.24-1.24m-6.848,2.819a1.238,1.238,0,1,0,.647,2.311l0,0a1.237,1.237,0,0,0-.649-2.309m13.623,0a1.241,1.241,0,0,0-.559,2.314h0a1.24,1.24,0,0,0,1.238-2.149h0a1.242,1.242,0,0,0-.679-.165m-54.991,2,18.825,18.824,2.213,2.217L87.234,2232l-12.273-12.276h0l-8.765-8.766Zm37.077.479a1.24,1.24,0,1,0,.645,2.316l0,0a1.24,1.24,0,0,0,.456-1.693v0a1.239,1.239,0,0,0-1.105-.619m22.22,0a1.234,1.234,0,1,0,.679.161l0,0a1.241,1.241,0,0,0-.677-.159m37.135,1.273,21.042,21.042-8.771,8.767-12.271,12.276-21.038-21.043,12.272-12.271Zm-48.216.717a1.241,1.241,0,0,0-1.24,1.24v4.185h-.745a6,6,0,1,0,0,11.99h.745v7h-5.545a1.24,1.24,0,1,0,0,2.479h5.545v5.574a1.24,1.24,0,0,0,2.48,0v-5.574h.775a5.971,5.971,0,0,0,.242-11.938,1.057,1.057,0,0,0-.121-.025h-.9v-7.031h5.516a1.24,1.24,0,1,0,0-2.479H136.69v-4.185a1.241,1.241,0,0,0-1.24-1.24m-15.434.484a1.259,1.259,0,0,0-.592.165,1.241,1.241,0,0,0-.456,1.694v0a1.241,1.241,0,0,0,1.693.456h0a1.241,1.241,0,0,0,.457-1.694l0,0a1.24,1.24,0,0,0-1.1-.62m30.815,0a1.241,1.241,0,1,0,.678.165,1.238,1.238,0,0,0-.678-.165m-17.366,7.42h.745v7.031h-.745a3.516,3.516,0,1,1,0-7.031m-19.039,2.169a1.24,1.24,0,1,0,1.24,1.24,1.24,1.24,0,0,0-1.24-1.24m42.154,0a1.24,1.24,0,1,0,1.239,1.24,1.241,1.241,0,0,0-1.239-1.24m-42.154,4.96a1.239,1.239,0,1,0,1.24,1.24,1.239,1.239,0,0,0-1.24-1.24m42.154,0a1.239,1.239,0,1,0,1.239,1.24,1.24,1.24,0,0,0-1.239-1.24m-19.89,2.382h.775a3.5,3.5,0,0,1,0,7h-.775Zm-26.665,2.91,8.77,8.772-.693.692a1.137,1.137,0,0,0-.221.146L98.6,2241.613a1.142,1.142,0,0,0-.146.212l-.7.7-8.765-8.766Zm50.85,1.754,21.038,21.038-8.766,8.766-.7-.693a1.093,1.093,0,0,0-.146-.218l-19.284-19.285a1.287,1.287,0,0,0-.223-.15l-.693-.692Zm-42.085,10.524,3.472,3.467-17.531,17.531-3.467-3.467Zm33.319,1.753,17.532,17.531-3.473,3.468-17.531-17.531Zm-54.41,3.24a3.714,3.714,0,1,0,2.63,1.085,3.707,3.707,0,0,0-2.63-1.085m26.351.266,2.635,2.63a1.235,1.235,0,0,0,.876.363h6.5l.513.513-11.216,11.216a1.136,1.136,0,0,0-.218.141,1.241,1.241,0,0,0,0,1.753c.008.008.022.017.03.024s0,.009.009.015.026.016.039.029a8.665,8.665,0,0,0,12.2-.063l2.63-2.63,19.323,19.324a2.473,2.473,0,0,1,0,3.5,2.54,2.54,0,0,1-3.507,0l-7.927-7.923a1.24,1.24,0,0,0-1.753,1.753l1.753,1.753,6.174,6.17a2.483,2.483,0,0,1-3.511,3.511l-6.174-6.175-1.753-1.753a1.24,1.24,0,0,0-1.753,1.753l1.753,1.754,6.174,6.173a2.478,2.478,0,0,1,0,3.507,2.54,2.54,0,0,1-3.506,0l-6.175-6.174-1.753-1.754a1.24,1.24,0,0,0-1.753,1.754l7.928,7.928a2.481,2.481,0,0,1-3.512,3.506l-.875-.878-3.5-3.5-1.753-1.753L121.425,2266.2v-.009h-.005l-5.254-5.256h0v0l-10.519-10.519a1.24,1.24,0,0,1,0-1.753Zm49.15,1.487a3.714,3.714,0,1,0,2.63,1.085,3.713,3.713,0,0,0-2.63-1.085m-26.35.265,18.413,18.409a1.24,1.24,0,0,1,.363.877,1.261,1.261,0,0,1-.367.877l-7.89,7.889-17.57-17.571.876-.876a1.24,1.24,0,0,0-1.753-1.754l-5.26,5.26a6.375,6.375,0,0,1-7.748.8L136.84,2235h6.5a1.251,1.251,0,0,0,.877-.362Zm-49.151.456a1.24,1.24,0,1,1-.876.364,1.239,1.239,0,0,1,.876-.364m75.5,1.753a1.241,1.241,0,1,1-.876.364,1.239,1.239,0,0,1,.876-.364m-57.916,29.349,3.506,3.506a2.479,2.479,0,1,1-3.506-3.506m5.265,5.259,3.506,3.511a2.481,2.481,0,0,1-3.506-3.511m5.259,5.263,3.506,3.507a2.54,2.54,0,0,1-3.506,0,2.478,2.478,0,0,1,0-3.507m5.259,5.261,3.506,3.506a2.542,2.542,0,0,1-3.506,0,2.481,2.481,0,0,1,0-3.506" fill="#931837"/></g><g transform="translate(506.796 1503.949)"><path d="M135.45,2175.051a1.221,1.221,0,0,0-.62.166l-28.515,16.46a1.241,1.241,0,0,0-.621,1.075v12.122l-7.942-7.942-9.642-9.643a1.239,1.239,0,0,0-1.753,0L63.566,2210.08a1.241,1.241,0,0,0,0,1.753l22.791,22.8,10.519,10.518a1.249,1.249,0,0,0,1.753,0l.882-.88,3.681,3.685a3.694,3.694,0,0,0,.7,4.209l9.642,9.642a4.959,4.959,0,0,0,3.507,8.465c.112,0,.222-.026.335-.034a4.917,4.917,0,0,0,4.925,5.293c.111,0,.222-.026.333-.033-.006.114-.033.225-.033.338a4.952,4.952,0,0,0,4.959,4.955c.111,0,.225-.027.339-.034a4.944,4.944,0,0,0,8.432,3.845,4.938,4.938,0,0,0,8.431-3.841c.111.008.22.035.334.035a4.961,4.961,0,0,0,4.959-4.96c0-.113-.021-.224-.029-.338.112.007.218.033.329.033a4.909,4.909,0,0,0,4.925-5.288c.113.007.226.029.34.029a4.958,4.958,0,0,0,3.506-8.465l7.889-7.89a3.677,3.677,0,0,0,.717-4.227l3.661-3.666.881.881a1.25,1.25,0,0,0,1.754,0l10.519-10.519,0,0,22.791-22.791a1.243,1.243,0,0,0,0-1.754l-22.8-22.785a1.241,1.241,0,0,0-1.753,0l-9.642,9.642-7.943,7.942v-13.88a1.24,1.24,0,0,0-.619-1.075l-28.515-16.46a1.224,1.224,0,0,0-.62-.166m0,2.669,25.9,14.955-12.955,7.477a1.239,1.239,0,0,0,.625,2.314,1.22,1.22,0,0,0,.619-.164l13.082-7.555v13.915a1.209,1.209,0,0,0,.072.372l-2.8,2.8-2.295,2.3c.071-.158-8.223,8.219-8.223,8.219a1.24,1.24,0,0,0,0,1.757l.875.878-4.343,4.348c-.008.009-.01.013-.016.019a.213.213,0,0,1-.024.016l-3.142,3.143H136.84l-1.39-1.4a1.228,1.228,0,0,0-.877-.358h-6.5l-3.143-3.149c-.007-.007-.016-.007-.024-.014s-.007-.013-.014-.02l-4.344-4.348.876-.877a1.236,1.236,0,0,0,.363-.876,1.257,1.257,0,0,0-.363-.882c-5.9-6.34-13.245-13.245-13.245-13.245v-12.3l13.081,7.551a1.241,1.241,0,1,0,1.245-2.146l-13.217-7.626Zm-48.216,12.2,18.825,18.824,2.213,2.217L87.234,2232l-12.273-12.276h0l-8.765-8.766Zm96.432,1.752,21.042,21.042-8.771,8.767-12.271,12.276-21.038-21.043,12.272-12.271Zm-73.641,21.042,8.77,8.772-.693.692a1.137,1.137,0,0,0-.221.146L98.6,2241.613a1.142,1.142,0,0,0-.146.212l-.7.7-8.765-8.766Zm50.85,1.754,21.038,21.038-8.766,8.766-.7-.693a1.093,1.093,0,0,0-.146-.218l-19.284-19.285a1.287,1.287,0,0,0-.223-.15l-.693-.692Zm-42.085,10.524,3.472,3.467-17.531,17.531-3.467-3.467Zm33.319,1.753,17.532,17.531-3.473,3.468-17.531-17.531Zm-28.059,3.506,2.635,2.63a1.235,1.235,0,0,0,.876.363h6.5l.513.513-11.216,11.216a1.136,1.136,0,0,0-.218.141,1.241,1.241,0,0,0,0,1.753c.008.008.022.017.03.024s0,.009.009.015.026.016.039.029a8.665,8.665,0,0,0,12.2-.063l2.63-2.63,19.323,19.324a2.473,2.473,0,0,1,0,3.5,2.54,2.54,0,0,1-3.507,0l-7.927-7.923a1.24,1.24,0,0,0-1.753,1.753l1.753,1.753,6.174,6.17a2.483,2.483,0,0,1-3.511,3.511l-6.174-6.175-1.753-1.753a1.24,1.24,0,0,0-1.753,1.753l1.753,1.754,6.174,6.173a2.478,2.478,0,0,1,0,3.507,2.54,2.54,0,0,1-3.506,0l-6.175-6.174-1.753-1.754a1.24,1.24,0,0,0-1.753,1.754l7.928,7.928a2.481,2.481,0,0,1-3.512,3.506l-.875-.878-3.5-3.5-1.753-1.753L121.425,2266.2v-.009h-.005l-5.254-5.256h0v0l-10.519-10.519a1.24,1.24,0,0,1,0-1.753Zm22.8,1.752,18.413,18.409a1.24,1.24,0,0,1,.363.877,1.261,1.261,0,0,1-.367.877l-7.89,7.889-17.57-17.571.876-.876a1.24,1.24,0,0,0-1.753-1.754l-5.26,5.26a6.375,6.375,0,0,1-7.748.8L136.84,2235h6.5a1.251,1.251,0,0,0,.877-.362Zm-31.566,31.558,3.506,3.506a2.479,2.479,0,1,1-3.506-3.506m5.265,5.259,3.506,3.511a2.481,2.481,0,0,1-3.506-3.511m5.259,5.263,3.506,3.507a2.54,2.54,0,0,1-3.506,0,2.478,2.478,0,0,1,0-3.507m5.259,5.261,3.506,3.506a2.542,2.542,0,0,1-3.506,0,2.481,2.481,0,0,1,0-3.506"/></g></g></svg>