<svg xmlns="http://www.w3.org/2000/svg" width="50" height="50" viewBox="0 0 50 50"><g transform="translate(0 0.002)"><g transform="translate(0 -0.002)"><path d="M44.955,24a1.069,1.069,0,0,1-.756-.31L22.982,2.431,1.785,22.707a1.079,1.079,0,0,1-1.478,0,.97.97,0,0,1,0-1.414l21.955-21A.952.952,0,0,1,23.013,0a1.068,1.068,0,0,1,.743.31l21.955,22a.968.968,0,0,1,.2,1.083A1.048,1.048,0,0,1,44.955,24Z" transform="translate(0 0.002)"/><path d="M15,48H8a3,3,0,0,1-3-3V17a1,1,0,0,1,2,0V45a1,1,0,0,0,1,1h7a1,1,0,0,1,0,2Z" transform="translate(0 2)"/><path d="M38,27a1,1,0,0,1-1-1V18a1,1,0,0,1,2,0v8A1,1,0,0,1,38,27Z" transform="translate(1.609 0.896)"/><path d="M26,28c-3.976,0-8-1.374-8-4s4.024-4,8-4,8,1.374,8,4S29.976,28,26,28Zm0-6c-3.722,0-6,1.3-6,2s2.278,2,6,2,6-1.3,6-2S29.722,22,26,22Z" transform="translate(1.125 1.001)" fill="#931837"/><path d="M26,38c-3.976,0-8-1.374-8-4a1,1,0,0,1,2,0c0,.7,2.278,2,6,2s6-1.3,6-2a1,1,0,0,1,2,0C34,36.626,29.976,38,26,38Z" transform="translate(1.125 1.535)" fill="#931837"/><path d="M26,43c-3.976,0-8-1.374-8-4a1,1,0,0,1,2,0c0,.7,2.278,2,6,2s6-1.3,6-2a1,1,0,0,1,2,0C34,41.626,29.976,43,26,43Z" transform="translate(1.125 2)" fill="#931837"/><path d="M26,48c-3.976,0-8-1.374-8-4V24a1,1,0,0,1,2,0V44c0,.7,2.278,2,6,2s6-1.3,6-2V24a1,1,0,0,1,2,0V44C34,46.626,29.976,48,26,48Z" transform="translate(1.125 2)" fill="#931837"/><path d="M26,33c-3.976,0-8-1.374-8-4a1,1,0,0,1,2,0c0,.7,2.278,2,6,2s6-1.3,6-2a1,1,0,0,1,2,0C34,31.626,29.976,33,26,33Z" transform="translate(1.125 1.303)" fill="#931837"/><path d="M40,38c-3.976,0-8-1.374-8-4s4.024-4,8-4,8,1.374,8,4S43.976,38,40,38Zm0-6c-3.722,0-6,1.3-6,2s2.278,2,6,2,6-1.3,6-2S43.722,32,40,32Z" transform="translate(2 1.5)" fill="#931837"/><path d="M40,48c-3.976,0-8-1.374-8-4V34a1,1,0,0,1,2,0V44c0,.7,2.278,2,6,2s6-1.3,6-2V34a1,1,0,0,1,2,0V44C48,46.626,43.976,48,40,48Z" transform="translate(2 2)" fill="#931837"/><path d="M40,43c-3.976,0-8-1.374-8-4a1,1,0,0,1,2,0c0,.7,2.278,2,6,2s6-1.3,6-2a1,1,0,0,1,2,0C48,41.626,43.976,43,40,43Z" transform="translate(2 2)" fill="#931837"/></g></g></svg>