<svg id="Layer_1" data-name="Layer 1" xmlns="http://www.w3.org/2000/svg" viewBox="0 0 90.49 48.83"><title>logo</title><path d="M52.14,16.39a6.16,6.16,0,0,0-.2-1.58H47.82a2.21,2.21,0,0,1,.52,1.58c0,2.22-1.78,2.22-2.92,2.22H38.66v-3.8h-3.8V25.75h3.8V21.8h6.13l2.39,3.95h4.47l-2.72-4.39A5.05,5.05,0,0,0,52.14,16.39Z"/><path d="M34.83,13.26V4.72L44,13.15S34.77,13.2,34.83,13.26Z"/><path d="M45,13.2,39.64,8.12,43.26,4.5l8.65,8.65Z"/><polygon points="51.91 12.34 51.91 4.88 48.12 8.45 51.91 12.34"/><rect x="42.29" y="0.49" width="2.36" height="2.36" transform="translate(13.91 -30.25) rotate(45)"/><path d="M12.65,48.83A9.64,9.64,0,0,1,5.37,45.3L5,44.91c-.59-.7-1-1.24-1.59-1.24H3.26V43.4H4a2.92,2.92,0,0,0,2.94-3.23A3.09,3.09,0,0,0,4,37H2.35a1.1,1.1,0,0,1,.27.82V47c0,.76.09.84.85.84h.91V48H0v-.14H.55c.76,0,.84-.08.84-.84V37.65c0-.76-.08-.83-.84-.83H0v-.15H4.11c2.52,0,4.19,1.4,4.19,3.5A3.5,3.5,0,0,1,5,43.57l-.31,0v.09a2.78,2.78,0,0,1,1.71,1.08c2.43,2.7,5,3.6,7.06,3.6a8.29,8.29,0,0,0,5-1.78l.09.11A9.25,9.25,0,0,1,12.65,48.83Z"/><path d="M10.25,42.49A4.14,4.14,0,0,1,14.6,38.6c2.59,0,4.32,1.55,4.32,3.89a4.13,4.13,0,0,1-4.32,3.9C12,46.39,10.25,44.83,10.25,42.49Zm7.3.3c0-2.16-1.35-3.91-3-3.91s-2.92,1.33-2.92,3.32c0,2.16,1.36,3.91,3,3.91S17.55,44.78,17.55,42.79Z"/><path d="M21.12,47.86h1.36c.75,0,.83-.08.83-.84V42.66L20.84,37.9c-.38-.72-.58-1.1-1-1.1h-.33v-.13h3v.13h-1v0c.2.08.39.41.65.88l2,3.88a2.07,2.07,0,0,1,.2.5h.11a3.43,3.43,0,0,1,.21-.5l1.89-3.66a1.65,1.65,0,0,0,.23-.69c0-.26-.18-.44-.67-.44h-.95v-.13h3v.13h-.27c-.45,0-.63.31-1.05,1.12l-2.33,4.5V47c0,.76.08.84.83.84h1.17V48H21.12Z"/><path d="M28.21,47.86h.25c.4,0,.63-.44.87-1l4.42-10.21H35v.19a2.92,2.92,0,0,0,.14.92l3.72,9.1c.31.76.41,1,.93,1h.12V48h-3v-.14h1.21v0c-.21-.08-.38-.48-.49-.74l-.88-2.16H30.48l-.85,2a.84.84,0,0,0-.08.36c0,.37.28.62.76.62h.77V48H28.21Zm8.4-3.21-2.68-6.57a1.53,1.53,0,0,1-.13-.63h-.14a2.11,2.11,0,0,1-.19.63L30.6,44.65Z"/><path d="M42.2,47.86h.55c.76,0,.83-.19.83-1V37.63c0-.75-.07-.81-.83-.81H42.2v-.15h4v.15h-.55c-.75,0-.85.06-.85.81v9.25a1.15,1.15,0,0,1-.34.82v0h2.12c1.52,0,2.52-.3,2.65-1.81l.13-1.58h.31l-.31,4.47h-.16l.06-.93h0c-.11.11-.18.14-.43.14H42.2Z"/><path d="M58.28,47.86h.55c.76,0,.84-.06.84-.82V37.63c0-.75-.08-.81-.84-.81h-.55v-.15h4v.18h-.55c-.76,0-.85.06-.85.82V47c0,.76.09.82.85.82h.55V48h-4Z"/><path d="M67.72,36.67v.15H66.5v0c.22.08.4.45.49.72l3.62,8.78a1.57,1.57,0,0,1,.13.56H71a1.62,1.62,0,0,1,.15-.63l3.53-8.49a1.09,1.09,0,0,0,.11-.43c0-.33-.23-.54-.77-.54H72.61v-.15h3.44v.15h-.19c-.5,0-.63.28-.91,1L70.79,48.08l-.85.06L65.76,37.79c-.29-.71-.41-1-.93-1H64.6v-.15Z"/><path d="M79.88,47.86h1.35c.76,0,.83-.08.83-.84V42.66L79.59,37.9c-.38-.72-.58-1.1-1-1.1h-.33v-.13h3v.13h-1v0c.21.08.4.41.65.88l2,3.88a2.07,2.07,0,0,1,.2.5h.12a2.45,2.45,0,0,1,.2-.5l1.89-3.66a1.65,1.65,0,0,0,.23-.69c0-.26-.17-.44-.67-.44h-1v-.13h3v.13H86.7c-.46,0-.64.31-1.06,1.12l-2.33,4.5V47c0,.76.08.84.83.84h1.17V48H79.88Z"/><path d="M89,47.1s0,0,0,0l-.33-.72h-.26a0,0,0,0,0,0,0v.7s0,0,0,0H88s0,0,0,0v-1.9s0,0,0,0h.77a.64.64,0,0,1,.48.17.53.53,0,0,1,.19.43.56.56,0,0,1-.1.33.58.58,0,0,1-.25.21l.38.77s0,0,0,0H89Zm-.11-1.16a.25.25,0,0,0,.08-.18.21.21,0,0,0-.08-.17.25.25,0,0,0-.19-.07h-.34l0,0V46h.36A.29.29,0,0,0,88.91,45.94Z"/><path d="M88.69,47.92a1.79,1.79,0,1,1,1.8-1.79A1.79,1.79,0,0,1,88.69,47.92Zm0-3.34a1.56,1.56,0,1,0,1.56,1.55A1.55,1.55,0,0,0,88.69,44.58Z"/></svg>