<svg xmlns="http://www.w3.org/2000/svg" width="54" height="54" viewBox="0 0 54 54">
  <g id="Group_71" data-name="Group 71" transform="translate(-3715 85)">
    <g id="Path_329" data-name="Path 329" transform="translate(3715 -85)" fill="none">
      <path d="M27,0A27,27,0,1,1,0,27,27,27,0,0,1,27,0Z" stroke="none"/>
      <path d="M 27 1 C 23.48958015441895 1 20.08470153808594 1.687301635742188 16.87992858886719 3.042800903320313 C 13.78398895263672 4.352268218994141 11.00334167480469 6.22711181640625 8.615219116210938 8.615219116210938 C 6.22711181640625 11.00334167480469 4.352268218994141 13.78398895263672 3.042800903320313 16.87992858886719 C 1.687301635742188 20.08470153808594 1 23.48958015441895 1 27 C 1 30.51041984558105 1.687301635742188 33.91529846191406 3.042800903320313 37.12007141113281 C 4.352268218994141 40.21601104736328 6.22711181640625 42.99665832519531 8.615219116210938 45.38478088378906 C 11.00334167480469 47.77288818359375 13.78398895263672 49.64772796630859 16.87992858886719 50.95719909667969 C 20.08470153808594 52.31269836425781 23.48958015441895 53 27 53 C 30.51041984558105 53 33.91529846191406 52.31269836425781 37.12007141113281 50.95719909667969 C 40.21601104736328 49.64772796630859 42.99665832519531 47.77288818359375 45.38478088378906 45.38478088378906 C 47.77288818359375 42.99665832519531 49.64772796630859 40.21601104736328 50.95719909667969 37.12007141113281 C 52.31269836425781 33.91529846191406 53 30.51041984558105 53 27 C 53 23.48958015441895 52.31269836425781 20.08470153808594 50.95719909667969 16.87992858886719 C 49.64772796630859 13.78398895263672 47.77288818359375 11.00334167480469 45.38478088378906 8.615219116210938 C 42.99665832519531 6.22711181640625 40.21601104736328 4.352268218994141 37.12007141113281 3.042800903320313 C 33.91529846191406 1.687301635742188 30.51041984558105 1 27 1 M 27 0 C 41.91168975830078 0 54 12.08831024169922 54 27 C 54 41.91168975830078 41.91168975830078 54 27 54 C 12.08831024169922 54 0 41.91168975830078 0 27 C 0 12.08831024169922 12.08831024169922 0 27 0 Z" stroke="none" fill="#fff"/>
    </g>
    <path id="Path_330" data-name="Path 330" d="M22,0A22,22,0,1,1,0,22,22,22,0,0,1,22,0Z" transform="translate(3720 -80)" fill="#fff"/>
    <path id="Path_331" data-name="Path 331" d="M1.5,0h21a1.5,1.5,0,0,1,0,3H1.5a1.5,1.5,0,0,1,0-3Z" transform="translate(3730 -68)" fill="#931837"/>
    <path id="Path_332" data-name="Path 332" d="M1.5,0h21a1.5,1.5,0,0,1,0,3H1.5a1.5,1.5,0,0,1,0-3Z" transform="translate(3730 -59)" fill="#931837"/>
    <path id="Path_333" data-name="Path 333" d="M1.5,0h21a1.5,1.5,0,0,1,0,3H1.5a1.5,1.5,0,0,1,0-3Z" transform="translate(3730 -50)" fill="#931837"/>
  </g>
</svg>
