<svg xmlns="http://www.w3.org/2000/svg" width="101.062" height="111" viewBox="0 0 101.062 111"><g transform="translate(-276 -1292)"><path d="M166.329,965.343,156.4,953.422a5.072,5.072,0,0,0-7.766,6.5l2.072,2.479c-22.053-2.094-43.1,11.6-49.347,32.366a45.8,45.8,0,0,0-1.879,15.849l-.227.113a15.85,15.85,0,0,0-7.732,9.408,15.917,15.917,0,1,0,18.034-10.981,35.805,35.805,0,0,1,1.517-11.491c4.913-16.324,21.43-26.988,38.694-25.177l-2.558,2.128a5.076,5.076,0,1,0,6.5,7.8l11.909-9.917a5.083,5.083,0,0,0,.657-7.143ZM111.8,1022.07a5.665,5.665,0,0,1,.611,3.012,5.863,5.863,0,0,1-.249,1.37,5.74,5.74,0,1,1-.419-4.382Zm45.362-18.95-4.393,4.335,4.336,4.393a5.075,5.075,0,1,1-7.223,7.132l-4.335-4.336-4.393,4.336a5.075,5.075,0,1,1-7.132-7.223l4.427-4.381-4.382-4.392a5.075,5.075,0,0,1,7.223-7.132l4.336,4.392,4.392-4.336a5.075,5.075,0,1,1,7.132,7.223Zm-52.675-56,4.392-4.336-4.291-4.4a5.075,5.075,0,1,1,7.223-7.132l4.336,4.392,4.392-4.336a5.068,5.068,0,1,1,7.144,7.189l-4.393,4.336,4.336,4.392a5.075,5.075,0,1,1-7.223,7.132l-4.347-4.392-4.392,4.336a5.075,5.075,0,0,1-7.177-7.178M90.9,992.874a5.073,5.073,0,0,1-7.173.005l0-.005-4.347-4.392-4.324,4.3a5.079,5.079,0,1,1-7.166-7.2l4.392-4.336-4.347-4.415a5.075,5.075,0,0,1,7.223-7.132l4.336,4.392,4.392-4.335a5.067,5.067,0,1,1,7.143,7.188l-4.392,4.336,4.336,4.392a5.084,5.084,0,0,1-.056,7.188Z" transform="translate(209.621 362.265)"/><path d="M157.16,1003.12l-4.393,4.335,4.336,4.393a5.075,5.075,0,1,1-7.223,7.132l-4.335-4.336-4.393,4.336a5.075,5.075,0,1,1-7.132-7.223l4.427-4.381-4.382-4.392a5.075,5.075,0,0,1,7.223-7.132l4.336,4.392,4.392-4.336a5.075,5.075,0,1,1,7.132,7.223Zm-52.675-56,4.392-4.336-4.291-4.4a5.075,5.075,0,1,1,7.223-7.132l4.336,4.392,4.392-4.336a5.068,5.068,0,1,1,7.144,7.189l-4.393,4.336,4.336,4.392a5.075,5.075,0,1,1-7.223,7.132l-4.347-4.392-4.392,4.336a5.075,5.075,0,0,1-7.177-7.178M90.9,992.874a5.073,5.073,0,0,1-7.173.005l0-.005-4.347-4.392-4.324,4.3a5.079,5.079,0,1,1-7.166-7.2l4.392-4.336-4.347-4.415a5.075,5.075,0,0,1,7.223-7.132l4.336,4.392,4.392-4.335a5.067,5.067,0,1,1,7.143,7.188l-4.392,4.336,4.336,4.392a5.084,5.084,0,0,1-.056,7.188Z" transform="translate(209.621 362.265)" fill="#931837"/></g></svg>