<svg xmlns="http://www.w3.org/2000/svg" width="50.735" height="38.215" viewBox="0 0 50.735 38.215"><g transform="translate(-4.4 -14.9)"><g transform="translate(4.4 14.9)"><path d="M31.984,21.759a3.79,3.79,0,0,0,1.361-.272l2.5,3.212h9.8l2.5-3.212a3.79,3.79,0,0,0,1.361.272,3.43,3.43,0,1,0-3.43-3.43,3.536,3.536,0,0,0,.435,1.688l-1.96,2.5H36.883l-1.96-2.5a3.536,3.536,0,0,0,.435-1.688,3.43,3.43,0,1,0-6.859,0A3.462,3.462,0,0,0,31.984,21.759Zm17.474-4.682a1.252,1.252,0,1,1-1.252,1.252A1.232,1.232,0,0,1,49.458,17.077Zm-17.474,0a1.252,1.252,0,1,1-1.252,1.252A1.232,1.232,0,0,1,31.984,17.077Z" transform="translate(-15.381 -14.9)" fill="#af4230"/><path d="M46.965,46.141H27.1a3.435,3.435,0,1,0-3.266,4.518A3.47,3.47,0,0,0,27.1,48.318H46.965a3.43,3.43,0,1,0,0-2.177ZM23.884,48.427a1.252,1.252,0,1,1,1.252-1.252A1.266,1.266,0,0,1,23.884,48.427Zm27.545-1.2a1.252,1.252,0,1,1-1.252-1.252A1.232,1.232,0,0,1,51.429,47.23Z" transform="translate(-11.69 -28.068)"/><path d="M51.651,60.485a3.47,3.47,0,0,0-3.266,2.341H43.377L38.967,57.6H20.513L16.1,62.826H11.1A3.435,3.435,0,1,0,7.83,67.344,3.47,3.47,0,0,0,11.1,65h5.988l4.409-5.226H37.988L42.4,65h5.988a3.435,3.435,0,1,0,3.266-4.518ZM7.83,65.167a1.252,1.252,0,1,1,1.2-1.579v.653A1.275,1.275,0,0,1,7.83,65.167Zm43.822,0a1.226,1.226,0,0,1-1.2-.925v-.653a1.247,1.247,0,1,1,1.2,1.579Z" transform="translate(-4.4 -34.355)"/><path d="M49.5,70.085a3.79,3.79,0,0,0-1.361.272l-2.5-3.157H35.895l-2.5,3.157a3.79,3.79,0,0,0-1.361-.272,3.43,3.43,0,1,0,3.43,3.43,3.536,3.536,0,0,0-.435-1.688l1.905-2.45H44.6l1.905,2.45a3.536,3.536,0,0,0-.435,1.688,3.43,3.43,0,1,0,3.43-3.43ZM32.03,74.767a1.252,1.252,0,1,1,1.252-1.252A1.232,1.232,0,0,1,32.03,74.767Zm17.474,0a1.252,1.252,0,1,1,1.252-1.252A1.232,1.232,0,0,1,49.5,74.767Z" transform="translate(-15.426 -38.729)" fill="#af4230"/><path d="M7.83,31.459A3.47,3.47,0,0,0,11.1,29.118H16.1l4.409,5.226H39.022l4.409-5.226H48.44A3.435,3.435,0,1,0,51.706,24.6a3.47,3.47,0,0,0-3.266,2.341H42.451l-4.409,5.226H21.493l-4.409-5.226H11.1A3.435,3.435,0,1,0,7.83,31.459Zm43.822-4.682a1.252,1.252,0,1,1-1.2,1.579V27.7A1.275,1.275,0,0,1,51.651,26.777Zm-43.822,0a1.226,1.226,0,0,1,1.2.925v.653a1.247,1.247,0,1,1-1.2-1.579Z" transform="translate(-4.4 -19.32)"/></g></g></svg>