<svg xmlns="http://www.w3.org/2000/svg" width="55" height="55" viewBox="0 0 55 55"><g transform="translate(-1766 -491)"><circle cx="20.5" cy="20.5" r="20.5" transform="translate(1773 498)" fill="#fff"/><g transform="translate(1766 491)" fill="none" stroke="#fff" stroke-width="2"><circle cx="27.5" cy="27.5" r="27.5" stroke="none"/><circle cx="27.5" cy="27.5" r="26.5" fill="none"/></g><path d="M102.169,217.048a10.089,10.089,0,0,0,10.157-10.157c0-.153,0-.306-.011-.464a7.26,7.26,0,0,0,1.779-1.85,7.03,7.03,0,0,1-2.052.562,3.577,3.577,0,0,0,1.572-1.976,7.191,7.191,0,0,1-2.265.868,3.572,3.572,0,0,0-6.08,3.258,10.135,10.135,0,0,1-7.357-3.728,3.571,3.571,0,0,0,1.1,4.765,3.524,3.524,0,0,1-1.621-.448v.044a3.575,3.575,0,0,0,2.865,3.5,3.566,3.566,0,0,1-1.61.06,3.574,3.574,0,0,0,3.335,2.478,7.183,7.183,0,0,1-4.432,1.534,7.416,7.416,0,0,1-.851-.049,10.1,10.1,0,0,0,5.469,1.6" transform="translate(1688.123 309.123)"/></g></svg>