<svg id="Layer_1" data-name="Layer 1" xmlns="http://www.w3.org/2000/svg" viewBox="0 0 87.09 36.65"><title>logo</title><path d="M12.63,14l.4-1.27a6.57,6.57,0,0,1-1.74-2.53,25.27,25.27,0,0,1,8.58-4.41,33.41,33.41,0,0,1,11.24-.86S36.92,1.46,40.63.51,50,0,54.74,1.19A114.07,114.07,0,0,1,67.37,5.6S67.37,7,65.48,7c-2.56,0-3.41,1.14-3.41,1.14s-.53-2.35-5.76-4.5a33.06,33.06,0,0,0-9.17-2.06c-5-.36-8.31,1.22-12.55,3.77,0,0,7.58.13,12-.07a23.58,23.58,0,0,0,6.26-.88,18.84,18.84,0,0,1-6.77,1.7c-4.36.45-13.51.11-13.51.11S20.8,5.57,15.75,8.48h2.1L16.12,9.74l-4,1a5.35,5.35,0,0,0,1.48,1.72Z"/><polyline points="0.28 19.89 0 16.2 85.52 3.43"/><polyline points="86.8 20.19 87.09 23.88 1.57 36.65"/><path d="M2.57,29a5.57,5.57,0,0,1-.06-.85l.1-4.53,2.23-.4-.09,4.5a3.1,3.1,0,0,0,0,.63,1.15,1.15,0,0,0,1.52,1c.94-.17,1.38-.8,1.41-2.18l.09-4.49,2.2-.4-.09,4.64c0,2.44-1.22,3.91-3.55,4.32C4.32,31.6,2.89,30.73,2.57,29Z"/><path d="M19.8,20.53l-.15,8.17-2.06.37.06-4.31-2,3.85-1,.18-2-3.13L12.52,30l-2,.37.17-8.18,1.81-.32,2.67,4.24,2.77-5.21Z"/><path d="M22.65,21.8l0,1.37,3.51-.62,0,1.72-3.52.63,0,1.5,4.13-.74-.05,1.79-6.32,1.13.16-8.18,6.18-1.1,0,1.79Z"/><path d="M34.67,17.87,34.5,26l-2.23.4.06-3.17-3,.54L29.23,27,27,27.38l.17-8.17,2.23-.4-.06,3.06,3-.54,0-3.06Z"/><path d="M46.89,15.68l-.15,8.18-2.06.36.07-4.3-2,3.85-1,.18-2-3.13-.09,4.31-2.06.37.17-8.18L39.55,17l2.66,4.23L45,16Z"/><path d="M47.16,20.36a4.74,4.74,0,0,1,4.09-5.62c2.42-.43,4.18.73,4.54,2.77a4.73,4.73,0,0,1-4.08,5.62C49.29,23.56,47.53,22.4,47.16,20.36Zm6.4-2.31a1.7,1.7,0,0,0-2.18-1.42,2.56,2.56,0,0,0-2,3.19,1.7,1.7,0,0,0,2.17,1.43A2.58,2.58,0,0,0,53.56,18.05Z"/><path d="M57.75,15.57,55.32,16l0-1.83,7.07-1.27,0,1.84L60,15.17l-.14,6.34-2.23.4Z"/><path d="M61.83,17.74a4.74,4.74,0,0,1,4.08-5.62c2.43-.43,4.18.73,4.55,2.77a4.73,4.73,0,0,1-4.08,5.62C64,20.94,62.2,19.78,61.83,17.74Zm6.4-2.31A1.71,1.71,0,0,0,66.05,14a2.59,2.59,0,0,0-2,3.2,1.71,1.71,0,0,0,2.18,1.42A2.58,2.58,0,0,0,68.23,15.43Z"/><path d="M76.24,16.14,78,18.27l-2.34.41L74.13,16.8,73,17l0,2.17-2.24.4.17-8.18,3.37-.6c2-.36,3.35.37,3.63,2A3.1,3.1,0,0,1,76.24,16.14Zm-2-3.53-1.17.2L73,15.21,74.36,15c1-.17,1.47-.75,1.32-1.62C75.56,12.69,75,12.47,74.26,12.61Z"/><path d="M77.69,17.61l.58-1.82a5,5,0,0,0,2.77.3c.86-.15,1.31-.51,1.23-.94-.19-1.06-3.92.22-4.36-2.27-.31-1.7,1-3.07,3.28-3.49a5.52,5.52,0,0,1,3,.17l-.51,1.8a4.15,4.15,0,0,0-2.27-.21c-.93.16-1.36.59-1.29,1,.19,1.08,3.92-.22,4.35,2.21.31,1.69-1,3.08-3.29,3.49A6.28,6.28,0,0,1,77.69,17.61Z"/></svg>